<mxfile host="Electron" modified="2023-10-01T16:38:11.420Z" agent="Mozilla/5.0 (Windows NT 10.0; Win64; x64) AppleWebKit/537.36 (KHTML, like Gecko) draw.io/22.0.0 Chrome/114.0.5735.289 Electron/25.8.3 Safari/537.36" etag="1DkFmS8WghqeDEoUl0OI" version="22.0.0" type="device" pages="3">
  <diagram name="FluxogramaGeral" id="apqwicIfb6sMjzVCIx1G">
    <mxGraphModel dx="1036" dy="625" grid="1" gridSize="10" guides="1" tooltips="1" connect="1" arrows="1" fold="1" page="1" pageScale="1" pageWidth="827" pageHeight="1169" math="0" shadow="0">
      <root>
        <mxCell id="0" />
        <mxCell id="1" parent="0" />
        <mxCell id="JubiYSOhgX7guYmnbBrk-2" style="edgeStyle=orthogonalEdgeStyle;rounded=0;orthogonalLoop=1;jettySize=auto;html=1;exitX=0.5;exitY=1;exitDx=0;exitDy=0;entryX=0.5;entryY=0;entryDx=0;entryDy=0;" parent="1" source="iax1r84koQAQu1VG_3wa-1" target="JubiYSOhgX7guYmnbBrk-1" edge="1">
          <mxGeometry relative="1" as="geometry" />
        </mxCell>
        <mxCell id="iax1r84koQAQu1VG_3wa-1" value="Inicio" style="ellipse;whiteSpace=wrap;html=1;" parent="1" vertex="1">
          <mxGeometry x="340" y="10" width="120" height="80" as="geometry" />
        </mxCell>
        <mxCell id="iax1r84koQAQu1VG_3wa-8" value="" style="edgeStyle=orthogonalEdgeStyle;rounded=0;orthogonalLoop=1;jettySize=auto;html=1;" parent="1" source="iax1r84koQAQu1VG_3wa-4" target="iax1r84koQAQu1VG_3wa-7" edge="1">
          <mxGeometry relative="1" as="geometry" />
        </mxCell>
        <mxCell id="iax1r84koQAQu1VG_3wa-4" value="Ler INPUT" style="rounded=0;whiteSpace=wrap;html=1;" parent="1" vertex="1">
          <mxGeometry x="340" y="340" width="120" height="60" as="geometry" />
        </mxCell>
        <mxCell id="iax1r84koQAQu1VG_3wa-25" value="" style="edgeStyle=orthogonalEdgeStyle;rounded=0;orthogonalLoop=1;jettySize=auto;html=1;" parent="1" source="iax1r84koQAQu1VG_3wa-7" target="iax1r84koQAQu1VG_3wa-24" edge="1">
          <mxGeometry relative="1" as="geometry" />
        </mxCell>
        <mxCell id="YPHYhwfCsJQZdLreDcAp-2" style="edgeStyle=orthogonalEdgeStyle;rounded=0;orthogonalLoop=1;jettySize=auto;html=1;exitX=1;exitY=0.5;exitDx=0;exitDy=0;entryX=0;entryY=0.5;entryDx=0;entryDy=0;" parent="1" source="iax1r84koQAQu1VG_3wa-7" target="YPHYhwfCsJQZdLreDcAp-1" edge="1">
          <mxGeometry relative="1" as="geometry" />
        </mxCell>
        <mxCell id="iax1r84koQAQu1VG_3wa-7" value="USR_SW1 pressionado?" style="rhombus;whiteSpace=wrap;html=1;" parent="1" vertex="1">
          <mxGeometry x="320" y="440" width="160" height="80" as="geometry" />
        </mxCell>
        <mxCell id="iax1r84koQAQu1VG_3wa-11" value="SIM" style="text;html=1;align=center;verticalAlign=middle;resizable=0;points=[];autosize=1;strokeColor=none;fillColor=none;" parent="1" vertex="1">
          <mxGeometry x="490" y="450" width="40" height="30" as="geometry" />
        </mxCell>
        <mxCell id="9bYc1Ua3Zrjabfvg03NI-1" style="edgeStyle=orthogonalEdgeStyle;rounded=0;orthogonalLoop=1;jettySize=auto;html=1;exitX=0;exitY=0.5;exitDx=0;exitDy=0;entryX=0.5;entryY=1;entryDx=0;entryDy=0;" edge="1" parent="1" source="iax1r84koQAQu1VG_3wa-20" target="lA6M4Bvt-WVYwUp43VQ0-7">
          <mxGeometry relative="1" as="geometry" />
        </mxCell>
        <mxCell id="iax1r84koQAQu1VG_3wa-20" value="Multiplicacao" style="shape=process;whiteSpace=wrap;html=1;backgroundOutline=1;" parent="1" vertex="1">
          <mxGeometry x="340" y="880" width="120" height="60" as="geometry" />
        </mxCell>
        <mxCell id="iax1r84koQAQu1VG_3wa-31" style="edgeStyle=orthogonalEdgeStyle;rounded=0;orthogonalLoop=1;jettySize=auto;html=1;exitX=1;exitY=0.5;exitDx=0;exitDy=0;entryX=0;entryY=0.5;entryDx=0;entryDy=0;" parent="1" source="iax1r84koQAQu1VG_3wa-24" target="iax1r84koQAQu1VG_3wa-30" edge="1">
          <mxGeometry relative="1" as="geometry" />
        </mxCell>
        <mxCell id="iax1r84koQAQu1VG_3wa-33" style="edgeStyle=orthogonalEdgeStyle;rounded=0;orthogonalLoop=1;jettySize=auto;html=1;exitX=0.5;exitY=1;exitDx=0;exitDy=0;" parent="1" source="iax1r84koQAQu1VG_3wa-24" target="iax1r84koQAQu1VG_3wa-20" edge="1">
          <mxGeometry relative="1" as="geometry" />
        </mxCell>
        <mxCell id="iax1r84koQAQu1VG_3wa-24" value="USR_SW2 pressionado?" style="rhombus;whiteSpace=wrap;html=1;" parent="1" vertex="1">
          <mxGeometry x="320" y="570" width="160" height="80" as="geometry" />
        </mxCell>
        <mxCell id="iax1r84koQAQu1VG_3wa-26" value="NÃO" style="text;html=1;align=center;verticalAlign=middle;resizable=0;points=[];autosize=1;strokeColor=none;fillColor=none;" parent="1" vertex="1">
          <mxGeometry x="405" y="530" width="50" height="30" as="geometry" />
        </mxCell>
        <mxCell id="iax1r84koQAQu1VG_3wa-38" style="edgeStyle=orthogonalEdgeStyle;rounded=0;orthogonalLoop=1;jettySize=auto;html=1;exitX=0.5;exitY=1;exitDx=0;exitDy=0;entryX=1;entryY=0.25;entryDx=0;entryDy=0;" parent="1" source="iax1r84koQAQu1VG_3wa-30" target="iax1r84koQAQu1VG_3wa-20" edge="1">
          <mxGeometry relative="1" as="geometry" />
        </mxCell>
        <mxCell id="iax1r84koQAQu1VG_3wa-30" value="IncrementaMultiplicador" style="shape=process;whiteSpace=wrap;html=1;backgroundOutline=1;" parent="1" vertex="1">
          <mxGeometry x="580" y="580" width="180" height="60" as="geometry" />
        </mxCell>
        <mxCell id="iax1r84koQAQu1VG_3wa-32" value="SIM" style="text;html=1;align=center;verticalAlign=middle;resizable=0;points=[];autosize=1;strokeColor=none;fillColor=none;" parent="1" vertex="1">
          <mxGeometry x="510" y="570" width="40" height="30" as="geometry" />
        </mxCell>
        <mxCell id="iax1r84koQAQu1VG_3wa-34" value="NÃO" style="text;html=1;align=center;verticalAlign=middle;resizable=0;points=[];autosize=1;strokeColor=none;fillColor=none;" parent="1" vertex="1">
          <mxGeometry x="430" y="720" width="50" height="30" as="geometry" />
        </mxCell>
        <mxCell id="YPHYhwfCsJQZdLreDcAp-3" style="edgeStyle=orthogonalEdgeStyle;rounded=0;orthogonalLoop=1;jettySize=auto;html=1;exitX=1;exitY=0.5;exitDx=0;exitDy=0;entryX=1;entryY=0.5;entryDx=0;entryDy=0;" parent="1" source="YPHYhwfCsJQZdLreDcAp-1" target="iax1r84koQAQu1VG_3wa-20" edge="1">
          <mxGeometry relative="1" as="geometry">
            <Array as="points">
              <mxPoint x="840" y="480" />
              <mxPoint x="840" y="910" />
            </Array>
          </mxGeometry>
        </mxCell>
        <mxCell id="YPHYhwfCsJQZdLreDcAp-1" value="IncrementaTabuada" style="shape=process;whiteSpace=wrap;html=1;backgroundOutline=1;" parent="1" vertex="1">
          <mxGeometry x="580" y="450" width="160" height="60" as="geometry" />
        </mxCell>
        <mxCell id="lA6M4Bvt-WVYwUp43VQ0-5" value="" style="edgeStyle=orthogonalEdgeStyle;rounded=0;orthogonalLoop=1;jettySize=auto;html=1;" parent="1" source="JubiYSOhgX7guYmnbBrk-1" target="lA6M4Bvt-WVYwUp43VQ0-4" edge="1">
          <mxGeometry relative="1" as="geometry" />
        </mxCell>
        <mxCell id="JubiYSOhgX7guYmnbBrk-1" value="Inicializa os GPIO" style="shape=process;whiteSpace=wrap;html=1;backgroundOutline=1;" parent="1" vertex="1">
          <mxGeometry x="340" y="130" width="120" height="60" as="geometry" />
        </mxCell>
        <mxCell id="lA6M4Bvt-WVYwUp43VQ0-6" style="edgeStyle=orthogonalEdgeStyle;rounded=0;orthogonalLoop=1;jettySize=auto;html=1;exitX=0.5;exitY=1;exitDx=0;exitDy=0;" parent="1" source="lA6M4Bvt-WVYwUp43VQ0-4" target="iax1r84koQAQu1VG_3wa-4" edge="1">
          <mxGeometry relative="1" as="geometry" />
        </mxCell>
        <mxCell id="lA6M4Bvt-WVYwUp43VQ0-4" value="PrintaTabuada valor default" style="shape=process;whiteSpace=wrap;html=1;backgroundOutline=1;" parent="1" vertex="1">
          <mxGeometry x="340" y="230" width="120" height="60" as="geometry" />
        </mxCell>
        <mxCell id="9bYc1Ua3Zrjabfvg03NI-3" style="edgeStyle=orthogonalEdgeStyle;rounded=0;orthogonalLoop=1;jettySize=auto;html=1;exitX=0.5;exitY=0;exitDx=0;exitDy=0;entryX=0.5;entryY=1;entryDx=0;entryDy=0;" edge="1" parent="1" source="lA6M4Bvt-WVYwUp43VQ0-7" target="9bYc1Ua3Zrjabfvg03NI-2">
          <mxGeometry relative="1" as="geometry" />
        </mxCell>
        <mxCell id="lA6M4Bvt-WVYwUp43VQ0-7" value="PrintaTabuada" style="shape=process;whiteSpace=wrap;html=1;backgroundOutline=1;" parent="1" vertex="1">
          <mxGeometry x="90" y="660" width="120" height="60" as="geometry" />
        </mxCell>
        <mxCell id="9bYc1Ua3Zrjabfvg03NI-4" style="edgeStyle=orthogonalEdgeStyle;rounded=0;orthogonalLoop=1;jettySize=auto;html=1;exitX=0.5;exitY=0;exitDx=0;exitDy=0;entryX=0;entryY=0.5;entryDx=0;entryDy=0;" edge="1" parent="1" source="9bYc1Ua3Zrjabfvg03NI-2" target="iax1r84koQAQu1VG_3wa-4">
          <mxGeometry relative="1" as="geometry" />
        </mxCell>
        <mxCell id="9bYc1Ua3Zrjabfvg03NI-2" value="AcendeLED" style="shape=process;whiteSpace=wrap;html=1;backgroundOutline=1;" vertex="1" parent="1">
          <mxGeometry x="90" y="530" width="120" height="60" as="geometry" />
        </mxCell>
      </root>
    </mxGraphModel>
  </diagram>
  <diagram id="TkbClsQZubtuZB_lItvo" name="InicializaçãoGPIO">
    <mxGraphModel dx="1050" dy="1807" grid="1" gridSize="10" guides="1" tooltips="1" connect="1" arrows="1" fold="1" page="1" pageScale="1" pageWidth="827" pageHeight="1169" math="0" shadow="0">
      <root>
        <mxCell id="0" />
        <mxCell id="1" parent="0" />
        <mxCell id="1FNCOhLcBVZ3CNqndHfH-1" value="" style="shape=image;verticalLabelPosition=bottom;labelBackgroundColor=default;verticalAlign=top;aspect=fixed;imageAspect=0;image=data:image/png,iVBORw0KGgoAAAANSUhEUgAAA1gAAAHACAYAAAC/NcmvAAAAAXNSR0IArs4c6QAAAARnQU1BAACxjwv8YQUAAAAJcEhZcwAADsMAAA7DAcdvqGQAAO48SURBVHhe7N0HmDNV2f/xQdTX3rt/RbArWFDBhnREQVSaAqIivIAivihgl94EFQVEUESKgFIFFMTeK3awK/bee/fv57AHh7D7PEk2O0l2f9/rmmt3k9lkypn73P2s8I9//OPfTQghhBBCCCGEofntb3/bPP3pT2+uNfN3CCGEEEIIIYR5EgMrhBBCCCGEEEZEDKwQQgghhBBCGBExsEIIIYQQQghhRMTACiGEEEIIIYQREQMrhBBCCCGEEEZEDKwQQgghhBBCGBExsEIIIYQQQghhRMTACiGEEEIIIYQREQMrhBBCCCGEEEZEDKwQQgghhBBCGBExsEIIIYQQQghhRMTACiGEEEIIIYQREQMrhBBCCCGEEEZEDKwQQgghhBBCGBExsEIIIYQQQghhRMTACiGEEEIIIYQREQMrhBBCCCGEEEZEDKwQQgghhBBCGBExsEIIIYQQQghhRMTACiGEEEIIIYQRscI//vGPf8/8HkIIYQj+8pe/ND/+8Y+bX/7yl83f/va3mVevZIUVVmiuda1rNde97nWb61//+s3Nbnaz5pa3vGVz7Wtfu7zXxv8fccQRzac//enmNa95TbPqqqvOvDM6/iPzmx/84AfNpZde2pxzzjnNHe5wh+bggw9urne9683sMbn8/e9/b7773e82n/rUp5ozzjij2W677ZonP/nJM+/Oj9///vfN1772tWvcv8p1rnOd5q53vWtzi1vcYuaV2XGMP/rRj64aC//zP//T3PzmN29udatbldfc/5ve9KYze4cQQlhM/Pa3v22e/vSnx8AKIYT5Qjn/0pe+VBT/o446qvnjH//Y3POe9ywG0k1ucpNi1Pz0pz9tvv/97xdl+yEPeUizxRZblH3a/OQnP2kOOOCA5pOf/GRzzDHHNA972MNm3hkdjMH3vOc9zete97rmE5/4RPP4xz++ee1rX1uMv0nnF7/4RXPWWWc1p512WvPlL3+5eeUrX9nssMMOM+/Oj7e97W3Nnnvu2fzud7+beeXq/L//9/+ao48+unnkIx8588o1cd/f9KY3NR/84AfLfWaMGRs///nPi2H1ne98p3nZy17WrLXWWjP/EUIIYTERAyuEEEYMZXrTTTctkZAXv/jFzfbbb18iVf/617+K8v3Vr361GAWf+9znmrvc5S4lcrTOOutcFcn65z//WYwI+97xjncs0Y9R8+9//7v561//Woyql7/85eV4p8XAYqiKAonuveENb2gOP/zwkRhYrvszn/nM5rLLLmse/vCHXyNK9c53vrMYSL535ZVXnnn16ohcMVqPO+64Zvfdd2+e+MQnNje4wQ2KQfuFL3yhGM7uv6jhox71qJn/WlowXr/1rW81D3zgA2deCSGExUU1sFKDFUIII+LGN75xc6Mb3agYTH4XxfBTSphUvHXXXbco6Q94wAOKEfbCF76wufzyy4vRgxVXXLG57W1v26yyyioLYlzBsUkHFFnrTVGcdBirriVjR9rlqKD0SwE888wzm1e84hXFOK7bs571rPJd97vf/Zrb3e52M/9xTa644ormLW95S4l0bb311mVf1/g2t7lNs+GGGzYHHnhgc8Mb3nBm76WHMc7QvOSSS2ZeCSGExUsMrBBCGCHLMlq8p45n7733LjU5lPI3v/nNc6alLSSjNFC6xDUc9bH/6le/ap797GcX46iXz372s83PfvazEtlaVpRPCuhvfvObUnclktmLdM/11ltv5q+lx/e+973mjW98Y7lOIYSw2Flxn3322W/m9xBCCPPk9NNPLw0v1l9//VlToRgIt7/97Zuvf/3rpW5LOqCaHJEr/OlPf2o+//nPl/SytkJPcVd3JOLlfzTN+PWvf132Y3CIEGiuQJEVNZGmIGLw7W9/u0TV7NdGmuJ73/ve5h73uEezySablAhO5Q9/+ENJl/Nd6odEXkS9pBZqjvHFL36x+cY3vlE2dWOMRcfj2Bkk3hcVEpETxZM+55ycs99F5xgtPnd5xpLzci6ulagf/PzYxz7WbLDBBte4xlLyfI9zl04ogri8aKD7cetb3/oaxrFjPemkk8rnSCEUkZoL9+Kiiy4q118q473vfe/y3fUzRd9cD5Gteq8rDDLXTAqhayhKZ/9efK7Pd+9cd/fMfe09bgaj6+94XV/X4ytf+Uq5R44J0lbVBPqsP//5z+U7HV8bqZOutWtf68h8RsVnGOvGnTFQx6hxYczV8av27LDDDivXxzE5Bt/t9/a4dJ+NO9fBMdmv9zoYD5q0OG7Gmv9n2DrP9rGFEMI4ME+q6Y2BFUIII2R5BhYojZT3t7/97UWR1PSCoXP22Wc3++23X3PyyScXo0sdFijdUswYFf7vHe94R0ll879rrrlmUXA111DnQ/G++93v3jznOc8pNUEEvaYLar58XjVo5jKwNOp4/vOfXwwp9WCnnHJKibLd6U53Kp/hfbVb0ukowg960IOau93tbuWcKNyU6Re96EVFyV577bWL0q0micLPMHR9pElS3h/84AfPaki0oZS/5CUvKZ/ns48//vhiLDg2qXfta8wY+M+cVpp4OE77fuhDH2ruda97FSNqLlyTXiMFrqX6NNd4s802W6YxyKBgyDAwGQmf+cxnyrWt9xCuH0OuGjIMpve///3lvjEI3/3udzcnnHBC+f+HPvShV0spZDi658YIA+2jH/1o8+pXv7rcA9+p8yTDyvuul+jofe9737KPMaX2y7VcbbXVitHre17wghc0b33rW5sLL7ywHJNrWc+RofR///d/zQc+8IHSDEX06YILLij3WqTPvfDZBx10UDEuHa8GHoccckj5LueyxhprFMNcx0efxzj0+RSQOk511DQWHJvPYngx7I1d43b11Vcvx1s577zzSgMY/+M6+T7PhbHks0IIYZzEwAohhAWgHwMLFEQd8RhJ97///YsyTWm2iZhstdVWRZFltFBkGUSvetWrSprZ4x73uGJgMF58B4OLEmwfSiZlnTefgs/LzyChiEtTE2nAbAaWCMJOO+1UogJHHnlk6TBICabUMgQ0bqDIQi2Nhg9Pe9rTrvpMxhJDgILN0LnPfe5TjAdGoQ58j3jEI8p3MYR8n7/nMrD8j+uz7777NjvvvHNJq3zsYx9bFHwGAaX+0Y9+dDl/UQ1K+V577dU86UlPKoaD9u0ieQyID3/4w81GG220zAhULz6T4s6oeO5zn1uMo2Xhers2IoaMBD99N0NH1Er0h7FRjSufzxAUIdtjjz1KhOwJT3hCMaYZtDpJOmbjwn3WEKUam495zGOKUc5o1bXQeBGlc+2/+c1vNh//+MfL/7n3rsGWW25ZjDmfaTOm/K8x5v4zzoyHjTfeuByn8bP//vs3z3jGM8q19P8MQ2Ob4ahGkMEk6ubzGECulXEjqig6KWLpXBnZmnowcC+++OJSh8gZ4Gc1rs4999wyxhl0u+yySzkOY8v9P/XUU8t19f++270wptxnnyHl1nfp7ugYQwhhnFQDa7SJ7CGEEPqCMsrIoOxSoBlZO+64Y0kta8MAozAzfijSFHOIqDBgKNI66VGW/S4yQCEWARB9ef3rX1+MA2leDLFlwWhjHGrIIb1LVEfkSsTEe9LEGEQMLY06KOk+l5IMP0W+RIwoxSIqojqO2wZGhvN0TLNFjeAcfS6jzPcw9Gr6l+tEsW5Hk6TYiWpIc/Pd1cDxHRRwxgAlfhAYKxR616Lf9cgYMwxTEUBNMRg1jCzny4BgbFVcj9qVkFHjPQaR++9vhovoGxjHjC7RsDvf+c7luomYMSoYjX4XydE05alPfWq5RyZ5xiyjheHmp/9lgDkuUS1GqNcZbO6v7xFlFAVjrDCuRapEnkTD6v8zwIyxbbfdtow55+IcHYNaNsawY7Cv9L1lITJ56KGHlrEs4sUoszG+jTPRWdfOd/heY8oYZYDD+HD8SQ8MIUwSMbBCCGEMUIApupTJWqtCKRWJaBsejDAREFEoUSEtwxkyIjmiBRRL+/vJ6BBdEOXyf16ntIp4QXTMd84FY0L6n6gUxVmUSJqWiITvrEqtiJWoEsNGJKs26bA/w2DzzTe/qganGguUf5/FmBQ1EaVwjLPh2ojuUO6lSrYjT87T9aiRINiPYccoknYpgmYToWPASCVsG2T9QKFn5GluMUjki2Hi2jAOpUa6VgwUf0vbFPWBn1LcfvjDHzbnn3/+VcfsO90z97YeMyODge3c63l7z3cx1Blnrj1cc9eVUcy4rJ+h9bx7AWmdtRbL+64no9Z3MGDcLz8ZpfW4RJ8YmpYVYMjC9xiz1nPzmfW7GLbGj2ic+z0XxpQIoZqqlVZaqfxPxXkYx54H10rUkwHr86RKSv9kFDoPBpaxG0IIk0IMrBBCGAMUawqoiE7tXscgahtXoFSLCFBA3/WudzXbbbddUTwZFBTmqtRWKLzt13yeOhaKKENJRGwuKLWiRaJW0hEZQdKv2oovfKYIGoWbISRCREGnBDO2HB8YF7vuumsxAhgRoh5Su0SXGAe9x17xGVL+GEy9tVO+u/f/RDQYe9LmXKu6qQUTydM+XWRlEByjiJIUt957sjwYBWqdRIncM9eKMcHA1eyBMSRyA9e4fcyMaGmDjlkEB66je8Po04Ck4prb2s0i6rXpPWavGxuzUY02xjfDSqRSBKl9XKJy1h5TTyVi6hx9pu/p/a5q7IvOOr65MP5FpeD82kYzOAukETpnz4txZfzUWju1cSK0jsX/hxDCpDD77BZCCGHBoMiKrvjJmBGNWhYUTWlb6nSkbTFopIJJMWOELA/RJEqoba6oERyPeisRGJECNT/Pe97zrtZkoEKJ3mKLLYqSLA1OaplaHiluvq/CQFG/5XgZkh/5yEfK4saaLPjf2RAp8x7lvG1QzIXjpswzWmYzIKshMggMS4aNKFA/SEtkQPXCMGasSsdjiIhEijg5R9t3v/vdWaM87WOWnifNTyTL9bO/8xTtYsgwYkfV4IEh6POl97mmvdTjGvR6zobvqveZgezvNsYqw9F1M94YURbqdj011XD9GFrqtqrBGkIIk0AMrBBC6BjRGal+FEj1RJTwuWA8qI0RydHw4dhjjy0GEKVUg4Pl1biAIkp5Xd4CxqJiOrkxkqSzLU9pF+WwrzRB9UKMB7VXNVJCeWZ4SBlTZyNNjqHBGDvxxBPL/rPhuoiaUaylh7kGs1GVfAagSKBGDfbvVf5FZGo9Uz/4PtdChK6mwy0PUSnpibMZS9LzrOzP8HQvamTO90jHkyLXe8xeq+mEDAsplhp6+A7XTndH40KDDFHNGrmaLyKdNsbibEaLa2n8znVPBsE9k9rHkGNoMrLauCbGrQid/USxGJbbb799c9xxx5WuhZwTnBWD1tiFEMJCEgMrhBBGSK+i3Is0PZEnhodaJI0Caj3MbKhHkppFueTFV+tCsaRkqpnpVXRni2ipAYJ0tN50rjbqYRyfZgazpVz1nlutb2IwMf68zyip3yHdTEqZc/B5DDLd8ESw1M94fzYo1Op6nC/leS5DzOeC4ciIc400mWAY1GNl5DFInFe/UPZdM8biIKlnmpHopjcbDEZGEGNLLRFjSZqk7o+MhXY0z3VxnWpdFZyTCKCIjWtuY3QZBwyVUSFq5x66BhpgiGRVjDUdHOe6H/3AwKww9nWGZJCrR9M0pT3G6hgRwRO5VcMnJdV1NEZ1OdTtUKpsIlghhEkiBlYIIYwIxg2ln5LI804h5Z33u9cZAOpyNAxgFIjo6J5WDRL7UUD9TzsSQsllJNR0KoqpqJdGBr11NZRfTR98hn2l2En106xBu2x4vX5+PUaIBIkQvO997ysGhtomUTIRC8dPAfZZFF9Q7LVKF12wL4OE0VDxPSIhUgirYi2Kw7CkyDM2ZsPnUrwZcGqhKNGOgSEnvY5R4rhFmUTwRNo05mCQqXlSp8NAcX11t5Pu5/P6wTEz6hhWOhIOEhli8GoVb+0o19ExOm+vn3baaeX4pfq5d+6/Y3bPpUsyOjVvOOKII0qtmtelwUEtGGOKwcWYcI1dP+lz7otxV++h+1rHnHOp+N3r9b029XXH6/PV4bmm1hLzO4Nel0YGjcirmj5RRt/lf3q/q/7tZ/3dPTVuGUKiYMaFLo0MRU1RjFlpsO6n/3FejCk861nPKmPFNa3OCcdbDS3XwpgKIYRJIetghRDCPKE488AzPkSBKLxeY6QwDKSBWReDkcTg2WabbcrCwW2lkKfe4qyMLwqoKA5FXHRLWhijQtoYZZ0RRUHVPKG2ttYOvaYdMnZEbHy3VDJpblLJKKOUV40FzjzzzKLs+lsdGCOJQeM9houmFBaw1QabEce4othqDS4tsDYkYJR53fGr16LsVjSraJ+TJg2UaucirY3BN1fjBVEeUYuaKkf5Vn+k/oxB6rNFhSjvzstx+h/nzZC19pX/855mF7WRyPKQpmadJUYEo8f17AdGkJooxo/jdI6+X/0Z48r1UyvE4KsRJ40wGB2uDSPa//mpcyKjsnYvdG2NLYavBX81dhDVZPyKEIrsuCYMHvdNJM3frofNtWKsSOU0fhhPjHP3sN7rGj1yvbTC11lQy3/n5VzqGmuaXYguug/GNCOMEWkMuZeuv/HqWBlfxoN0SD+dm2MzHhhH1vkyvq3Pxnng/B2P8Sul05i27pcx53wYysaT7/Yceb6ck/b1jNXaJTGEEMYF5xDZuMJ/BODVcz5CCCEMBGNKZzOGht/bUAwpsiIijJFqzPQq7pRoBo3oEO+8/aVqSX1joDHaasMHn+dzKLr2sz+llhFFGfVTipfXfSdFnoLrWCi9FFTGlYmAokvZFn2i7DLenAtEcDR5sK/XRV2ka4kUVSjX6rYYatLX2u+5Fgw2yjPDxfc7b+fEuFye8ULhdx6+27kzFEX8GAkUeedPefe5cCyOlbHgOync9qeA9xuJcg+dDwOQoVM/e3mILjHsHA/DhJFQozGidq4jg7EapnB+jlMtVY06MoisoeW+VXyGboiMHPedwSSa4/65xppfMK7UzTE6fabzFfVx730uB4Bj9LvIl2NhRBkLjtW4cGyM+mr4MXBcS9/l2jOsfb/jcU8YTN5zjRy3c3Qc/s8xet09MI6NeefICGVgSnWt0U7Xwf4+07n4fMdujPi+iu8TwXTe7jWDjhFqTDL++r1XIYSwUJif1NzGwAohhCmnbWDp2iey0RWU5uc+97mlBksUadphaDBaGCH9Rq8WGga21MHDDz+8GCoMEPecYeIno8ZivFIKRTVDCCGMh2pgpQYrhBBC31DuRUJMIqIXUrZEPUQRFgOiIqI1k2JcieiIqIn6iI75KUol2ih6I0Ikiuk1EakQQgjjJwZWCCEsAhg+IhpSp/xcCHyuFC+NOl784heXqIpaG+thTYpBstiQMqoOShRLt8HaPl3kUGqhhhzWhZJSuFiM3BBCmHaSIhhCCFMMw0qUg/KtAYIUMvU66mhENkZZl8LA0sRDowONGTSO0Nhi6623Lil1YfRIV5T++drXvrZ0VFTrJGol0ubeqy+TFqgbX79rdoUQQlgYUoMVQgiLANENNVcK/yuUbwsYr7nmmldrqjAKfI+oiQiKLnu6zoWFR62VLnq69knR1NTB/RW1cr9DCCGMnxhYIYQQQgghhDAi0uQihBBCCCGEEEZMDKwQQgghhBBCGBExsEIIIYQQQghhRMTACiGEEEIIIYQREQMrhBBCCCGEEEZEDKwQQgghhBBCGBExsEIIIYQQQghhRMTACiGEEEIIIYQREQMrhBBCCCGEEEZEDKwQQgghhBBCGBExsEIIIYQQQghhRMTACiGEEEIIIYQREQMrhBBCCCGEEEZEDKwQQgghhBBCGBExsEIIIYQQQghhBPzqV7+KgRVCCCGEEEIIo+CXv/xlDKwQQgghhBBCGAWrrLJKDKwQQgghhBBCGAUrrrhiDKwQQgghhBBCGBUxsEIIIYQQQghhRMTACiGEEEIIIYQREQMrhBBCCCGEEEZEDKwQQgghhBBCGBExsEIIIYQQQghhRMTACiGEEEIIIYQREQMrhBBCCCGEEEZEDKwQQgghhBBCGBExsEIIIYQQQghhRMTACiGEEEIIIYQREQMrhBBCCCGEEEZEDKwQQgghhBBCGBExsEIIIYQQQghhRMTACiGEEEIIIYQREQMrhBBCCCGEEEZEDKwQQgghhBBCGBExsEIIIYQQQghhRMTACiGEEEIIIYQREQMrhBBCCCGEEEZEDKwQQgghhBBCGBExsEIIIYQQQghhRMTACiGEEEIIIYQREQMrhBBCCCGEEEZEDKwQQgghhBBCGBExsEIIIYQQQghhRMTACiGEEEIIIYQREQMrhBBCCCGEEEZEDKwQQgghhBBCGBExsEIIIYQQQghhRMTACiGEEEIIIYQREQMrhBBCCCGEEEbECv/4xz/+PfN7CCFMHb///e+b97///c3nPve55u9//3tz4xvfuLn+9a/f3PCGN2zuete7Nve6172aW9/61s2KK67Y/Pvf/27+9Kc/NV/84hebL3/5y83//M//NPe9732bX//6183DH/7w5nrXu175jB//+MfN+eefX15bffXVmxVWWGHm20IIIczFD3/4w+a9731v89WvfrW59rWvfZU8vulNb1pk8T3ucY/mJje5SZGp/9E/y/6f/OQniwy+y13uUva73e1u16y00krNr371q+atb31r86EPfai89pSnPKV54AMfWGR5CJPKb3/72+bpT396IlghhOnGBL7RRhs13/zmN5v3vOc9ZQJ/xCMe0dz85jdv3vzmNze77bZbMcD+9a9/NX/4wx+a1772tc25555b9rvlLW/ZHHfccc1RRx3V/O1vfyuf94tf/KI577zzmlNOOaVM8CGEEPrjjne8Y7PWWms1Z599dvOVr3ylWXPNNZuHPOQhxXF12GGHNS984Qubr3/960Uef/rTn25e/vKXF2Pr/ve/f/O1r32t2XPPPZsf/OAHxRF2zjnnND/96U+LPP/ud79b3mO4hTANxMAKIUw9Ik88nDe72c2aBz3oQWV74hOf2BxwwAHN7W9/++YlL3lJc9lll5WJ+4Mf/GCzxRZbFCXgMY95TLPPPvs0d7vb3WY+qSn7e9/nhRBCGAxRKFEqMnSNNdYoRhaP/ste9rLm29/+drPvvvs2v/zlL5sPfOADJdNgs802ax760Ic2u+66a7PtttuWz2BgrbrqqsUge/azn11+/vOf/2w+8pGPlPdDmHRiYIUQFgW9aXz+rsbSz3/+8+b0008vr/3xj39sXvnKVzY/+tGPyn53uMMdms0337y5znWuU/6G1JakoYQQwnD0yuNrXetaJR17/fXXbz72sY8VQ4mcfde73tVccsklZZ/rXve6zWMf+9gik2UXMMw4z3zW//t//6+57W1vWwyyEKaBGFghhEWLiVle/y1ucYvm8ssvLz+32mqr5ktf+lKz6aabNieffHKpt+I9VSfQpldBCCGEMDycWPe+972LsaUOVgaBOtlnPvOZze6779589rOfLVGvVVZZpezDyUUOq50V8ZL2LV0whGkgBlYIYVHDK2pil3Ji0t5pp51KHZY0QjUBu+yyS3PxxReXGoEQQggLB0cWOawRgIiWbILnPe95zWc+85lmxx13bI444ohSB9uGbP785z9fol93utOdZl4NYbKJgRVCWNRobCEt8Fa3ulXpGsjYWm+99ZpDDz20Oeigg8pErzbABB5CCGHh0DhI90ApfxpdyDAQvTr22GOLAXXSSScVB1ibb3zjG82f//znZoMNNkjqdpgaYmCFEBYtJvAvfOELxYjaeOONy+Qu/1+xNINLfdYrXvGK8rqOViGEEEaPND+OLnL2Bje4QbPuuuuWOiyNhzi9HvCAB5TmF5bG0A22/o/3zzrrrOYJT3hCWW7DayFMAzGwQgiLAl7RNoyoSy+9tLQLfvSjH126CmrF/s53vrP5zne+U4wvm8ldQbW8/0p9L4QQwmAwgsjfNn/5y1+ad7/73aXOSs2VWiyRKWtciU5BvZVlN7xH/lqr8HWve12zzjrrlP+3FIcusCFMA1loOIQw1Zh4FUxL89OwYrvttiuF0r/73e/K2ik6T22zzTYlJeVb3/pWyflnUFmvpXpI/b799tuXyf03v/lNMcJEtkS4nva0p5WuViGEEJaNbABG0HOf+9zSwGLLLbcsESvrWZHPal+1Zdcd0FqDnGD3vOc9S3dAmQb+34LCamdFtK644ormNre5Tfnsv/71r83d73735uijjy5/hzCJ1IWGY2CFEKYank4NLAi1GpGSp8+D6vcb3ehGZbLmHVUsLU1FtKt6WBVcWz/LvvDe73//+7IfJcB6Lv4/hBDCsiE/1b1ycJGt5CrZSzaTp+RxraMitxlN7QZDDC2b13UO7I2EcYLpJhjCpBIDK4QQQgghhBBGRDWwUoMVQgghhBBCCCMiEawQwlQjr/9Nb3pTSScJ40GKzwtf+MLUqoWwhCEH3va2t5VOrdIDQ/dI0dxkk02ajTbaaOaV0DVJEQwhLAq0YX/LW97SbL311qmVGhMWB9UZbM0115x5JYSw1FBTddRRR5WOrBYRDt2j9b0a4r322mvmldA1MbBCCIsCBpZ1U/73f/+3LCQcumefffYpbfAf+tCHzrwSQlhqMLBe//rXl7Ws7n//+8+8Grrk/e9/f2lv/7znPW/mldA1E2FgsbKta2BtGugso53nne50p9JpRueZilbM3//+90t3Gh2/tFXu9VbrWnP55ZeXz7vf/e438Z1mhHK1kf7JT35SOuw432tf+9rNTW960+IB6lUWtZSWDmXtCAKsdj1ro/MZD4ZWqBZSnRacv2uhZTZ0EbrPfe5Tug5Vfv3rXzdf+tKXymveM0akJLge1jWyCKHFCnUf+vrXv16uBVxXY0XrbilMrvEocU9++MMfXq0rnXtn/N3+9re/xveZhIxla384Jvsa973323nYRxe7xZZu4X6713U9qopzXX311Wf+6o8YWONnPgaWyYjM8lw88IEPbO52t7vNvBOWGr/4xS+a733ve1d1lSO7zXPmRLKU7G/rBWSu/c39t7jFLcocQGbONvdrE26f2ebNpY5n7ytf+UrRySrmnDXWWONqc/DyiIE1fuZjYNFJLXnyta99rTxvD37wg4ueFQajGlgr/mdi3G/mtbFAGFqXhqFFqf74xz/evP3tby/rHrjBjAoP/hve8IayPg2l88Mf/nBZnM4aCxQyMMBOPPHEInwpWSeddFJ5wH3mJGMieetb39occ8wxZW0ea0A49ve+973NaqutdtVE4bytLXHYYYc1n/jEJ5rHPe5x1zAwKaqnn356+axHPvKRZf2facHE+vKXv7wsKnjxxReXAeocCHfn9clPfrKcl7WMrIPhvjPIP/rRjzbvete7imF1ySWXND/72c/Kmhqu10EHHVQWNWSQf/WrX22OP/74YqStuuqqI51kTfLG5HHHHVfGK4OK4WD1efeMM4Cxa2wypk899dQy2ZuMLrroonLcjslxtmE4fOADHyjnu9gMBxO5+3nIIYc0559/fnPBBReUnxQl+eOD4Fp++9vfLk6FURvPoT9M6hYH9XwOApl++OGHl0n9wgsvLOuPrbXWWmnDvIRhMJkLyErzN5lNRpKVDC0OWJAhai+NHTKYTmBdJW2873GPe5R9KvZ9zWteUxxsjLBwdT73uc+VdavoD2SxzZzGaTKIgk2f+cxnPlPuEedh6B66x89//vPmYQ972Mwr/UHPonvRRz//+c83p512WtFZkvY9OPRPtYhjdYtTGimPDAWCj9Gwxx57FKPr1a9+dTGaKE6MCp6UZzzjGeWBf85znlOU65133rlEAsCD7cF+1KMe1ay99trlfw0QFvmkwkNECDEkPRCKEnfZZZfm//7v/8qK5wyCGoVxrSgerhcllCLfC4WccUpxb0cFJh3HetlllxXv9dlnn102i8YyopynqNXBBx/cbL755s2mm25alDhjxj1mePN4M7Ao5oSDyIjrZGJgtDzhCU8o+cgbbLBBc+yxx5ZxMkpqRFV0df311y/HyXvBwKNAWiyRR8i5vOMd7yjj28K3FrF1vykR1WPbxhhgdPzoRz+aeWXxwJHAm0xx4lzhcXvWs56VFLMlhowDi4pyrLzqVa8q0WBjPixNRPI5yGShkOHm+6222qp5wQteUOTFnnvuWaKdZCn5+OlPf7rIDYvZ0h04FdtRmIpxRkcgf3vXVQpNWYCdgcWZTR5zdpDFcVgtHTSJ4njmiDjhhBOaRz/60aW2mZ4VhmMi8o7a6U8UZ5EbKVcMBV5u3sy2FS2qscMOOxTFXLSHAnreeec1d7nLXYqyy/hivYv08IJNOr3pXyYYRhdDgdJeIexmi8iZbFwDnXue/OQnT51QZIS8733vK/fK7yZJ0TzXhSLugV9nnXWu4UkRHWKAS6e070orrVQMahMEeq+DtEIeGR7SUeP726krMBZf/OIXXxWl5NVwTwmyqgSI1G644YbXuK/2c5yUAfd1scHLvO222zYrr7xy+VsEk3LNkRKWDo94xCPKcwnOJs6S3uhDWFqQo71zImcZB6usFQ5XjlXzhfnRT7oAJ+ROO+10jcgJJyXno3lVxgMPf7g6D3nIQ5rNNtusKNiupYwPsnnSM4DC6BDZZVQZA3Rsz9qos32WGhNhYLVhLIjQUMAoz1K8KNC9D7rB4OYTnFIEKKQ8XFWpZqBIMxMZmiacv2gOhfNe97pXuQ5tepV4UMIZkxQTkZRpwwRo4zUTldSFSNoXpMgR9te//vVL+scZZ5xR0gAhbdBEXK8RoWC/GvVrY9IwTowjgqMrGIscBsYx49Hvwu/SYh2/e6fmiEFZcawiO4xKBof0q7ahvRhwvoxLGPOMSYI8aSVLE8+BKIPaDRkIIfRiTicPORPV2JKlHHAyBaSWclpJTWvX/lTZQi/glLUPuTvJmS3jgGOjKtIcguZcBuliS00P/UH/pK/ILhCwCMMxEQYWISjPmleKoPzUpz5VUsF4+qVT1ahUG38TpgaBaJf95GdXKNsmbVGwaYBQU0t04IEHlpbHvPs77rhjMRiWh4iNB8LkM23RK1CqRXre/OY3lweaEaV+SWhayiPufOc7F4HPyBLVZDwzql2fOgkwPv3uvsO4MqZEj6RdyilX+Nll8a37wRngeG3SFJ2jqJR1g9Qgeb1dT8cjK1VDuqFIrMgOpWCxwqCUQilNOB7TpYfI7mtf+9qS/iU9ULObEHox55sHGEecbOY78wZ5KYXc71dcccXV6vfIFk2Q6AqiNOoEOSOzZt7ccHAzSqVozubQDYubSy+9tJQuKKegp3iGwnBMTARL1EFtDENJgStvE6XTA14V5l7q+5RYkYy2ceF/6nvTgOPn1efFlYcun5zHbnkCjmGqfkGBPyONsm4C8rN2Z5wLnkAGzLg3k50mECKVlKynPvWppdmJiZOBJMKz7rrrFs+2FBC59IxKRrTrVtNJGFSEQf3btZNawuiSe+8aSYPox2gdJe4H5cAm2rb99tuX1FZ1YxwKzrmmNTp+NQaMScdPMWCgMTpni8wtBijYPKbWTZlGB0GYH55PE7q6S/JMje20OMZCt9RaVbLU/G9e4HRTzyrzg2OyXWfFScfAIkONKY2TOHPImzA79DA6iGyY5ekfYfGhc6B6WBk0solk34ThmAgDy0OscYFmBBYLpVxStHirKMiiM1WwViiilG9pRhRzDRFEsyq8MARw7TI46ZgwGBLPfvazS2TmyCOP7EuhlvZmYtEURJHq0UcfXQwTRpeJZFnoHOT7RHV4/7reHK/vd/xtGFKikQwm10XqQjWapIUykEyc0hr8rEWYxoRJtJ0zzJupecree+9djDnGWZfpIYwH41R0hgHNqHW80hR1T3vJS15SjGGNPSCllUJAQaAoiOaa6Bje0mFdk8WGCLRrEI/p0oWRpVEBQ0v6V1uWhwA6gLFB/qsPIkvJV3J19913L45ZslJhPp0BZKbf/SRPOfM45tRiLUZZOl/MjTJp6CJdOyLD5EA/ef7zn1/0cs9cGI6JiWDNhqYFPFTSpeRatyFcGQiUcSlf8rGlllRlm5JqcIgCTQuUS40cdEWSIqdVaq9h2YvzVvTL62vTccmEo/sSA3V5EKIiKlqMd70xpmcroHQdKNvOQ5THBFnvq/29zsPGw8IAq/ValDJRu971v+zztKc9rXgvdR3sMgWJAUxAbbzxxiV6JTJXi6ydi/HrHjIwGIg8q85dQfd2221X0gmlNzI4TXwivIsNdXZp69sdZKmW12eeeWbZXH8OKbWB5I7X1P11HUXiVONcS6po6IUxpJss+Ulmqk/mfDLPgyyVAmjeIyPNm+YMnQbNb7IiyFOZMbrNSrmWeh2uDueujq5qIePsWnjIWPN6lbucAKL4ujpKl/YaWV3rzrtE8IIOTh6H4ZgIA4sXimJMwWxDaBKIoliiDxXKqAiNpg5PetKTiuIqRYDANBC9z0MlctGuy5pUnL8JwU9RN0aSaJ5zFK6v18Ukw8PUTpnU2MPEUjcKCqPJz37OnVLjOhKoXW8iUIwfRoVUORMjgSNFTkv6mk6nMFluvfNnHDk3HSNFs7R29/+uC4NbUwl59hABdE1dLwaZhWhdy1e84hUjN1R6x6/vpKQecMABRSFQU+hcGVdSWii5zke0kWFo0qcQUCJ4j4z9mv7IK6vbGoVC45fF5Hl1ziYY4yHpgd1ALnBCqPVUn8iJQcaaSDVf0dFThICnf6HxXIsuwDMp519EfVoyD8LoIct7HYuyMWR1UPi0bGeAi0bJAjCGwEmgzlbdKuWQEWUOML9VWWpMmzPMC5TXXp1jqcOA5Zjtxzkb5g9djYPV+mOczve73/2uks8MLGu7ChRwKi80nhXLHmioRccQ2PC8DbqeVvgvY11oWDqUQVQVZEqlG9pWtCjZamd4Vw1CKV7+x2s8+xQDnhaRKgLUBG1f7z/+8Y8vSu2kQil3vBRMgt41qA8TpYdC7X2vV48db7MHwARj314liPfD9VxvvfWuEcnphffP9bR2GGOla9wnhrB7p8aIQeIBVyclRcF9dS2MAS3ZRbIYnLyRlEHvM7RcFxOw96SKuDbnnnvuVcZpNSJ9FsWNV5Mxxjh1DeeL9D0LQ7svrqnv9bdCYREokTrH5HgZU+4nJdYmPZJzQN6zLoquh/1Eseq9dT9NfAQgw6wuR7AYcI2cs3vKCB6GLDQ8GOSkMchbStl87GMfW4wbclWqnsYrHBXGYb8Ms9AwJVpqrGYvnmHPpOPhYBrku8PigQOKM1WGCnlf5wgyVRaALrPVccigItPNDeYxxhXHnEiVrAFzCgeOsWwz7jnwfB5nrNRt8oIxwbG51PE8nnPOOeU6m3+GwWe4V8lI6A9yzrg0Js33ltlh3HAy04/VQpnv7dMvwy407P+ULJx88slF5xCsEOBYnh4ZrgkHjoWGV/jPRDsV7nCKMk/nG9/4xhLG1gRCilgb+zAwDFrKc1g2FCzKzUtf+tISCewaq/DLm7fOFc8NpY+x1asku68MCwaG99uTIWFk0vQ+ryUFMUwP1WgUpRtkEmlDLlCwRCgHuf814l0N7aWk1DNspc2KHKqH5JAQKfbaMOl5++yzT0nPGnShaAqZGjzPPiW4OsxCCN0i64JMpFAPG702F7/+9a8vcmWQbr0cPDUSyaAY1tk2jbhmGl2ZC48//vjiRJemufnmm1+1TuQgcHb5f5kAg0CXoj8zzjii6VOTHKCYZGTRPf3pTx+vgWVSpTwPgpQqA4hSxUK3SOtSehhHibQ8HotJMLDU2oXphGAep1IsrZJM4N3ux8AicxgUoiYit9YcM/5FTpcK1cBiEEnVpeDwng7rrdQBUEp272LgXTLfccjATwR0fLh/lPxBdYIwOZAjnOBS2mXh9IO0f+nKZIduugyO/ffff8noddXAkgEjm0BGjBrsQSNXFXOhOVGG17gYhU4go21anW1jN7CE/g2iWvA/DKxrGy+oG7rUcN4E2rDwUokciAY+85nPnHm1O3i61HzwYNcmFoNCoU7UavwYh8bjuJBaxlDqJ/oiYvaYxzympD/Y9tprr5JmeNpppxWhvhSoBhZvpciV51AEaliPJW+r6z8uHLd6hmGjoGBcakssRSp0j/WpdJWV7huGZ756wXwhg8lSzu9+sAaeJg9S5KUJ00dOPfXUsmzHUqAaWEoX1BWqMRR9GjZtVY23/x/XGGAU0S05q+ZjIHH4GRvTaGSN3cDitRC5EJEKw8HbJ9dzWNQDUSwpmBY17poTTjihNJyQ9jdsMxIK8Xwf5DA/ODdM6iLS40Athjo9a4v14/X03Kj1o4yb3Ahx9ZDaOy+V1sTVwBLBc98sLkkOqAccJopjMlE3017ktUvcSwrJsAaW1BhOPynT4/T8LmXUr0qRMo7C8MxXL5gPvptOZ+FnzZ36wf1WMyc9WGOSY445phho6rCXAtXA4uxS+6YWlmyWkTGMPFXXSrceV/c/uljVy4ZFyr+6ebXs0+hAn4gUQakASQcYHxdffHGpvxh3iiCvsaYcIQyDVvjSIvqtwWJMmYTUckqRY1iJoi5FA0uthGUhDjzwwGJ0mug1mRg0kqcGS4rlOFME54N0UcZlDKzxEp1guhE14TglV/pNEdStTgMzBhVHnSY70gw1LVoKVANLDZZOmbpHazayzTbblGjeoJEsc6HmWf53WpG2ri562g2ssXYR1CXIBaQgyTvlxRBREc3gzZD2wSNpM/h4WdVe+V06hwtf37fxpOsmJ/+UJ6D93iRuPMc67ngghMZdB91bpDDpwCPM2t4fzk93Ek0hqsfWxmOlE42OSq6Rz+DB6P2M9ibfeRK6CGpRrpjTiuE6Kjp+HZ50lGwfvwJcirE1IqQ2GiMEsnNWU8Nz5r5LefI5vGE+y3V1riZu44by2L4O893cEx2sjDvFpf6mwLonuly175NNxIVCRwga4/bj7XE9dAv0LNTPofi7BjxZ7c9YTBs828a1a9Nuq9zPplHFIF0EXXcpFJYAMPZdc58xjGExrZgAXG/dvnRbVZBuzEnb9WzpWjpIuiAZdp/73Kd0ZJvtHi1ro2DULqKiGL57WXJrITZedAa2tfIGbdQRRofMFvKczDYezYeebXKBXsAB0tYLREzITXKeHBXJNveZAz70oQ+V130OJd4coM6FTO56fE3TRjaYZ83HOoMOcq3cD/9HDvTTRdCz/+pXv7rofWQy55dUQc6apbL+Eh2GvuInJw/D1DjlgKYj6jA8SDRI2Q3dWh3cbPdoWRvoZAw8czIdm6Ez274LuRkTGm1wAs4nEjYuyCLz6/AJ6yPg1re+dYlcmNgoqIQjg0NtljBpDXXLTbWqtIHjomtvLVebklrTkuyrK56IjPenAYq32hEGgyJx52Ly0JqT4icnvXrz1CgRPMLGjIl63mBYUsql26mlEBEyQRmo0wKDynE7d14c48G5Ozfnbr0eKUwUQW3PTZLeIwgIhF122aWMDw+mNLENNtigKG3nnXdemZilANmHV4fwGSWMOsJRWN5EYVybOPy95ZZbltoU49jxmuh56JwvZcHCx1rLMx6NBa9b+8JnOFfKAo/6oYceWpSMxYTr4fxe9KIXlZQQNUAbbbTRzLsLhxQG94OMkfvPuUHBJmekzS52yA7PgzHq+pvMTaLGpXRdMpQH2VheaChz0pM9o55NE/q2225bFOSw9FDYT55KE+Mg41gizz2rlrx485vfXOYDsoPMJDt0XeMY0d5d/Zy5g+OAo+boo48uRhYHotfMnbvuumvRHcLVMYfJapHNYn7lgR+mo+iguJeUeffGfSaDOd45LBc7dBzzOjlYf5KF9FsGklTLfffdtzge6LgLiWOhZ2nT7hkxH9MnPYdhOMaugdd2kAQro8Ikq7hRkSMliDdL+JjRxePMIOPpUEAptc3NN/AYJl7TjW4Qz+u4oVDwGDO2PFAK+yyeKNRO6axKNS+SDjOzKaAUJl55irqIFG+ItJ9+0p2qskXRGsfmoSbYeSF1ISNYbRboZXB730rmJk/322LKtd7KBGuxSK8RShZnZpQyYowrSqNNO38Cw/Xh1Rz15MrDwiByva3DYgyKhlASjFc/rWthInFvRNG8b7xSZuWqM4Z9jmfBpOYZsKCy8VCNagaAz1gsiBrpFkWRl2JGAeqilk6EREqc6+y5I3PcCxFT42ixw6CSLaALqygwpxZZS+aQL66FyIGxutD4nqoAG/+8tZxF82l+FKYbkQ/PoegJWWpMUjI51jifqm5grjN3keuPfvSjS3OAtsebLDUPaP/P2DJPcNIx2nzGQius04Q5mCOQk1ZnYQvjdxE5YDxzsJj7RSrdR/OdMWDB/cWOccyQNPfJ4qG/yNDyOoerMU9e03+GbQTWLxxuxgDdw9wogujZGWfzomlnIkIcbaWKcSS8THDaCEIPG6WowlvFU0UBp3jaD5RUClMXStoo6T3euh4M44rgq7g2DK1eeN8ZGjXNhtDqt5bEQ+t/TTxdb7xVzk/nnAsuuKAch/vJqHL+ros6GV5LSp9Jsg1PJSWdgWpf48QY8D/ojeDVlIWF8I77rt776D7Io6YsOD8KLGHJABSpgvcYWMYyfEb7c3wuIxEMysViYNVUENEjhvOw7cGHgYzgpaVMiDCSJSKEIoa993AxYpFqBr5or/bIHBDkBYXmoIMOKmmC3uPQWmhM5NWZ5LlkbHG21Wc1LE16n0PznlRyaajmOWsmmbvIetEPjkIGAUXd+EGvLIVxzvCSTm6eCVfiOkpJY1hJk+0Sup1IDWej7xaVnM/C89OE8Ui3UYsuc0e6NqcA+SdzhSzmoN1tt90WPJpIv6SHiGLRUehWGm+sscYaM3uEQZm4HDJCz8MuIsDLKm+awOw1GCimclVrnUpl2hUk589zzGgibPrpIkNZ5Y12Hfbee+9SMCk6tDwIMMo7I0ftQ9cbY8H3u7e8Nf4WueLBcu9BCXdexoEUEaFzv4PnnbJcBQ/D20Q8m6eHt9K6XxaV7bI7EWWWR4inniHJI2t8a8hQ010o9sb7bPBm8V45T7Uhi8UAILidF8/dscceWyZ2Sj1lOywdKFeUB0qElCSRXikqXRrcYTowF4pCkaPmD44pcpGzTioThZBiai6ZC1ESBplmLF1EaKYFdahKFTirOZ08iyIriyljIiwbuhO9RJoix7DsEgYfAzAMx0QYWB5iaULqhtRj8dQLG1M+eaYo4L3RCIomZVlYczEoZYwk9UJSIbWq5V3nxelnEpCzroaLwiqV4mMf+1ipTWpHv2aDsi8KNO5NYac0D4W1lCvK9ymnnFIieCJyolk8k66JSZSX3RhhRBIKtcuMMcHIqp5J44qn87jjjitCgqGmxqvL1APjtnrpjVXeoP32269E3dRo7bTTTuV+te8VBYI3y36Uz5ryKWVmsRhY7qN7Q5HWuU0KJw+qiHVYOpBvxrZUGOkxxrdnerGM8zA66pxPrpsbZDSo22V0yYbYYYcdyhzY1gfsa45RX6iO26bOUDQsY+y/cFaaq+gE6oI9l+RyP47asDjwPHAGc1bQvZVtiKaF4ZmYFMGqJK+22mrNYYcdVpoUiFIJW7rZs4XzRSXaCvY0Q6Dpgibv1TlTpgc9L4YoA43BonOS6MeyECWTujbura6FRsDLwWZU6MLH0OJRU5/hwRftoIiLYHlfIa5x0TaoGCrVGDeupFuK/HhP+Jth02usLyS+130wTkUMfffDH/7wYlyZ7N139UA89xVKhLogufDeU/SvdauI12KJ8FCQnLsFf6XsqF2zcbCEpQOng3XI1BtyDqmrkRoTxS7MhgYI5Hqtz5XdQl+Q+aC1s1pOjpoqJ+1Lrkg78x5HJL1BnTMnT7gSjZ/oXrI7zKvSg6Wxez7D0sDzxMkl04d+IrtAXaPoZhiOiTCwIJVK63HhfUoxRVSkgbLJEBDhaSOyRdGmdC+GfH3n61xE7kQ8TBjDTACUVukPlHmTy7JQTE6pGfcmzbMNg0rKHAOzpv/Vc9GIQETLJCkfn/FdJ1NjwoTAmKm4DsYVQ0XKg8ieAtKucGzSWUQZTVy8QkLwIjcMYUaWMU6oVZyrTTTOmFAv43po0FHrDacd98j5VdwnRb69z/lCYryE8eJ50MlRKoqIvToMTW3SuSr0QrbLcuFVF70ydjhqzBGaCdUaHo2xZAG0IU/NG+ZG+5pzfFa4EteUMxCuFZ2Kg7u+ttCYz2dzoofuUANrsX7OfY1lOCT0Q5BRFYZjYgys2WBoaRUpGtNrbMgXJmBFPOy3GCDYGJW8bc5NmtwwCqdGCrUTzLLw2RR2niueva43Hkff35vKyCgxgTJCTJgMbOcEAp9BwoO5/vrrFyOs1uCZVAnq3vHAePU5IkGiQL0G3ULCKBJto0CKMBrL6gDguBgVq6yyytWMwtlwr5xr2yiZZqTpuE+uTcUE225msxD4DgvqqueTnrm8KO9ixPOk5kmqrU1apmdHKqpic69J1aW8LjRSw90Tyq9nQCdQDpYuvjtMD+Q+77pnl05g7iDHyVOQpeSJhi0yQPw9F+aIanCFK+HYNhdXZ6XrXTOIFhJyRyt93UM1PFpqkHMaWVRZ7FrI6LGWmFQ9r5HVXXRV5awmjzmCPT+eMc7dUS9rs5QY60LDbqj+/hbk8iBTrkSy2sKRwSEtQPTBBMz7r2GA/9HWXUFmVToNTKlWjDENMGpK1qRC0DtW0YtaeKvpA4WbcGMMUD4YFK6Lwa9lpsidicQ+zk/ONK8dQ0VzCAoURWV5BpbIivx0iqYHieeiy41yy1Pt/Bgijp+x5P5KERW1kQIiP1xkzoTo/tbW6wQBASWVwb6uo3Qz/+saSDcTrapNJBgzuuPI15cqaHws7xr1g4nJ5K/9u+9wzzSycK+0VqfMMwYVZLtP1u1iLJlceFEdK+NPRMV1oDgYAzxKjDEefkJOC2KG8ySP6X6pEVbXgzFtbJtUpKYMusCk/3Wd+llo2L2hPIhk2teClu7LUsJzZNzrXOUeqLXgsCCP1P6RneQqmeP9flAr6ZmuHS/7xbFYx4hs18SgNsAx1sm3riB3stDw+CHzyH9rWpoXjAGp4jV1SfTJfOXZ5YTUBMnv5gHjxj7qdckUc6H3jWNjy1xLRpPLamFlECxPXiwVzKV0LI481911YrB6HgZx6pnDzdf9ZhaRx5zlauc0VlgqiwtX6AHmeusOGq/qrukq5ijd/Fx7c6JIUr+ymDHmmdH4bBDMg/QMOhldnK7tudNMhhO+SxbLQsNjNbAcBOXSg1zTAW1tBdIAlArmIsvPtyYWr9Xmm29eOo+1lSN5+wakwUig2hbaAzMfCBdKtgdHoS7hwkCgfJogXAvnZ5Lxej0/Sjbh5X3n53WTkiiPc1bXYlJZHiYk15ShymvcNSZIxobvZ2x5uEV5PNBVoFDACCBKtAfetdGwoipfDBqGOuOaksiwtI9xJQLmvFw7m/d5ZXymMUaQjUKJM7kbyxRMn01RdT4+mwLPcK7j1GvSHHkKpbwY1wxC4999dFyEm9dNVj7H80HhHXRF90nGuHXvKPqiWK4FxZ4nddBndhADy/V1DyxG7vouRQPLc2X8ScUjS6SDcAiY0LWs5xDwrPQ7oWNYA8skavJm4HiOPMsUZM/pIN8/X2JgTQbkHTlINnCCwZjw3JKTHFWMcWPDGKUbMAr8n5/mDjWufje3+hzKPox5TiyKJ92BrA5X4lp45jwHHNrmYXJhECcLBjWwyF5GNWXU0hlLzcACPZDj2LVg9JsLOYFdQ12T6TGD3INhDSzzLr2TcaeJGHns+TEOutY7FouBtcJ/BM5U9OF00wleUR3eDrVKFmENVz6gJg+TUJ18+oGXkPfaOkSEW9coRuZFFxa3yLJ7PFvHSK8bsCZH77cVcO953YTq3AdVzsN4qWPXmHX/eu99P1g7iaNAi1kOmX6wL6XM+lcihgx6k8sw3z+NMGpNXpRRba7l2VNWOWcG8VhX5OtL3RrWOPH8esbdv3EYvLy2nDPkoSYbISw1zKX1OeSkHEaxZRxIeSNXZI70A+OCU4eDwxwgI4Rx4PelgGtmaR3zkY7HNXOJftuPo7wXzi5BiOc973kzrwyG73ZMVZ8cx5woc4mz7r3vfW/fc/okIRhgqYOxGVj1Jvo5CKIDFCotvXlcRLJ4pAex8BcLrp3rMayFr+bCWgcMrHEYq9XA0tGJ53EY6viJYTU+GLiev3EZJ5dddlmZpJ/5zGcOZGCJ4KoFE0klEKVnEIpLIaJVDSwNYFwz0afttttu6HMnQ9TDisSPC3Kwpp4OSgys8UOWc7aY08JwuIa2cc2H7p/6TSn8MhL6gewme0Rv/C6aTi6dcMIJA0fEp5FqYMngkb1i/GvYMmyElYEl3V435nFBBstOGXYcxsCaJ2qvLDA6TKc88Law+D3QDKyloBT14vx5e+RPD4MUCsKMB1tEsGsIUGtbSZmT2jgM0kc8xMLJYTxIRyAEh4l8jALCTGRTHjsFux8YWNbhErkxkWksQyZpGb7QjTYmgWpgmQilWFqHyoQsHWUYrEFkHAwri0aB7+awGUYxiYE1ftQWmxOMxzAclHXbKGqLh4FxIM2Q41bqfz8wqjh4OVqlB1988cWluy69RIrcYqcaWBq4SJeUzWOJFul5wzgtBR80xqBXjQv6uPUNh81oiIE1TwjTI444otTKhOFQc8XroZZoGPy/PFuCTOFw11QDi4E87IRAOFHshwmlh/nD0UGxdg/G5eTgaKBcn3baaQMZWP5PgxhjT3MRzwEF3WKbi51qYKlbM5l5FqX4MTCGmdAUYquDG6ejQ02qNsMxsKYTDYisv0NBD8NBppnXh41+zBfRM6UcdDtRrH6oKYIaD5FHnOaeRfWhr3rVq2b2WrxUA0vtm27D5iD11jotS10fFLW0OhCO09klm0BWQ79Gdi8xsOaJB1G+LwUtDIdr5zoOm5qlm5KHeNwpgoTBsEptHT/jSk9b6tQxKBIyTGrWKND9SjdCi1D3K4x7DSyfIYJzyCGHlEYHi512DRYZIJLnOdRMxTUYtP6BDNlkk01Kd7ZxQQa4/0kRnE7IEU0S/AzD4dqRyeOaDxlHJ554YlGsB0kRbBtYzoE+IoJDP1jsVAPLfKQGy1zG2aeGjeOrX6dhRYqgMprdd9995pXxMJ/6rcViYI1NK3XhpXYZXDwuNgNMgSXr182R9lM33nHC1/5qPvzdft9WOwc5OR713vcnbTNwnIuwsEiSzXVwDWY7P9eE8HR+/teDx1PlZ91cU59TIzvt93o33zFOxbjiXJyf9ALXwkZQ13Osm3PzXvvc/J9x4b4bP/7H+LFPvab1uvr8+l2j3NyT6jms49jxmyhm+z7HbqzaB56F3vvt/5yXfRy3e+/8F+L457O5B8YgI6V9rwbZfI7nwLVznrPts6ytXptB8Z2urU0dlm6VujkuBYzZurl+Ithq2E455ZTmsMMOK1FJ7/WLMTzMvRvl5vvHLcvC8BhDxlxbJ7DVOZ/cdI/b8sff3qvylhz1Ob37wD7mVrLCZ5kn2vstho0c7tUJBt1cL3MmZnt/WZtjcG0HfQ7d9+pwV7YgM2epdPN0znUzdnXK5PRSRyXNjjNsUKdD1Y/GuTmXpc5Y27RTRK0DJJJhkTlKshafunpJ96jpJlpwa6sshUAaCm+zNALtq6vwVE+hBsO6F9YeIpQpTATupEKxc9y6xigMJVSshaD5BCHDgjdQYRJRlE8B0v7RQ+ghqng4tee84IILymfaX4iYQj4Xk9Km/bGPfWxJc3T/Xve615X20YSKlt3ub/vc3H/XrZ6bseJ1efs8Ya6JlEMeHPU01vmiLPounh2fpf3vMAr5XGhpKm/cEgLum78d18c//vGyRpexbNIz6Zi4eKiM+zqWHatjsg9B6twdq8/weT7DvsaGMW8SW0yYWN0r5yz/vD2u+2GQNu0V/+N6ek7UXhkf0tx0ElzsSjql1djURdT5e/Y9f8YgeWBdKtfH80WG9oN7N0yb9kkhbdonAzqAaCLPvU5oZLdnW32KsgIystbrqr/92Mc+VtbqMT9odkMpNaZra3ayxedZ14lcJUv9JHMpgJbvCFfHdVQDJIpQr2O/DNqmHYzeyy+/vDiObWST9EBNLyZZfxsFxidd4LzzzitjXSdXc7xrRzfQrt24J4vdj37mt2HbtE8Si6VN+1hNTBeQQqXRBWFnEUGpYiZrrbsNPhPfUUcdVRTTtdZaq6yBZAIkMPfdd9/yv4wpSjlD4TnPeU4ZpHJ3GWWTjIGjoN6kQag4L3UQXpOmc+qpp5ZJBJQ+636YHBhQbY8Go4HxyfNMOZXqQlGYlsYPjt9kynCy4LGCe+vx8MZ5z0KEs52b8SG1iREmtUlIXYjdWLGPBiCMeOs46DbpWhozhPkoqZOJiUn3I62ujVMd1Rj8infdN+dCgaUsEH7WddEJ02QvMud9QlVdmmN1Dp4HhoPnQ7jc+Sw2KPRnnnlmUeoH9dQNC2PKM7b66qs397znPZs99tijpLctBa+b58jaU54dzT04KzgcTOyeHzn8unoNk/8fwnwwBjnWOD/MizpT2qSyMp50VyMjyUrGFaeW55bD0U96AYcJKPucdhxwHCdkKR2CvGaUMbbC1WHgmn/MZVX3WGg4cTRlMEfLINDoYpdddin3f7FjvuHYOuCAA4qewEFFL+QkJpstSWRuuvvd7z5Sp3DohrFrEwYTBZlXnqffQKJQXnrppUVAim6J7FBaDUTKAAPkGc94Rol68TpSpBlnhCfPB6vXflVpn2Q8YDWcyjNnoT21DDzKFHGFj/BwaSk9m9JTIwD+n5BifPTrhafYU6p06+l6M/kR4gxkEQQGktxrBpbJkiLo3ES16rm1W/K7/64Rg5qny/8zuC26bFwx0IwtY8F1M1G7njxGo8Tx+B7f6Th9n3vFiHrBC15QDCjeDJ5Vx2ysu886tlXlwPEznkQyTSy8d8a75h0+y/hmkE36eB4U0T6OBNegywnE/SJH1AnUhbsXe+SqUiNTlFZOHWPR2CU3OAU4qrxHKQ2ha4xP8pAcJEvJSbKd0k1GHnjggaWRAkOLQ4ZSbr70PJtXqmLOmaUeiO7AkUK/sInYciDUFO1wJeYWc7J5a9huosNA7pNBDGsOSk7HxR65qpC7jKo111yzXHdRKudOJ+QEI4s5Ws1Rg2Z2hPEzke5aDzohyxPFu22i743G8EIZdML/lHDpKRX/S8jaZ9qsfp45RoIozGzpYLMpga6BqAzDVLSH94/RsjwYIApJ4f+73ggM32+iE7WUbyzaJOpTIzXOzVbPjfFUz01KoOvF6ILzsUkz6MV+lHnjod/UhVFAYJo4HKt7ytCTwqqVquNxPxlZFAmhfddltlQ3f4v22m+x4D6dccYZpfanpv0sJsgxkUspwIq4OU423XTTBdl0n6J4MuC78jyH0CWcApRQKYMyNrSh9lPERRoVPYCxxWlC1ppHGF4ccL3QHRhd4UrIKlk05k+OyMWG+Z8jXsmABhKzydBRbjvssEPzzne+s+hyvjssTVb4x5i6CLbhmWJMKLSmdEoPrAJQsR8F7KlPfeo1jCVpgAaxVB9tLSuiITpiHXrooVNRE2DlcyFiaXAUacaGHM7nPve5xYtR05Z460wmUsV03GFEes2K3RQra1mJ+qmtkGLHS0dgzoVJaBLa5FOupYdRRk2Kopd77713iVhZD4OBZQw4NyFzHknnZh/GpE5w1VAzltR0iYSJcjpHY8e4Ilxdz5133nnkCr101IMOOqi0p2UgVUz60h+cl/vsfojKSmmlMJjM3CuGk3xr6bDWEOG1WswRFeNbF0vXZ7PNNivPMgP6yCOPvMoD3S8ihLzVOgNyrkwCJnPeYEqLaBnFb9DzGgQKkpQnE7q6Ep3wpD52xT777FPSm6e1fomMSRfByUDGiiwUcoEMb3vuOabMlWqEyE2pxbJYpM+LgpszRP7JEvfRs2C9Tc9gmBtzL72BccAgMGdKpx+0uy/np3lOBFzUcRIgG+mJMiXMO3QF42Ih08HJf6Ucxq7ME+O5K+iPsrfohdNKugiOEA+0kD8F2MBQH0EJ9gB4by5Fk7Lq4bFVPOC1ZbOw8zTBGDBZSGNjNLaNq7lgVIjq2JfhwVNOuKmj8IAvC6FoKWjj3kSgpAbw8DMyhcU1+lCo6dykftRzI6zquRkbBFhvtKc9XuxjX59L4TQufGeX1HFsk+6nfep+++1XIg0MKo4A52rs2mchBf+k4J6or5TWuxgNSeckhUkTF8a8yYI3faE2DiqKpai/Z0c6agiLjepkNeebN+gKnFqiWdbBkyLIQcdxYzM3LGZH1aiglCvPmDadqR/cfzqVujty0VghL2eTo6PafAfntwwsxlZYmkyEJucBkDrFAyq0yqtf61h4njwcbSMKFFGeLspLVZhFOHgiCQrpVNOkqJoIKJvOX9oDb1I/Bf/2MZHUTnWs/bXXXrtcr1q/NRe8AzzONqkXXW/1u6XPwThwPzWscO8Yj73nZvHCem6EGI+UDcaE/6kGl8/jqRLNsvFiMeDt1xUEuuicc3BuUh/lV2uCIXVMxE2Ug2FtvDs25zbbMXqty2NfSET0eJ8Zm9tss005f5O8gt5pxzPJg26Mi7iSU6ecckpz7rnnlm5RC7G5lgwrXktOCeNeBE3K6WIZM2Fp47niQCDfORN0w+Rgk+nCyBJF1XFYza45gl7g2ZsrXb6f+XUpIDVd10aRPrKYkUqGSDkWEZ92GDj0CPV4akzNu2edddascnRUm1pqTjVzu+spW8N30k/C0mFiUgSl0BiItS05DEZpYODxbxdeiniJRsi3pqRRwKXJCXVrCFC7zFGy2ykGk4iQuogVo0poVLqUVAipZaJR1WtnQuhNEaTAq11Sq0UgOm8dgKRW6rhEoMyF75NGIaWNUdo1jB3pXbqZiUxVdIvS9tz91UnHebsmzk3kgxLp3Eyc0hhMrs5TFEiapE6SPs/vonQHH3xwUTKNE1FPqXw8WKNkrhRBxrJjFZUzvinB0l/dZxD+FANj1FiXH+5Z0Byjnd7pGjDU3HPpMNPOhz70oZLKC8oQTx9lSJRSOuggTFqKoPMy5sgi9XfSzsgr20JB6RTpVV/oe8gTGQEUUSmnItwLSVIEw6iYLUWQ/GYIkKX+Ng+KVKm9rnXEZKQ5kywhh81vajwtVivluu1wlS3ie/pdhmAxo3MgfaM6Kjn4GCGyRqpO0S+TliLoeMhCOpOIJ32BTLREzUI6nji4NFMxJjm/lL2Ymxiw9N2FJCmC46emCI51HawKi5+3SSeVdvcYgtRA1Xq1dv2Ch0aaGG8VJZyyrJscgerh8T5F3HoMFI5l1SFNAkLXFE5RFpE850lJM+kTUqJ5DEUPq2iPIl/7ulYmDdeGMkWxt6+HizIuR31ZyjghI53SA88oYZh2ublPPDxVEIvyMBgZK66ByZPB7doYG85NzZW1oZybydF9NwEoZGZgMy5FwIwnHiPXR24+49xYUuckiqRmb5QNUFxL90CTDmkW7pX7oLuj75bT7vgZWPZ1vMa3Sd49Fb10/wgTTTAYXhQHY1dk1lhWL0fotJ+RaUX00T21uRfqhxgJau4GPT9jfdB1sBYS9Z/GHSPfBKHZjt+N14XaTEiMb3C+8Jh6DnigPRdaHy8kJvWsgxVGgciUaK/xxEFBTpN9am0pLqLcZKO5w9xAlpKTHLIcc1K0ZMFojsXJYR6lI8gQgM9inNENaoOkpYw5lgyu8ti15bCiW1Wdq1/qXFWXLhk3xojsAV15OfJksdB3ZpOho9yMNzobXYVjl/PJnEcn0WtgIck6WOOHs2Ls62AxkLQIp4ha00LaUG8HLOH/2uhABMBaAbz7lGRRDS09GWCKXgllnlQecAYDI6UqHZOIm0Dhtk4HY0OYXsTDBCEaIh1CFIZHSDSOZ86mY5L1P6pHXEogBd0ERLnyeRT6OqFMOu6f1uyEkCgEI1NxrYnVuSm8refGs1bPzaRKWBobomA2wkw0T7qD102kFCfX1+The7wnd9+1HAUUWIab+yFyQQHYbbfditdK5EoEwaRF4JrQKXOiVcap/aULOkfnqw7N/gQz761mHry2xru010l3FoQrI7PGMNnjfnXtgaNUiIJyrlCeejuRhjCpcD6ZBzUlElUhSzV7EnkgQzXBoRNUWcoZo+kFY4Dsp9TLAvDsUXLNo5x5ZDElmw5BVovoMgLC4sbczOlurJDFXTc7YewwFIxLcridoRUWPytMQopgP/A+qGegHIsEMKQG9a4sZkR+KO6UfNelH6VKxE9KzEtf+tLmSU960syr3aGbnvQNk6bJk8HJa9kbwXDvGRzOTaOKtpAS5hftEQFhbMcAWXoMmyLomeEtp6wxRtopRMNiPIqk8byZWDUx4RxodzldaOoi19J+RbLULVJAF5KkCIYQODKHTRHkRKQDjNIppXyC45JRruFQTZnuCimqsq0so8HY4kDgHF9IkiI4fiaqi2A/eEgMUvm0Lr5QqwiVyE64sgZDCFpKxbR5rKXKMQoJ5NnSw9z7em69HiDKsdRC/xvjKvSLGgyt8kWQGUDSlEdRgOxzfY5xytiSjtRlZy6pqSLftV61OiVCCGES4eji4ODwJYc1KSHDRoGSgrokC6W361pzjl/6CRifi7FLY5ibsUWw5Ebz7koFGBRKjPRCCrVUMQr4QhYsTiq8Pbw+wxpUIj+uo3Q16WhdIxVEsTKhM2zrdNEtRtmgdTthdDAoKPajiAANA3lg/DCU+knB8NzwYjJCpGCKjGvjrxiZET8f1B9IVZJn79kU2ZEP31UeuYL1un4g54MaQIrLQqcLJ4IV5ovUd2nek7A247SiBop8oxONA/OxmlipmcoW+kENMqNKJo3/l14vtV6DjflgTpLVolxEiqDyAkuiWNi/K2rJgswc9eKOZ6EjS4lgjZ8awRqbgWWwUUJY+GE4CNP5eN3lIzNuCCC56V0jlUBDAKmNvbV3/eIcYlyNH/dvnNFkE5iaun5qLjVCUYunla5UOpM6h4+6qfkqJur9TOTqPcg2dYNSGLvC2lsEu+eZgScNVx0iY2shiYEV5osmQZRr6eBheESEREvGBYVYGpxGVMuD/sKw4pzT+RGcvoyS+TYg0UCKw4wzjQNeHZ4GWjWitNAw8HQN5PDSYIvhowmWTrkLSQys8TN2AwsiKKNIy1mqEBoU22ELNwkbNVAEnK6EXVNrsAhA3buGgXLsOkgzDOOBx1SEZlwRLJMJI4Jy1o8w1nlM5Ep+fB13JkMOi/kKc55ba8joXPnFL36xeOPl4HeFLlmiws5PB0GTrdcWmhhYYb6Q41qERycYHvOhbVzzoXvHyaRraj/ZABRRUZ5ar1rnkPnoNRXy17qinE2///3vm1NPPbU01FpoZ1OFfqsuWMMu84pMArWwOlwuJDGwxs9EGFhSewwEig08XDzQLq4Hrv0geHC1Xveg8EDwNvdeeB34fJ6cW0WWXXeMGRSeJguSiuAQis6XYHT8Wsz2Hr8JiHfPOXpoa+SGt0pqUjsK5H91SlpW6t2kNLmwdolOT66FQlBoOqCuqp3+KP3JGlleu9/97lfGiLFjMVX/q1OPiITr4DUefLiurpUCV+Nm1Ola7okIiPsJ49j114yFkOid7ByXsey+ed84lu4q71w6GWUfoinOtbYYHpcBs1A4f4qtPHnPPOV8GK/loE0uRHmsscMIMfbdK1Et11fL5/ngM6UeWp/PEgi6+UnX6wppktr8W8PGM8HAs8DmQhMDK4wC6WVkY42Gt+dEXf/Iw7ZeYN60RAPDzHNnDiBXzJXGP+cP6ueYD80D9Iz25yx1zDmuu27Ofvccq1cadM5x7QdpckGv0wGaUaBrJHlJx+ME01F3Pqix1e5bFEkpiiYXdJ6uMP7MLzohG4/ksg7YuhkvJDGwxk81sMaqsRGWBKJW7ZpWUAa0GNeWnafBg27jidCK1cPvQbGvqEc7vZDiLeVHi2JKuwdr0htgEF6UcKlNe+65Z1HyeL+1pFUTJSe9YqLgieaNkadejVJIt+QFskn3s6kpYbhNC8L5PO/Oz3lIs6qTozEgT9uiwyZURfvV8JJWor2/FDGCRbSAMcUg4RFzrYwTCpS26MZFNbxGBaPAvdKAxZpmzsW99Ddlzfh1DjDG1cXYj2EmbcF5GdcUBK+7DgSkz6lLENhGVfg7CZhYTzrppHKuap9En4xZE/RCYxKXqsGj6bpqlW+c1MYQ88E48EyD0td1gwljqn6/a7nQtVchjBKylDKqVsY6MgwuY5qTgCyleFc4aMl4abgcXKeddlrp3kmR5qBjQJHB9AXy1Xx4yimnlM+hfIf/8rWvfa04Schi156zil5R562FgnNLKiHnqXnfMjza7I9CqTZuaoMLc37XDSZEsDhJjUO6qHOqektYGozVwOJRYqkqTGet8lh4uAxKiicFm8GhTkeEQ80WLyNjhBJhDSTeK4oEAcrooqTx3jLU5PJOMgwsSp0H32ShvbJzonBTtHmCtJGGh1PaEa8QYWESgp8Eofb1lHpRPBON/fpRGP2/rRqzXW/wkxHC62XiszGoRagcm+ic/GzrXxHG1gkzdlwHjTJ0ILSJSuhCJApmXIl0ugZeN650oaw1KaPEZO4eGq/ukTHKe8F4cI+NSxE158KD5qdIx+abb14me04GhiPvqlxt/+NYbVIKTHyiLn6aNPz/tOPZNKYZORwHJnSKkOd9oSFvyBR1WLoIujc8i679fBDBpMSRTe6RDn4i0V3hO8nBamB5PoytEKYFCrdGAOCcIAMtmC0KbAFXawLyapszPLvkIhmq5pFj1jzAeUO2cKR4JvwfmWwfn6PJAT2B3Klz0FLHdSSDrRFmjqJ3cFa2s2IWAsaHdEJOdg4pxrLsHK/Nl7aziSzs2tnEaHR+1cBiXKXT8dJiInKO2mFoirM0HZ5+DznDgaLcXkeG8FQoaODySFFsGGdel/5FuSZcKejTQPv8YYKh7FGWCIaKc+t9QCn1UnMYJzX1Tft6qXDVe7Ms/L9UJtGErjeeRpE4nh7hc95/0SZC0T13XURxagqh9L82In+iOiZQ+0ohqSkj6G1YYPI1ZhYisuf7fXYb3lgdGk3iPIMmK/eUV9ZkAveZYV2731WB3Mb5VeOKUtCOXk4rro1n1hg1bkWUTIBC610gRYjRTrFQkM3BM1/ILJOojUziNCGHusIkzqirBp5UmxhYYdog/3rnRM+r6JS5kXNExEo6NXlhziD3ZS6ouamK9Gyf49lksFmrTqZLTUlf6rgeD3vYw8r1ojtY+J78cF0XGt/52Mc+tmQoyTQZRT04+Wee54zFOJxNZLG5zfmZs+lu/XS5DYuHiTCw2ngwKJ+MI4qy+goKZq9h4cFZddVVi4JEsalQ1gnf2ppz2qCMM5AYFve9732vYST2Kt88fm0ljhJv9XL1V4zVZeHBd70ZN1Iput6kezifajAw9KQJUHzrPdWIQ42O/Rjbb3zjG6+KTIrcMaJq5zjXggBrG6UV11UkzL5dRhUYUMape2pcq80RaZSGIb3RuSsGXl60kdOB48DnLLRXsQsY0Ca8Op6NQ1FAk/u0YsySS87JGDTW6tjsAgadZ5qjyXjnya8KRgjTDnkh+sRJZU4gS4152Q4yVhhbHCVeXxbVYasJDHkarkybJjdAFtMdOCSntUOvOdJ44MBzPoxFtcxdUfVY19F8wPlV9ZOwdJgIA8tgZO2LRqinqQXHXvOgMDJqdKZCkSBMDeLq9ZYep6iQR/riiy8uCsa04AEUmpcCwbOmBkvI3kM5CIxSyp30iqq8zsU666xTokDj3kTg3DcpYuqkzj333NKJyP1zTZyH83nEIx5RIkFHHnlkue88VDyS9RrZz4RQvW7GFQ+lKKf0UhEz6ZeMz65gAFJyKQI2KYQ77rhjmdilpYlMSSVYnjHsfRME43IxRLDaMAYoTAxNBejTCgOL8gbRd/drec/gKDG+2h7TtvMhhGmnzvnku+gVI0n6tfmfw07pwDe+8Y3lZq74HFEu88NCZDNMO/QHRqy5aloNLPoB+cdolE1Aj+zS2WSMOgaBAXNATVulr4Slw8REsDwAaiEIv1e96lUlBdBgNDgNVsKwl6pM2MDjIsf6cY97XMnlFZmZ7f8mEcLA5EHgU4oYBFJ9BlHQKKq6qam/qrnHy8P3TsKmjolC+qxnPaucu2gTY4LSah0J7bR5LxlgGl5IJ+QNcn3qNXKvjZU6Hryurkl0iHHFs2nSqJ66LnBMjGfnaLw65roGk1xzTVl0++EcWB4+x4Q3yJiYBqQ+MrDUpA3qUJgkRM7bBlbXxiJF09g3PigV8ZiGxUZtfMThRJ5Ka+NAU/Nq7tx+++1Lcwzjf1mQpZhWA2KhcH05OqXjy7yY1rmGc96c6/jda+Oly/onDi6GatVRzAeiactzpIbFxUQYWAag9CB5uCJX2oMSntKFKN5C+b1ee4o0hUbaQPVM+Bx/U8Llams7Oi0QBlqPMzB45+SZC2sPAo8Jw0RkyrVYHlIJa/fBcW5S5towpggj52AcEErVaNItkOFtIjBOGOY2MDA1PGkLMQaWdSdEixRF25Y3+Y4Swt04ZTwzev3Om7Xyyis3++23X+li529Ru2VBQPtf59ylgbjQqEfjDFGHVovbx0E1zufjkKHgVceGcdh1zr/nvzqcjHGTewyssFggSzXBMaaVDZCHZL+5QnMoUSxp1Np9S7GfC7qEFtqMq/kuy7CYcH05pV2frbbaqsy948JcPh9ZrFSkykLn1bWzyTU0Z1cD3jjlfOtHLwuLh4mJYM0GA4vixbsvjaoNZYaBIArQ235T7ZUUgN7XJx0Pn7QH9WO6+eiI12tYLgvXiRDptzU0IaSjntQiOdhdbyZB308xbEOwMiREnhTfMrBruiehT4nljdL4gmFaa7Kcj+vVmwpgn2233bbsr+tgl4a35QOkrWjowFmg7Xr9foag5iRq7ZbVntxkwytbUwwXS5oB44q31H0RnTQZ1nvZJYrkdXzUPr8a64PiHkmrqbV0JteuDSwRLM8HOVINrC69tiEsFOYE9dgi/mSgbBVzh/biMO5lKOg6yPk2lxPN55DH6l99Tj+L4S4FXC810Zy6ooGyaMgwTqcuMc+//e1vL47mfrI65oK+WCNYdAJysOsIFnlcnaHmldTDLj0mwsAy+HgZKCltCE1dgUQhKJgVCrk27kLYteMMxVVYGNLHCFkCdBo8Bs7fA+knpVuqlIV/X/e61121Hhj8JAhnE3peF72isA+SZkXpVxOk7qvrTVcoxyo1VO0dI8NG0Fucj5DXmp2gV1tmclRTZXIVAeJ9ZJASxPX8GdbVKylE75q6Xr5H6qExpcHEsgyaYegdv76TN9CaZlrOis4S+Iwra7qYAJyPFEjjVlqrv42D9uc4fq3MtbG1YGLt9DTtmHw0LeFJtiSBdajUH77mNa+Z2aMbjBvOGvJFJHVYhcJ4ohyQVe4jY7jrouo6oRsfxlFy/sM04pk0fttYF1DzI443i0Eb1xxqolZkCIx/KfJqdT17s32OfX2OOi0ZBKlRvBJ179LWOYmkXKpz3mOPPa7h2F5oahYOB/OgGTxtjA1zfZWFxkuXstB3Ov5qYBmLMbCWHivus88++8383jkeXs0ohPrBuJBK5cGo8DpQonmqNK/Q9ICHgxC1OKmHRiTEmlE6CRGghIQ0wfmua7PQUMp1wlNT5EGkJDEQKGnqqKRDiIB4OKVPidgxuPzNOy1CV40pCp3GCY961KOW25GuwpNnQvI/jNWucbxqo6R1uHcMK+thWbdKuiTjWPqHiJUWrlInTbSiUTU6IFXE56jh8R7Pl2tjjLh+xpJNxKx+lslE90l/jyLK6XvcQ/dFoxaeVuciGsMbaP2VKtwp4ca5/XlRa+2RnHcTi/tNOPtM52Uf48I6XiI97WdjmnF9TKLqr9w3RrJIJYOa8TwIImEMcNHOQa+PCZjMMSYgnXSYugwyyLNUj92zxcFj6YAuMGaMFQa5idy1JBscQxcGuUW+pe+6ltMII1tjHenJD33oQ2deDV1DF+CYoiCb0zg9zHl+ckJp/lSNIrJUnaNnVwdajhoZLZyu9Xn0OZwf9XPIVyn0O++883KbYSwVXB8LNtOdyC3y2Lyk2645pxoJ/UAOmcfIvWEi+By+5BV9QJriMPKEg9J4YHAbH8YCXYKjs6uaO05TGUiyU8xJnMjKX2qN7kLCCU1X4oydVl796leX55MTfhp1HgEeTtsV/qMUTkUXCA8NJYz3nxBQuyN9sCJaQZhSKijOogVLCYKNQJEe2a5BWhaMVd5AHfxEzLrGor8iWaIWUjVEDyiHvQ+Ue+/cTASM5vb5MT5MtDxfDMsULS89GLSUKV03B1EGGCOi3cYbgW6cabAzjFebUnLwwQcXZwVDmwGpY+XyWkaPCvKPZ94zxOnAGcPbT052gW6YuoFOq3FSO9eShxauDSEMjjmas1smDSfxIHC2MQxkdXCeW+h4zTXXnHm3fziuLSQt80W2C+OaTihDoiu9kPylV3Ge0lHOPPPMsnGeLzScXeYjzbOmFU53xrVFxQeZ0ycF+irn+tTkGvFq8AZ4SFi1jIMzzjijKBYQ6XJDKNlLzbgCo8O592tcTRLuF8NJ9G42b4V7T0DyRvWeH89UjebFuAr9whlj/RwRVJE0ywXMBwLVODUeGVgilsZlV3CwOKf6DEhP6TeSHUII44JjizGlBlZmyRve8IYiz4bF/9ILOdvJY7/TH7qI5FdEYjm7fb9ILCMhEdOlx9giWDwdLO1hc3w9lP5XKJZhtRSLuV1DStWwqZC8HJdcckkxWqXddY1o5OGHH14Kk4dd/JciSYgRoGE88DiaTMZl4PJ8GgeWaKgps8vCBLz33nuXCZenk0EkLVXkZ9gI1jvf+c6SYiZ12YQqZdFz1VWrdp5fHktrvIkCOx4RPWkxXZAIVpgvnhsOD2M5DAc5KDLfRaRkNmrZg1ROae/LQ3RHujzZRX5K5T/ppJNK9F+K1TARLNksZC+nK/krXXDjjTe+ql6/C6RcSgskD6Vb0lVF9rogEazxUyNYYzOw1Jc8//nPL7nvYTikxrmR8ynUNXgVs6pd6hoCRzt6E8KwMLRFtbosYA1XRyrGOGEwEcbqOft5FnhJGfU6B0rhwK677jp0imBNAZGmaEKV868GSopIV4Y/I1eramnT6hjk/4vQdZWiGAMrzBf3wDNjLIfhYOCo/+B0HAdkIXksCtUu4ZgLOoylStR/Wa5DBotaUuuZDZsiSPYyLqQoiuJbmoWzST1ZV9CpZOaobZcuLl2b0dcFMbDGz9gNLNEXg2Dcytk0U0PhwxpY2ty++c1vHnsEi/AbNF+7YjIRiYiBNR5MqMagyWRc6amiRTZez34iWO973/uu6tK55ZZbltfmY2Cpe9L+n8eSQSOixmnA6OjneEaB7pS8xry0Iok6T+oK1lWTjRhYYb7QBTSzEoUJw8HAsnUld3oxHzNoLKavOdnykIGjTlTUiVPIHDJfA4uBzmGswQ9ZrpxEdsOwOsYwcOCZCxgKzsv1eMpTnjLz7sISA2v8jN3ACuNnUppcHHPMMZ2lMoXFx6BNLuwvJZBBwMBnkDCwpApqTywCNAiMKY1aKAtSXTXj0a3S4tZdeZJ1UGPkMLCcxxvf+MYy0XZVBxYDK4QwaJML+3Pw6vorrVm3ZAYWY0TK4DCd8DjbdJHWvZfBJjJmGZCu0rXBuHIO5gHRPKnoGiB1QQys8VMNrLG2aZdr7aGSa2sBQYoJL7CwsYJAik9bQRGxkaOtxmAubzkvtAdURy8tdyc5ssHTZGI/7bTTmnPPPbcoflqcSp8UEZBHXc/TeVHg1EyJ/Kj1qO/5HEX6DCaKFi+gFqnq0pal4E1Km3ZrRMmXdg1EApyjc9D2mSdOlIRXU5tdY0UrdA0xKI/SAQhQAtrn+RzjxLVwXUUrXFd54QQv5bm2gh0Vxq3jcgy+S9ci41hUwbE7TvfKvXCvnJu0AS2DPQMiHjxthKLPcf7atPss3YjcU2ltrsc0tiydC/dJi3XGgHunNf8wDWoGbdOuVS6PqftVO1BqC+x3jXSMrUHGh//TWtpY9cw6FrUEjqcr1DFozysVxTPhmohodYVJPW3aw3wxhi+66KLi9SfvyVHytK5tSZbW6AxHAtlJlsrGcA/VcanLJls8k+YG75HRZIz51ZxrDkgTmP9inhJBJEc4ncjBYdKbXfdB2rSbF9XvUqTdJ8o0ncBnWPKCw2pQHc5c6f/JI8dj/JCFc+mMo4bR6BpKkTSPGM/Pec5zOquLS5v28VPbtI+1iyBDiXJt7SMDYvXVVy+CT5qO9BYCtA1l0+KkFBgCoRevEbjqIRQW9v7/pMGAVAjquB0z5cjfFHPrATESCAhIQ5KnLPWH4s3gqhAgHmIe5Gc/+9klZct+HvRpwQRqQhUNYIQYBwSia2NsuO8mTGuhCLfzDLm/p5xySikglfNsQlBcypDZdNNNr5qYpRmYMHSLs54UA22UmAQcj9QIY5r3zmsmfJ59Rbsmfedictf90uTOw+dYGMze5/UyJkwwlHNrMm200Ubl877//e/Pq1ZtEmGYmAjdM/dptmd6IXCNRSp4Tj0jDCwRLMKcYjCo8e0Zdf/qRODzjIMuMY5qtMq4W2mllcrvIUwTPNfkNccYhd/v9AIKiyixml3jm6xgNFmawFyouQv5eNBBBxW5L1pBwWR8MbrU35Cn0sYoup7X8F9cQ+uH0hvoEmRzV7jHIkzuM+ej+U4TIvdvmAi8Dn616Zlzohd0mTJZZTH9hS5mG2ZNsDD9jNXAAu8ES5VCYs0CBhfFU8E6RbtCwFKQPTCUsmp4tCEUeEHG1UFnGDyElHPKGaWcULEGBCXQNRBqrPsRQLZeGFyiW7w/IgCiOCahfhRy10z066yzzup8M/m5x46Td1EkzYQpbVB43dhgRFlgmtBUxK/TW43KicAxaowXAs0CkgS0idf/MmJEK3iyTKzqzOrizaPENeeFc/3vec97Nve5z33KpGExS7nkF154YTlOkxgPofHufUqBlC6LY7r/zoth6d7rDElJEBFwfq7HuPLqFwrXgdIjLaRrRAxd0/3337/8dB9snp1lRX1nw/1y/zlGKHeaXHQdEaaYekY8E8aYFMgQphHPEnnuWSRLyUkp7BwgHFRHH310yWiQ9WL+0iFO9FvdizThKicp2XUTlSZPRUUe85jHFDkd/os5jP7Bodc1HFocy5pdSKt2PzlMvTZMeph7bZF/8pixuMkmmwws0+cD/dM8Lvqqg6FxOY1pbmH+TEQNFsVZSo3oi4EoZ5UCzqCqBecUcEWPBq4I1qGHHnoNLzHDS+SqFp37jK49ycMgZ/mQQw4pESuRFhEbQoZizeBggIGCrvOZcLrUh3ptpEQyykRnRHd45kVDGBTLCq/6Pv83btSASeejnPI06n5WJ0DhfscoEsRIagtKUS1NOtxrE7FohEmYoiz/escddyzKr3RRhhYj57nPfW75fO+PEh5X3lP3q50aRhEQLWEAa6rgXkvLPPDAA5s11lij7COkX4Xy2WefXQxKdWm1QYHrQjGoXrnFhGeVMcAIdp+GmYg4GIZZaHiUcPxst912xXiXjup+u4+85wsFuSDSzZjjcOLdNwaNIUpkl6QGK4wKDgpynFxop3ZxxpGbUqitmUSBNQdoksAAI+vJW8q1bJBaB8FpKUWL4SWawPnIUTeNqUcLDb3CHKl0w5w6KObgQWqwFgJOWVkRdT72XMt0MY8uVJYEI5F+QgYaZ9L9ZdHQZ8zlXTpHU4M1fqrsGXsEq0JB4I2iqFCqPdxVAIpe8cpqqSxKQYDap42aA7Uq3q8CeZpgPKmdEGFRk2JQMQL6yYOmqBMiFCw3lXFiwlneBMLrJ1o07k00h1BnSPHC77TTTiW6RfmWi29ilR5qH0YjY8Z4Ea0iuOoDyPjyezs11JgyoTLQTR68Yl3mJpv0CQv3ViojbxpPKiVO9ER67G1ve9vita04fmkGohHSJl2D9jmFyYPX9LjjjiuKnwnVEhSMK574hdqMKc8MhwqjjoFJiRiHFzqEhYYspRfQB8wTot9qkRlZlEmORnMA46qNlF1OWfJUVggnSFfpyKF76D1kIT2KorvVVluVsUFXmE2OjmKjdzDiZEPQMzi/ZAZxiHdpXIXJYiIMLMJO1IYyyRPNuyS9ikCFuioGCINAOhEFlRerpgnK1RaN4TWZ1lxXxgTBv99++xVjkrFkAumnHoRBKb1O+iDDk3LOC7g8eAgIn3FvPPC8lbzgopcMDkJKnjzFUaoIA9L77r0UkVqTRLC1Dep2kwTjilHDG8cTat9999230zFiwjeOjVUb41c7cc4C95kiLnrXbk1cDSx1SaJb01RLt5Rx3zgBPvaxjxUjR8ME0cyF2tZee+2SXqpBh0gW77xI5zCNQkKYBiiz5DrZz6nBuUCZ5nQ1P6jfJjPbMLDULzOw7EeXCIsb866mNTKDZEeI6GsbP5scHdWmvAUyZ0TE73znO09VuUoYPROTIigdaocddrjKy+Cnh4RSyoPPG0B5YIiIZjC6FEZKqZNnq2OHNEPKhTRB+0gVo8gy2CYZIXXpURpdMLIYGQSDNME2c6UIyjV2LbbZZpvyuzUfGC6UPWlnc8Gr43vGDaOnnVrEyygdVE42Q/uBD3xguT7qqhhcvJUiXwwnyqzr5x6LVongWdvI+RN0DFSpk6JFvFkm4IXIv58rRZAi4FgJXKmMjEfHxAvLSFRU7H6KRIg69qYIuueib/Lj6/1eTCyWFEGo/XMsIqscQJwBZNlCIUImikXGkRXq9kRrOSy6Tn9KimAYFXOlCIKsF7HS9trSHuZ7MsTaR2pdve9ZMHcwxHpTBM0BdAdzQFIEr8liSBGE+2xOphNoMmUeHaa+tl98PqeobBUZOOoGZWOJZJHLC/W9s5EUwfEzcSmCvPzS4QxIinQdkJQIHihdZUx8Bg0DQkoVZZRwVZvi/0TBeKicnNcJ6n4aPUwCzpcCzUhSP0VhmatbYi+MS/tJjaAkEJDq0VyLZeHaUgp9j0mn6833+v7exaY9WJRTxqFGFYyR6nVUU+feu14ML+mDPPfwO4HarlUyifofbVOdrzB+3b8L6jU22dS0AUqxyd79Uj9AIWYozgZjTGTSM+E5qNchTA6ePd5xnQgtcCnyLD1F6quJYqE26dCin2SiroHW8BLRUpeYlNKwmPCMqWvUxIrCSvmXRm6OJ+NFC6x9xLEmzX6uLoHmDv9rDsgzsjihA5CFHPccziJZjB5O2Nnk6Cg2mVX0Uh2BZS4wcJQD6Ctg3IalyUREsAx+A5Sy2VvIL41KqhTDo1qyFG4KM+uWN4v3u+0hEP3QUGBamlw4Vk07rMsjDZKyRlHTVVE6mVQI50e5FiHhrRfVqxENdR9SIESCTCCid7w2VfGaC2mVUtR4bTXH6BoLDROEIheUUecJ16FGNhjRNpE7gkzNkuul25BzdZ0cO8NSpIdnU7TKmOAFNWZcW8YNQ9T6ChRhUa5RejC1kBcNdJwiWBQCHizLDZjwdUViOItOarih3TynAgXB8bnXIm6imNq4i2BRGuC+qy/kLKBAt8f6tEPJaUewhslXH3cEi0PHc8oYdm8pfry4oo5dQQ56nnnryT3PgGeiKxLBCqOCo1TKq/tRI1iUVIqyRkXkpCgVOcmpxqjSkdTv5kKOO+Pf82gOEE1xT8mWKpd1IPT5Sae9OmQHvUEES3bQoExCBIu+UA0dUU1jyNzQFeZ7tVjSEumuxhinV1ckgjV+JiKCxSNPMRVa5eUXdSEkQcGmVFLCpVI54AphSzGjnFJgpeTYf9qQ/kg5NLnzupg8pPhIdZTiwFsn7Yzy6HwVsKuxMkEwPGvkR+6v8ydM/I/Jg3dbOtryMAlR9A3icWyMBcdMGDCOGBbOpTYrMZEyTHSUdJ2kDzJORLgos9JAGZSuHeNEupSolxQtY0q6qGvFKGec2BhZNl2oRgEvmfpBdVQWS2bcMqREMUzozk2UyrnW85UuaB8pgiJZjIz6DIhwORdCWcRNRyT7ShlcTMYVL7KIHoXIhOBZmEavsvMgoziJarfHLqOkMKkaY54L48QYCmHaMLeZ70SgzP9kqTme0m7e56gSISYHzVvkOx3B+5rMyBhggJlbKWeaX5ErIr3kKZlM9tMzYlz9F048cphziF6hvfi0rhUmG0QKKIctJ9fyMnlGDV1AlNVcQJeTrROWJmONYFGmeDw80IQdxUTNAqWfYkpJobQSpDxUNReb8CRIefS95r2qrKP+n+jVJAtR58iwci4EvnOv58nI4Mmzj0iVdDnny9B0/qI3rpfzIxxNJLwl8GA7d9dtWQo5jzePrTbp6n+6xsSoPokR6RydhwgeA6neT+fv+ojqGScEFsPRuYHhxEBnmPJ6yLMWmbKvMeAz6vXzu7Fhoq5jSurdfHEMvstP3+2eOG7f5562U14dl/vn/vbu4/76HO87Ps8B6r6icKOMuo0b5+V+cLQ4L2PatajXql/GHcEy/nirPEO+nyJHMaxt9rtABFgEybNBiRRR6rKbYCJYYRSQfWSCjfwzF5IH5gYysq0fmDvtb/M3PH/kfZUtvZ9jP3qH+aA3W2Yp47rQQchi85DrY34cdL6ZhAgWOUSPoA/IWtGNWUS0K8hCcwInsawa14SDtCsSwRo/ExHB8vB6iCnFFAOCsSqVhKG/eSEoltW4gt+9xlvLU1AbYlQITp3iJt1D5ZhNGI5VOhjDohpFro1zd21cI6+ZYOxLcfNaPT/XzL5rrbVW2QzMaqBMAzrtiFSJxDn29v30k+KtAxCB5dyrcQXnyUslMsWw9Lfr4n9qLZffXSOfZUz5DONtFMYVfKd757t8rt8ZuH72Ggy+X63hbPs4HuPZ53jPGLd5zecuJuMK7pNxbOwb557b9rVaSCgRIsLSiUUROScoZcPAQ+reGJdVQXTfuoJi5BhcS4oSZ4tnIYRpw9xuPiADzWnko2eJPOzVD8hNsr3KUptnoBpUs32On+bQGFdXx/U0j5lnlBXIDulqvmE8a1IiC4XTVXMKjshhIP90kTQOIMuJst4lnMHGIhisC9FUK0wHY4tgiUpIZfMzDAfFindk2MlCuqEWz+pH5Ax3jTxptXRy6NXgDAOF1oQ6TO1OmD8mNGPQPRiXAWhNHEaFJQ76GQc82AwrKTDWRZN+KjVGbR/P56CoW7DJuWfo8CBKUe3KWJTawzmhnpJMUIspbZUC2hWJYIX5IrNAl9h2OUAYDPOhTArG0jggf3Qn5r2vC+kvDyUeUjg5UBkk6phlA6ivbjvW+8FcpIkJncb/quuV3dCVw8l8KHr3+Mc/vhirdQkNsrErEsEaPzWCNTYDS62J1qlSu8JwSJHg6RnWuBBB4OWT106YdY1UAut9mViHjR5QYkUOCNOuFNrwX0woJnT3jydyHPhu9U+MGl7u5cEg41BQ98a7TQZZ6kGrfMb+oGg8Q0mw6KkmLNI81dh1BQXigAMOKMtcqL065ZRTSnSuy+chBlaYL2pnLKkhmhGGg/OIPB6XLDYfkDtSpPtJUWYQanSl/ljbfQaaBhucQ14fdB0pDSY0sGJcuA6cTeR9Vw5Y2QsMS7otnUT9oBrqLtMlY2CNn7EbWASAh2paCyknAcKJcSKcPwy8hZQxNViaRXRNrcHSTlUji2FgZBpLUkXCeJCGIYo6qLdxVOigqcnEnnvu2ZcwFjnXWUp+/ijSN7SHNoGLfjF2dN+yAGpXKO6XXqP5C0PP5Mpz2iUxsMJ8YRxIryJPwnBIfTYnqqEaB4wasoijyvIiy4MzioNXF11L8cwXdeXWuuRAk02g0ySnV1fIHNh2223L+p3uBQOLwTiooTgfYmCNn7EbWPAwMrBq9KLmTsufrbVIvfAQqFWpudhtfA6Dw8CG/dS7zLbvJMAwEBIXhaqeH8dqQDnu3pQr+9j3l7/8ZakjqjVY9XVNMRhdanY80MvzYE9KkwudA9dff/1yLWrKqPsvj7l9DUwcPPRe85593HNjyP/yesmv95prxBsG18G1Et0w8Yx6PJgkbNVr6PscI6V7tu9zjzyAFArH5NiMe+fuHN3PXhiQ45o0FwrXy5j1zLpe6rA8s8sbt70M2uRC10ndJnXqJAR9t+fHZvwMivpBhoXaBa2kRZK6dFjw+hv/Img6WHkORIa7JAZWGAVSvMjGqhPUOZEsJSs9q235QIbYny5BdnD0kK/wTNTPaWPeML+OyyE0iZhzXHtdHM2bte5t0LnSZwzS5ML+njk1sGphfa97qkmE+jn3ahCOPvro0gHRGlSiWRxOHGldQf6ShfQpegljU9v4LufuGFjjpxpYK/5nMOw381rnUCa1WdVhhZeBgqmFtd89aL1GAiXWSuMuPmHaC+EgHGuNKDeGcJCPO2qFelQQ/lp4nn766aUeiYKnnoLhQ+A4z1pfZdLw0Eg98v6GG254lfBxXTzEPDY8KJRNjQOWZ2TxFtr3UY96VGnx3DU67Hz0ox8t9SOKj3nibVqxS9uynpSJlfB3PZwjA8vEKGrn/F0T62YZS+po7OuzjKvXvOY1Je3EuKKE+1xGjWtjoh4VPK7S03SPUwvEuHNtCXrHbSwTsO6FSd/SBKK3oi5SZUUSHRNDw9h1PsasczXR2N+k1+W6SguNsc/QkZpHOarr3XleB1V8XHPPjfHSz301psgZ19XvjDy/e14YeYNgvFlewPpTZJK28zyYXXYQVDtWm+QYVxbg1hSmS0zq6ihNitMIecM4tnbOtBqJiwGKyWc/+9nm+OOPL8ox2S3FS9RZ2is5apyDzNcQgfyUVmg+Ie89kwwostV8Yo4lP+kH6o49+2pyFpvDaj647gwR19q1FHWpDZuWpUP0Qk9x3cm/fpxVnIvusRqsWirg/9371VZbbeB5mi5FLyCHZDZIAe+ym6qxy7Cz9Ao9wBiVij6ooTgfNPkwp5mTphVLKQi0WMdulLpaV9BpPE9jtTwIOPmqlE5WKqNh0003LV4AynGNQFRM4h5ESgQh2osHUy2Gm2LTUa9GeSYRA8eDKDrhweSB5vkwwRtgIjweUDgPAo8gpJi3z1+RPsOK14ZyxyukVTPBNQ04F2tSUVClW9m0VuWx9B5jRbGqyJziUY0JvGcQm0A9iNKjjCXGOs+RttWuA4Gv+YDr4vMPPPDAMsmOEko5Qc6oo+Qbw+6F9Voo3BYgJvScC4+Wc1XQK/Jhf8aByKwW9J4J95dwNDE4dufsvi8mGKUMUoqOyIfz5DhgaC00DCl1U1L6LPIspYTcMKEPCtnFMeK+8bxS4jhGusKYMrY8G6CkkCkhTCMUepEPY5oTjfPNRpZSmC0wzzFj3GumYN3B9dZbr7wvC4Jizlj2vz6HbKVbeI88NU9wVNUoV7gSzkk6iHlL9J1OYm4l2xYSjkQGiFopTi7NKRgo5jzOr0GhK1RZaM7s2inJyV3LFegfjmWSddCwsIw9tGPwEYA2ijLPBw+sKFZbCIrSiEAQrDxWNQ2wQtERDaFkM1QIXV6MQbwv44CAIUj8pKSJdjh2xpSoS1WsvW/yoci3YYBZlFY4n9Hhs4TnCct+FrhzPX0GY6zrrd5DxgXjWIoVw8NkSfllgNrH6vzuJeHvHOs95YnktZS/Leqh9oVxxdAxrhhUPEfGlevps00Yol6jxPEYv77TPfR97qMJnkIgMsObIXrGuLMfDytBbB+Tv/9vf4776PilezmvLrsQdQGHgPvgvhrbjBIeT939FhrXmWHHgWGs8NZS4obxMlIE3Wtj1TjGMGmGw0I+cDQYSww8BlZatIdpxnNInpN/ZKmxrVZSCjA423joKeJkqrnPPmSIZk3+B2Spz/FsVnnK8NJMQfpZ+C8yWVwvGTOuP8efOXmhDSyY4ywOTd8xn++///7lng4K+UfnIY/pNXRCjrOu8J3GZTWw6FUMLPNbWJpM5J1nWBGGVZGuRhXPrNoJv0ufauPhFBnYfffdm5e97GXldw/ctOFceeAoTiYBwqdNvSYVBoh9GSwmG5hEeE8YpcuDACXQNJnoetOi3fFTCtVA8F7xMEoDrccuNYSgZ2S4xwzHKvSlg6BOqCYHm2vRi+sqMmSyHTQNbD5I3WJEMf7dp1VWWaWktUhlkP7nuETkTAq9GL+UCEp87ziYdtxD973eZ5O6ccsYnSYYilUZMKG7373P6EJiQnfdTOIMLeN7trEUwrTDgBLZJw9FqshS8kI02nxvLvGauWU2ZMTIKPDTcxL+CzlifpKiR34xEsiTqlNMA1LyzKc1m8D5dOls8p0cvDIkHAeHG9nMYRqWJhNjYFG0GE0UagaUKE71KFPGKNaKkKX9+ZtC3kYNEYVdJzFpOpR1QnhaIMikRvKqK1BXC6DTGWGxLER0ePdE/ISnQdHrTa+cDfUu1g4SnleY2fXme32/iCOj+Nhjjy3GiLQtER/nIAWkFipTZhmDrpExIP2DId5OJeCFq5MCIac+Rz2elq/qfRQeMmi6ggeVoUzwMihESqSqaGOra5JzQduAMjEwwKRoKBhejG2LRRRdG4Yn3GvnPW1OESkpJlF47rpOSTG+q8eUUyUTelisMIpEJMgKTsi11167dGsjQ2QKqL9mKLQdaOSJlEI1ztLuZcHU+ST8FzoEI5UOYd40vzKwpgl6X3U2iR6ZX2SKdIVrxsjn5K3XUNZRIlhLl4m48wYj5VNTAAqLGhyCs3qZKNI1BUAKoUgWZbnWJ4HXlsGgloOyTtlQ7zJNwpRAU0/lIZUGIfVted5wQuTZz352UbQo7DoCaoTBOGV8LQvXc/vttx/75n4S8FL4DjrooGKASFlwTsaD6JV6Ja1f1TeJcBkTro0x0uuNbF8zwo3gNbky3nbaaaerIl5d4XiMcZuUAWksuic6Ng0KGI3OteK+OV/rebgWy7uP04h6M3V22ti6Hjr6iezxQE8TPOi16J6B2HX9k3FTnTDkxjCdv0KYFurYZjgZ91tvvXXpHKfBiiZI0gg/8YlPlH1A9ppb1PRst9125fdwTcw1nJN0L1391KXKJJomZ415vs7tokeMqy6Pn0FF3/Sdfprvu9Y1wmQxETMxISi1hgItaqOrnYHpdUoDDxRFWyoAr75ol9Qp0S6DuI3BTYiKdimknxYDi5EgksOwdG7Wb+i3EFe9kslFW04RGtEQdWzLyzNXA2OB0nFvNdLofvP+mAwJewan+2csiFIxJl0j+xkDDETjo3rajAWGdTW47EfhVLRrXF144YUl3bB3zCwk7iHBTwnnXZO+WM/jlFNOKWuAiD663xVj2L6MMQ1PPBuLDWPUueuYSEniGOFEkQI8LRhHCu9riuA4DCweZykp8CykqDosVswFHGvkJ0eriDEZzxGpkRCnJKerqH9dS8v7ZA0HrPlQfa+5JVwdGUBnnXVWcU5bQ4qjqzaTmhZkelSDpjaY6NLZRCcRXa0GFj2EE8AYDEuTiXd1yqulQDMepP/ZpP/JrWVUeJBmg6IunaA3ujHJEAbrrrtus80225RJQpekfgzEakho8MFokmrJI1VTh+ZCLrsIgkVJef263rQk9/29zThMgO4vI0PKFcW1pjxKCeSZso9mHpB+Bx4k+/WmBRgD1rah/EoVaUeLFhppjQxI6Szuh25NasEgyqjmzIKMUl5mwzWoEZLFhonI/dXxUT2dCLTU2K4Z1uBmPHvWalG1KHyXETjfKSWqGliUy6SkhMWIsU6WKg1QYyViJTVQHSvIUs2COGsYXnPpBRopmUPCNTFvcm6TI5x+Ou92bWC5z8PKYwZW1XmcQ9fOpl4DiyNgeSUeYXEzETMxRUXdzGwPltorg5TiQFG28UQpdvWexgcGtfbOVdjyKlNYtX2fBmWjnr+fvG066ljHRk2SaFa9Ln56cGczuqRM6KpnLReNPhhb/Zy7yYZBp0ap640RSAhZe0PdHUPappMQpZuwNGEyoNxP589jz/jSfU6nI9FKBoxrwrikbNYoAo++a+ramDx23XXXEk1iZNWo16hw/9r1Q353HlITGRFa0Rq7lARpoISx8/HTMTIs/F3HQq0jW+w4T55TRrZU12osdIHxoTWwmr/nPOc55flp38PlYVxS7DxDzkNaSpfRRmOFMuk5MXYolQzyRLDCNEOW98o/TilLcHjWnvvc5xY5wblBlpPpoFSbS0RjOD18hmfE53k+wvKRKaSWXddaKftdyhLRScvLkMXude3K2g/ur/FQ5w+ysGtnEwevMeeamUf6KdMIi5uxLjRMMCryV2/j4aBsU0b9JBi1H7ceFmVYHU6NTKh7kFpEsbYJC1sFnEGijstnEcKT3k3LeVmgllAxgRAoPODSHxgYaqlE6RiQUv7UqEgrc/4eXHUsDDKTihQzHZL22muvkn7Wj2AkTH0m5V/kTBSsy41AFbkgiKxP5Z7WltkiPoQjQ4rQYpSIZGl+wVBynYwTCq0InHMREVOHRuEkoOvCxD5H/ZXrCqmmxgkP1ygiDoxDazo5BimIPludmNdFqKR9Gosije4dR4B25I7XviYzNVeeA8YGB4HIrXNfrNErY5+DRK6/c1V7514Mk04hImks9bvQcMXYZ5SryzNWHE9tmd8P7pMosxRdz66IsPSarlKQPA8auBjHniFjS1oPGdp1WkoWGg6jgENRAyCy03gWpdKYwiZjQSYLOU6hNu9RpMlMz6+5QXSLo4ZuITtC4yiOEPOk+XIQ+bCU4Likb9HHZHuojyVTBoXeZg50jwZZrsJ9NAeoseYkUgdGj+nXYWU+MQZqhNLyGwxt834XstB4tBA2pyoHL+cd+Wxe7zpiah6S2ZCFhseH8UgerfAf5XVRuHY8oJQsyrUuQkvJi2vhZSmR1shidPSLhV0JMo0xLHDcNYS5Zg+iWbU7FOHUK9h5IIX/pWB5vy2wCDZefAoSBd1EGiYfBolonkl4vkakKDbjVIH7IMYNRcK4Y7AbezXFrl9Ev6zRpmaQIc9A41H3LHYBBVPtidRK5y2KL/rN89w1uoJyFEyrcSL1TN0ueWhchLCU4PSjFKprHsawqtDDlDcwhhk3/UJ2MbA0fWIkmc91mu33WNTcca76Ts5nsplyrra3CwOLjsL5rQRAp2tOP5to4Hyu5zBwdnEcckZMK8YhZx0HYlcOy1HCuNYPYdEk61OseSx4TpZaigzPMU/PIMbVJOG4GU6ilLMJI/fTfRUp6PUGEZ4im+59jKvpgRHino0jQictUzqgSUhqIq8jL9mgx2ICrUXVjDNR2a5TUto5/0hKSghhUBg1It9dGwPklkwANdkcqBbiF00z3w9yLGQhyF+f6ac5pqtIvpRAmRjkr+/k9KWXTKtOFkbD2CJYHgIebB6PMByUK6HoYT3m0vN4jESwdNrrmhrB4mkZdm0qXjfEuBofJhNjsEvjoo3UTCkhcvf78XaZyKUgSUuVUiSNU3F3ez21fnjFK15RokjSd6UqG4MiIF0pKZSSY445pqTSkKfOSbt7ilLXJIIV5ov0Mg4PDpAwHPQBKfVdp6VVfL9UfzKVXFwejtX6W1Lq/Z/OsuSZdM5BYJhJ/VdawcAhG5WJ9HMMo8B5W9cTulrqcO27tb3vmkSwxk+NYI3NwDIApeYIBYfhqGlNw3ppKJTC8BRTjTG65vjjjy81OPLlCahhqO3bu/JUhWsiTdNYrMbuOBABlZ4xSASHQq0Rjhq5QT2Nzlk3U8aUyUCaooYr7fX7Fhppkeo0LcpODojEaVXdXmi1K2Jghfmihtg8VJtWhMEhlzhbxum4JktPO+20kp7XL2qS6QOcrqJpg1KdxYwzhjp57FmWAt4Frvduu+1Wjt2mllzZxTiWHYmBNX7GbmCpWTj99NM7bZm92KBUiR7onDOMgcFbyHv0/Oc/vwyGrtHcg9dJFEH92DC4BhTaGpoP3SI1wtperv24BKH8e99/1FFHDeS5nY+BZUJ9wQteUFJzNTAxwW+wwQal62VXkbxzzz23FPj7XnJAkbWmQDVtsUtiYIX5wtmqUYEUsTAc5kOyqas60F4YN5qT0CkYO/0yHwOLUanmSqMzmQjOX7MUEaVBGm3MB1FXC1lrkiNVnFyWTTDINRgVMbDGz9gNrDB+JqXJhTQnSmIIwzBsk4v5GFgcQ/vvv39Jx6PM6CZogt1oo406M/QVk0sL1C2Ks8TGizuOGtQYWCEExs0wTS7ma2AxaN71rneV79U1Uie9ww47rLOaVA6uTTbZpKwdJlVcZoEull1F0NrEwBo/E9HkQhRLa1AD0SasrB0r5cVDMxvqLXhJ5oJHXVc9Ldu19uZdn1SkVOmeQyA5XsqRLmRat9eizYoULEqkh4ZnxnWouFbSKggo71G65rp+k4q0BlEA18FG4Pbm4mtlr2sbT5U2pJBaeNFFFzX77bdfaZXub+9puVw/67jjjisdfjQ2WIg0NpEDY1d7YZvj0IJdV7nZvk8NkHsp79xYVcfTe67ut7HBo0vIGA8mjt5xMQ24t4z5Cy+8sOTcV5yj13g7RTNNUtOC+0AO1QYTnreuo6jGQy3kdu1E0sZVBxfCKNDwgOyvspTcpiOQhcZ477zmGVRuIJqrPbj5vi7kXvF8iqqQNfZTL+n5JXeXGvQjziBzIvlbcV11YZZiLPLyuc99bmp0CPdXg4lah20uJRe7rMuWReF6KVlwPOZ4y2eEpc1YZ2MD0DoBlFEeRAqCFcStS8M4MlDbEAAKy3lqZ3v4tX7myaDg8qZqnzyOdJl+YZlr7uB8tCilrBEKRx99dFkHSqEmgQjeGULRBOLa7LDDDmWND9fBefsf19MaIPbjxaj/Ow2YFBlDDCg/jQfnZmM0mXQp4hZQttaQMLz3TJiug+JYrdytn0DRtZaWccVgd11qjrTCV8JwlChqpdi67pQAC2EzJETmLKbMYGZoOV4GlYVtGcTGJoOax1xaTD1X+dvabfNC1XVA/I+mDMbKNOG8TNq8OQxc5wiTO6PUOBUJoihxMEhxWWjqhOxZMhFStupx9Yv/cU/d9yqnul61nyOhNuYw7qTZDmLgGaP+zzWo4zOEcaK5gW6y1jFUUyjFSwo8B832229/lRPNWCVD1UEyvijU5Ka6H2tnwT6cuGQnB470Yd3p7G8u0VRhKcHwEFkRZaFPtPUrER+6lXpOEX3p1jIDFlom+Hwy332ix5DLy3KgzwY9x/+5v+NyNtFNdQ30nb7fsQwyHzgH51+dqNOku4W5Gbu7k5JJARYSlD9LUV5ttdVKRKvt/ffQ8fjLreWp6jW+vE8Jp8Tp3DJsTU/XMLIo5Irl5evq5vfKV76ynLtIjVCjcyMcGR8EpOgMLJRKUTWxMFAe/OAHF8NDmNw+hNby8P+8e2qxut54Kyl5zk+0h0Gs0JnSzZggoNxnC7YxlETnGKRViWRsOE+dg6x/pqCUUeqzjSshZpt1gTRUMbY0QrDPKFED5roTqtbAsGjzVlttVe6XCZ/x67xMJu6VduDel57GW2hSY1y7FhZN5iSgAJjoGJQWv33xi19c2poPOvmMGwqSc/FMtzEhcRS4BowEqWU80aKBC40JnZzwnFDeHMugioQx6HNMhp49E2vXLec9GyZzhpaOrBTTfnCuDF+RcwqqWjLpNF1c+xCWB5lBnlt+hCyVditDgWNNCpk5kJHFSOAc0Bjj0Y9+dBnH0oRrui+H28te9rJifBnn0tDNH5w9UuInObtlITCfOndzVC90K/OPNfU0yZHaZm7lmFxIGBIiieY1znZz+jD3xecYC+QhHdHY6RKy2Jhk6HEOu8b9Orucu7FsjBvDxiznsLklTDcTUYO1yy67FM+V6AtDw8TvgaeA1RxaKXEiBAYyZVTdEI9BhdFFKWdcEaTjqEMYFudrwVBeOkqSCIsIDCHBq+Q8CR0/PbQUJNdMrjKjwTkzKHyGnwwvXjv1TauvvvrMt1wT3yeq43PHEc7mgXRe7psoD+HE2OBhY3SC4ugcTYgaCLQ7tImAMGJEPuR7M0ItLmhjrIkCGU8iKFaHl5bnswiwUdecueaikJp2POhBD5p59co02L322qtMbu4Hz6AoFsNK5Mu9FLU1qRnbFktkaIvits/VflJnjWvG3DThvLTtpdx4bilAnm+OhHrvGCnGIoVKlHEQhq3Bmg8UDwqIZ9c9MTnqyCn9aCG9jxxHHCki3VJqLWRZW9Tz8FMml4djF+llUOl8aJzxYBurFFjPyqCkBiuMCvMfGb7ZZps1z3jGM64ymCjPxhl5Se4b/2eeeWZxPlFojWMykmHFGWUfDit6Q+/SBRyY5AYH1lKCLCYnXUvzJ6cgJ6uxr624udH11oCMk/uMM84YaL4ZtgZrPtQ51NigL9AfOKrNswtpRHMM0q84cTnCze8cweZ/84FoaT9wLNLXjFGRN5/l2DkUOGIHJTVY42ciarBmg3LCi8EbXI0kr33wgx8sXiqGBw+FB6nC8yJVDAamaAWlmsI+bThXHXFMEjrSMH5MHJSe6hGxj01UgNdEJIhhVRVyRmn1ri8LSj3F1/d4uLvepEH6fkqjKBRhT+l2/yiNYATytrvnmggwwkXcYIJkQNVca+dP6LUjnxUTi+iR67gso3PUuC8MZccs/C+a5nyco3QX98l9NN5F3hidlN7e9Ab3ngLfdZRkofD8mhhripv76P5bz2QaMOae+tSnFoPYxKqugVJIKaGcLMRGIWKsb7HFFsWhxJgR1WW0M8j7Ma4g4mXiolxSAsgBn+X5kUoVwiQiqkV2i1SY88wf5IfolHmDg4Cj0IL0fpcKSEmrzro2lDaOiqWGeaQ3suJ60rnMVXQu73MIMnSnIWPC8ZpD6XyctX7nbBKVn02OjmpjwHMq+enakc3VydqvcQVORhFD0UPRW7oRBwF5H6abiYhgSYXyQEvxoojyJrLcCVCKpoefJ+VZz3pWsQx5GXn/hVMJBF4rCivhKh2Jgu09iiqvhsE/yfD48HgwHnjAna/fdaWheLZhWEk3oyB5oHmfGJ5qfSh7Jg7pdtImCBwK/bRQz43SyCPpHqo1YygSlgwMrxGo/nbNRD5cP7VKjE2RPWl5PFi8nwwWqaeMK/vsueeeZQIedX72XBEs94cHVbMKx0mQUo6luTAmRCF5FBm5nARed98ovHUiZIzwxLqvFAzRt67az46C2SJYBxxwQPG0qUFbeeWVi9IvcmVCl+o7COOIYFWMV9FSDgLjjhLYq8CMEs4ktSkigCL1JmeycxB4TD1jnpH2sfJ62jg1BiURrDAq5opggRwkQ8zzPPzf/e53S82utG9OD15j8yG57z6SLVK06zzKocVZqzGS3z0DMgaqo2exY44lJxlVNYIlRU8apgwC2TDmRteH4WrenM1AnYtxRLAqHJd0JtE52S7m2lHP8204CH2nWj56Kx2AYTQo9BHjvZ054DrSBTQbGZREsMbPREWwTPIuImPJYDP5V+OKciaVRfoXL7EOeYQlIckQgeJAA1KIW6ohTwAlVDSLAj4N8B47/irMVllllWsYVzCheJB5z0W3TD48165ThRLm2tWI1lyoPSEMx705JzjmWmTr3ppoCUsRIAa1a2PCZXB4n0Cq0TwQeBT0KlSNK0Y35ddrJhNGWn2/CxyT8WkCpwD4bpEDKQGMPeOeUSbdxfsMMufs/yqUBM+DdWJ4t8aRzjlqarSl3js/nbuaqGlC9JVS4rgZzMbyQm6inMaBSD5Fskb5B4HcML4omBV/U0rJ3xAmFbKRXOdUIDM4zRj3UtvIRo43tcveM3/KGmiPc3OA+cB4lz7GIbBUjKu5cP6uS5XFMI+6fgvpLBo1zoHRzWAW4ZT1MpsMHdVWa9c5STm0OdeGga7Xm23FAKarhOlmIgwsUFBM7oyMthJci8gVQFKy7SO6xaDQ/IBQICAoqm2l1H6Uj2kIccP5CiuLxIm4qdERmWvjb7VKjAyTCUw0rH2TBcMKfidslrcGBAEkvWncW035qwjxGwPuqXNo31fn6pzd/5oiWSdQ58/Qdu4VRgtPGiNGnra6mdlSCBcKxyMqKZoqvU9zBcLT71K9eGPluPMYqr9jeHAotA1mGOMM5tmM7mmEYuQcGVVwT1wr93SacF9F40QdeS+NZfd7oTYyjWdSbSZlwvgeFJ5B15nXn3wkQ3k8OVzUcoUwiXBU8ehTZOkCMgF4islMjjmOWTWcosqeE/twxKkvbEOOckxWp+5Sh+5lvnUtyQLzrd/NUe3o4aRjXKixJhulCHLKzyZDR7VxSGnSxFmqDnCQtMA2MrM4WOl3rj39QABBRleYbibGwGor0W0ISO894AEPKMo1b770MUqzgkIhWoWBohwUBAo3KG5en5aGAPX8KZ5C8xQ16VOUzirwKOGUOJEcCqkHnJIqtcV1qJEP3hXXanmdFO1rgpEyoO6r600xKg8Zw4ii53hsDMRqkEhxdJ6Epffs63XC1GRKwZTi4D159yaImj5XPw/y7YVsFUUztOrro6L38/ztnKSuuTfSpxhJjFr1ZY7TubtHBLPzce85EoTF7WefxUa9ThR8joR670wqfkqVnDYYvXe/+92L4SPtRjrzQm1qTaS8tmsyB4XTQvQUml2oIZAid+SRRy5XZoTQBb3ylNyXwSIdWPoXr7/GV9JlzYEclCKzsgPIWfKUI9LvHLHmz/Zn9n7+UsF513OvP8kvcylHNmeleYfeJR2937rOSYFMlOEhJV1q/mwydFSbhkB0CrrWfAx11159ubnDMauDlf5NPwrTzYr77LPPfjO/dw5jiDFAAPIq8TjxphCWHnKpMAayiISIVPXeMy6EgLXcpizItbUpaq2FmtpeMsrUfdRo2KRhYmAUyHMW2ZC6wLvsgXVeCinBiDjllFOuMijl2Mr7VZPj/Ew2JhoeOddNlEsKkWu2rHM3QdUaEkarCarLzb1XD8JgsnaJSdQ9Z4DwSDKOGR88lTxpIlf2U5QvZY4Bzaj0P/Z1zwlXbc01CRGtYmgzxr3PgJE26toxUl3XUUwgjAPRAOtxcQDUscu4ks5JUBKixm9tE2/ilxYgrYwBWeuqjGPPhXOxvwlPfZLj9tN9ogRPS+qG689Z4Dk2pilAfrr27h3vsntBeXI/N91004G9pjx/nCtq35aXFhuuhJzkmFF7QRmR4mLsDguZxMlFfk0jnlfygoE/rXVkiwGONM4lzkROBIYSuccBwCnH4aYu13PO2LIfecEpZz6zjzqcmgnDIUkumzfpBWQ1p47vMB+430slimV+ZThZBoTB6Vq6vnQEP0UHzZPSKs2zDFnpb4PMNZyK5mvz9jTVCY8T48/cJTOL80xEi6OVPjcM5lTPzMMe9rCZV6YPjj9zlNq0aZzT2SjsmrEaWJQvSiaDwuRcBaoHnnfFewaZid+DXwccBZTyybgwoVPQfQZDoy7U5m9K+LCDtAuco4mBsunBIpQomQxKERwTAKPC+85XbZnzZWA4P5ODn4wE10jNkmtGQfBwLU9RNSExAnz3MMWZ84VRSJAziBglFG4GtuNxngQ7ZZzh7bxMjgwz+3v4wCDxv4wUY0RhtOvhWrh+vHCMLmPEZ7mGJl7X07V2feeL1BXHalKvhao1gsp4NU59HxyjaAfj2mTkXvNWuX8+w7E7ZimgPsMYsa/9GM3+d5oUAufo3qmNFLUy6brmrodzdG4mffeHYuT+D2o8xsAaDtfZGK3Pw3yIgRVGgbnd/E1Om9vIOjLCPC4di6PK78YuWcuJiiorGQ3uX5UDnFGyF8hPBoZ9bGSspjReXyqYJ82hrok5yU/6lmvsWpovGZ+ML9fZtR1UnsbAGh5zv3tifhx0DmwTA2v8VANrhf8InUUTKyc4qxBlXMxnkE4b9dwJUcpSP+euW5iuWeqARr0uVD8IsavB0uWJUeUc6uTZpp6bida5taNy3nPOBHvve2HycU8pR+7dsIbjsF0EKRI848aMyOAkO2MmnXQRDGG6MZeSxehXh+hFSYPGVcN0ESTHZbXIvGFch+FIF8HxQ7eQPjo2A4tiJXrjZxgOhgXDY1gL3+BVnM/A0q62a6qB5RgouMPgGoByvpQM6kmhGr+MlHFdf5OJVFNthvsVxqK3mlMQgtI0jznmmBKB0RFw2O58S5kYWGG+kCNSBKMTDI9rZ04cl/wSgbS+oxR/GR39IA1e90dGnawj+oisEJkdakVlN4T+iYE1fsZuYKkpsY6RWpkwHISQ9CtpPsPAWyXy40G0flTXvOENbygdf0QbCddhEIplYNaUwdAtDCxpuSb0QWunRoVJXTqKtcb6qamjhFhzSxqFtUYodXLed9xxx2KkJQo6ODGwwnwRwTjkkEOiE8wDxgq9YFypj4w732/xc0ZWP+igZ9kZKbpSN/fff/9SgyzFSvpyGIwYWONn7AaWmhldU3pbkYf+oVjOx8AykTF0LdpoMHQN5ZaBJSVgWEHKwIJc8jAe1LvVNvLjwDPAKBKF6kexoARYyFvXLM1jwMDSyUmzh0RCBycGVpgvnsczzzyzNKQIw8HAkqbXj6NpIRCF1NTIc9RvR1jNyTSCOumkk4pRZkkVzrILL7xwUaz52DUxsMbP2A2smlrkZxgO1842rEKoe6Fw/LhrsBQ0Kqodhjp+EnUYHwyWcRolUvx0w9x55537FsYmIMaUjmTG0DnnnFMMtGlt0jBuYmCF+eI5jE4wP1w727jkMQNPm3HGVW1AsjwYhNaR0uRqp512KtEv+gh5knl9cGJgjZ+xG1jgedZFTjc5KWI6rEk10hpUgaSOcW1BIVqhzbUCyl4PjfQC3q9akwO5uzwjOrNMIlL0nLtBpJOa8+aBJyDlL7fXodDOnVeHt8f7BJAcZZ3x/C3dyeJ0n/70p8uCi/14sCalyQXF1urrzk+6gHuuO6CULZEp5ycNTXcitTPaemuKofOR7l/SCbwvgqLNt050rpOxRUBLH/PTtdJZRye+UUZbtJV37RXoGnPSFaXL2ZyH7/Oa8xJ1FDXk5XP/jXFjXge8K664otQSuZcieu6h4/RTV0mdBnWUJDwphDrneWZcI8+PhYrtN00Cybm85jWvuarRhXuulfsgDNPkwveqFfCMiQDrquU6j9NQnGZiYIVRoIudZSysVUhek6fkAlmqM52OsrUmR3o7GXj55ZcXuWp/spD8t4/P0Xrcc+1vsoE81YXX55gXRMvoFJw0/l/ExD66ntJB+plHFwtS+6Ttk6dw/mTqINdgmCYXukbSAcxl5j21sOa6GFfDEQNr/FQDa6wjmGJjHRYKp/ahlBxC7/jjjy/KN29WGwq2h9caWJTuCsOLgutGUL4JYg+n1bbHVRfSDyYOCp5jveCCC4pgIZhci1133bU5//zzr+rqw4ggvKxZ47odeOCBZfCpJ3EtGGAMJmtjtY3MaYHhRChoUWpjFLs+zs0kSABbK8z5a33OuDI+Tj755FJDozkB4Ww/569RAcOH0cOoYsAYIxQohswoYUSZHERRTN68d9re8+ZJd5AKyWhyLgzI8847rwgPx8RrxzHgnte2uNZt8f8+h8EkdeYlL3lJyVGvLYwZbRQIioPnRrrnQQcdVIzKacF4to4NA9M9dw27au1rErJmDsNMrr/aD/fB/QghjAetwrVVJ8fM6+ZDDhdzuxSyww8//KrFyS+77LLSgZYBwCFprrdoNn2CHuBzrK9nfqifY1/rQGmqoJ21OYOM9X3mWmtRmlc0wOHwWyrU62nOJIsZqvSoLvQn5SLmRGtGWsPz2GOPLaUDjN5p1GVCqIzdRaB2wwPNaKCoWuOIokn5qcYFeKgYHBRVhhbvVYUAJTz32muvUqRuoTYKaI2CTTIU6hrFsI4XpVuYXKTCNWAJO3eKNCNim222KUWgJgbRL9eBgcY4G2bdiknA+TkXUSyNT2xbbrllGRsmu1NPPbXU+ViZ3wRcowwWiySU1XCJ/DFIRIZMsP6XEcabaSz4bAsn8njyao4S198YZhDyfFrfyYS//fbbl2M2adgYwyJU9vU+Lyqvv/RIE1n9HPfepO+4jWupb9ZssfA0T7vPcV7OmSLh3vO+uy6M7GmB55nByFlA4RFJNal3geeHsc445S2jwDG6GLeZ1EMYH6L9ZBtnCxlITnKq8QiLbEkp14GYLDR3kJ9kIKcaWVnrMEWkyFKOm/o5MhzMrzIfZE+QP4wu8td+nFdkKUeZ+XepIHrFgWmxW7KYw8makl0YWOZq8zNnu3skiqg2n0PRfQ5hWpmIGGw7LcfvBCzFmlcF1btCgbXYqvQvHv8K40NqCmHq/wlNijevFcNlmnCuFG1KNOHm+AkgRfg1VM9woMj7275w3vZvX8t+YJzy1rlWXW+8kSZIwlS6lnSEpzzlKcVwcl7OxX1/+9vfXu678xX1cG1AIfY3gWxf18XkyghH+1q0x5JxNGpmu+6MXRMHY4nhY1wao6ImlAMeWvdWuuOyHAHOycTnuXDOrlkvPsd+ombTgONkdMq35wgRme7q2Hlp1QkwfiltUsJENhngDNxBn6EQwmjpfQbNg6JLNlEpcwQDyvygUU1VxL1fF82f7Tn2ORY854yjR8j4sF97X3KUHGg7cRc7sjpECBmgnLhkpGu10LLQXHbiiScWx7JyDk5kjnI1WRzuVb8JYRqZmNFL2eRFkQ7FSyUqUb0n3pNaxdtvnQTpcPaZC8KBcusBnRZ4zXnVRFfkQQvRU6pFKnqpUS2pb/PxMIkaMkxNOCJDXW8Ua98v31q+sNbZUrR0eJNux5CSOiCSKd2TV41SLF3Sa9IKTYY1R9dkwHhqp5YyakStamqeibXLOhH3R20do0+dGENRpPJFL3pRiUSKmLgPjKdlwbh0naS11MiuMcMoYSQbN5wOzm8aMHlvsskmJRVknXXWKak9hx56aJEBC41rZoyoVWTY8ZTqaCoVlQd7oZWKEMLgkKUiVeQfPWHDDTcs0SvlBJRyEScykfNxWVTdwPxiDqnQMxhqsimUIZgXlwoi+i972cvKulPSzUUCu4jmk8OMqFNPPbWk03O0vvWtb72qPnZ582IIk8xEGFiiClLA1JSok2FcecBrpIEwpfQo4ic81a/ogNdOIawQmho9UDR5uKYFxy1lStqCUP0rX/nKMnn0enDsp2aEcSLNbD7KoP9XszTuzb0Sodt7772b173udcUgYQxpgsLDKG1MisgLXvCCcv/tIw/fhGiMtI1MinvFuGKMMtZ4xghrnjGTSVe4P47PRMIjKlXFeWgJ7tzUVlEQHOfyYEg65zrp+UyKgGeGB5IH0HWcBtw344/BfNxxx5WOfu4T58hCw8MtciYd2T1hoDJ6pcRwbIQQJhORenKdHCTHzRkcchxpHHCcNNLEl4fPQTtqLpNCdIyzSvqw6PZSQRYI+Sc9n4NXuqQ5eLZsiVFCR1PSsccee5QMFA5W86U0TXpgCNPMRBhYlFDCUnh/iy22KDnS0qq8TgFicCh4ZHwoamWMiUiotemFokrZtJ7CfIyPruFVW2uttUoesiiFaNZs9VSuhfctzCfdbD4QZiKB496qceF+ue877LBDiWR43U8Glnx80Tzjw3GbDDXCYGS3I1YmhHbapP/bfPPNizIvncTndTkuGMQiSyYSBh7jiAHJgSBNjREteqK+cFlQKkTBTHzVoPSTwSaqq/ueurVJrzmcDdE50Vr596NuQDIbjHCecKkwDDv3QhRtmhwyISxFRJnJd3KQ3CfvpPaqyzInXnzxxaVJwvIcVjWNvN1hWN2VdG21s+TpUlyywbVl2JiDZQoxZBcaGRwcg7vsskuRx+Yxc+Q06W8hzMbEpAgyJig4tVlAfbgISh5mnn51En5KrfJQ6gbUVq4poSIbPkMK2jThfKW7ES7qk5yjPHPnBIq5dAYNPnjtKOuU9/r+MDDWRBDUPonwdL0xpH1/bQtbYWyb3Jyj3xlNNWrDyyXKQEmWt80A572EyYBHsq0o249hxrPpeskz77JwlnHFEVDbgYvSUBIYRxpUmFREI93XuXCPeWV1RNQZq3pfjRlRrdoYw7lO46TkmBlZnlmKU1f43rqFECYXMpBj1ZxVG/uQpRxt5J4IDKPgyU9+conqt2u02/gcDjrZA+YW8rRCByFLzR+zOTeXCuQhw5M87vI6RB6HxcZEGFgU37mMBWlzlEiRCIaXTf40I8T6FZTX+n+MLYqoVMLe1LpJpp6/42c8SCEj/HnlpEc6PzVI2saK5ohgmSA08mB8Vhgh1RDpF4o+75H86643UUaTo1RAdVKMJZs0MRMfY4rBaRJllLgOJs4a0RLx87v9qwHK0JDuBZ/lmnqPd1KNl7xyqQ/eGyW949d3MojU+Ji0eVlda5O/RhUMQfv7PwaTDpD+9n/tz3H82tcfeeSRRamw9pnPsZ//9XMa0ZzEs8uB4nyNac1qPLsLDc8sg1ajEZsxIS1I9KzeFxuFrr2fZ66O0xDCwkCm9co19asi/eS/pjQMALVC5557bjGY4Lk0n6hVNY/O9jnkjUXFyRuOSkZE3a/trF1qWIeTbDOncGj6Xeo+p+9C4rvoNmRwlbOMaHMe+Vvvn3tjvqj7KQORkVLvfQiTyIr77LPPfjO/dw6haS0nYX0KFwVL5IKQ9EBZm0I+MNRN1MgEhdt7ilEJTEq26ID0L6mD0sEYKJOOCYFiZ/0d0SrnLzRO6DMSdEciRERoNAGgmBM+OtJZP4gyKKWB0Wk/E4fP8RkMihrpmAsGCS+glAj1O1IDutwYVrVtuSJXxjSFlvEk7U1Ug7fSREoIE/4aXDAy/L/3nSOh6967LtqZSzM0rlxX0SpjgVFunPhONU+UbOklvmu+MOp9tzRWBi8jyji0icLJ5XdMxrVonYnCuZokHDuFQP47Q9F9dV9MHO6lTlfuOcNDh0XnUL/P/zt/52DsTBMizRandR7GLgPafTX2B/VgkgcUAhHNfjyunjsTuO83tvyPlFxpmq4/b7hxRwapbxNNpthJR9UQg+xh7KZe67+QTa7JtKZVuf/ubddNcMLVoejrLuq5M+9ZI4ljwzzFaap2lXOVjCAnycwqS8lKzyw56ZnW9ML/mRvICHNt7cLKcWeOoYP4PvOQ1y3ZwLG31CJYZ5xxRmnPTi66lnQIDsxBDSyy1RxenaDLgwFljtbgwlqgrju9xjFodOG+WfaEk52sVjtLTpO95kV6g2NUm53I15VwHkiB1QRtWhFcoDs97WlPm8pnUTaVXgkr/EcgDZ9jNk88XB5IiouHg6HAO+93HmTvOVCKqQfMT1C0vU6Ytt/zYFJuPWzzrU/qAufoHJyLc3LuzsVE4j0TAwww18JrbVyvakS1P8dneG95UTzKrbRL6w896UlPmnm1Oxg66upsJjXnKJLjwXI/6zgw8TEqTIa6vNm3jgXnTfCKFhHEDG3nbUzVJiiuhWsC32Gc1HHjms8Xx1BrwXx3vX+O3+e7f1X428898n7vPvVzvN8+fz+dQ32t/X3+z3vTJoQcu3vKcPa8MoD7GbOzwWjV+l6qa73Py4NCLXIrTdX/uX6MbqmkjHitgynbjGQ1fIq/pbOa1EUjOSUoJOFKGKu6vE6rccIrrrCePBQhCeOB7GvrBFXOk4PkpK3KRTLE/vQIf6PKw17dov059vE5ZI39qi5hP/LD+35fSnDo1TR1Dur2HDwIHOWyNhjBUt/7wT1Re8XRxqHOuHM/OEk1peJ4Y4D5bM0wGNWMMf+nwQljjHOkne65lOFEYCjrzDytcHRw1hkD/c7pk4TAD8f6WPPoCDgXr+Y9E4z1gfbT3+36korfvUYIiGJUgeg1rVWnwbiCYybonTuPTD1Pr7s2zt3GQ+Nc7dPevG7f3s9hdA2jqI4L95C3TMpg9R46J/jpPN1XHkc1Ou2xYF9RD/8vUuVv5+4auGY2v9frZEy5Rq6VazYKfGcdjz7X787Jz6oQVHy/85ltHz+9Vsd1e5/2NWl/X31v2nDMdQFR0emux6wx5Bhsrrv7QqBrUyyyyelQo1uOy/5kFaVBdFnqbghhtHjOquyuc3+Vg736gefWvvV9m2fUe8v6HPtUWeMneWyfOifU71hKqFPWVdXWOwcvNL7HvXUv/LS5Vxp+iUaKrkkFtV89LvtwptIZpBIyskKYNMYWweJ9EKHhgQrDwftmaxscg8BTf+CBB05EBIvxNAzOH8NegzB/eIpd/3EpJjyfIk277rpr394uKYnSSUWwdBGkWIE8skbZ6aef3hx//PEl9VJkQ5qg/US5/B8v7wknnFD+JySCFeYPWS67QPQiDAf5Rbca13zo/ilt0JVVNkq/iLYo+aATiGBVPJfSQqW7qUMW0ZJir6yEYWwdRdEtS31I+wyJYE0CNYI1NgNLfcnBBx9ccmzDcFBspTcMq9gKuROIHkTKY9dIByAgeRUJy2GgGNcoQxgPJnVK0bgUI44akU0LVBpL/TCXgQXt8ynaBx10UFESKN7WajGBq+tTbC89UOpguJIYWGG+WLKDshydYHgYqeSx1Mhx4Lspl4whS5D0y1wGlnoiS7OILqq3IpPV5NlPvR7Hl9IAeoTa2RADaxIYu4GlQPX5z39+qZkKw6E2SVMFqRDDwNPlf6VFqUPpGhEAgtF5zCf6UdMKxhVBWcoYQ+4fY39c1993Ww9Mk5dRGFhqCCwHYeFSzVQo3owpjUakEqkJaK+fE2JghfmjWYXusmozw3CQheTxuDAf2ESUpO/1y1wGls6uDCypngwsGTfSAS3zwpiTsk3mxMH6X2JgjZ+xG1hh/ExKk4tjjjmmKK0hDMMwTS7mMrAoKNr5ezaMT5FVindNEQyzEwMrhDBMkwvMZmAx1CzFo5Pcpptu2hxwwAHl+awpgqJa4ZrEwBo/E9HkIoQQJgUTunquD3/4w6UmcBAFIYQQwujQpr/WWm2zzTYlSyWEaSIGVghhySFS1a5TULtgnRyRGGuWqQ/VWcs+UlF4ZkMIIYyeuiRNRW24NMP3ve99RRaLjJPR5HFtqx/CpBMDa4lTOzeNaxM1CKFLRKlM3vL21W3J59eB0OKG1rg6+eSTS42VRjxnn312KZ6WqmLxU5N7CCGE+SOVSuMg6yFazH3vvfcu8niHHXYo616SxVJ3OcTIagvUk8HqsaxlGMIkkxqsJYw6k912260U76+xxhozr3aHVCwFzZpdpAYrDMswNVhhtKQGK4QwbA1WGB2pwRo/qcEKpUj0bne7W/EIMXa63uD7++38FkIIIYQQwqSTCNYSRh7zJKQ88VBYyyqEYUgEa/wkghVCSARr/CSCNX4SwQrFqBE9GvcW4yqEEEIIISwWYmCFEEIIIYQQwoiIgRVCCCGEEEIIIyIGVgghhBBCCCGMiBhYIYQQQgghhDAiYmCFEEIIIYQQwoiIgRVCCCGEEEIIIyLrYIUQppovfelLZe2VDTfcsLnuda8782rokuOPP7558Ytf3DzkIQ+ZeWW6yDpYIcyfP//5z80rX/nK5qY3vWlz97vffebV0CWf+tSnmhvc4AbNXnvtNfPK9LFY1sGKgRVCmGp++ctfNueff37zm9/8ZuaV0DUWLd9xxx2bW97yljOvTBcxsEKYP+TABz7wgbL4+worrDDzauiSf/7zn82jHvWoZs0115x5ZfqIgRVCCCEsAmJghRDCZLBYDKzUYIUQwgD8+9//Ll7Cf/3rXzOvhBBCGAfkschZCJNGIlghhKnmD3/4Q/PhD3+4+fjHP9785S9/KWlqN7zhDYvn6w53uENzn/vcp7nTne7UXPva127+/ve/N8ccc0zzmc98pjnuuOOaG93oRjOf0h+//vWvmxNPPLF83z777NOsvvrqM+/MD7UL3//+95vLL7+8+dWvftXc/OY3b+55z3uW13nzbnWrWxWj7mc/+1nz1a9+tfnud7/bXOta12ruete7Nje5yU2aP/7xj81DH/rQmU8Lg5IIVgij4cc//nHz/ve/v8hYMpg8vt71rlfqglZeeeUij8kz8uuyyy5rDjrooGa33XZr1lprrZlP6A9G1Uc/+tHmVa96VfPgBz+4PLvXuc51Zt4dHnL2F7/4RfO1r32t+c53vlNeU092i1vcosjjVVddtcwlUtO/8Y1vNN/61reuktO3u93tivyWoheGJxGsEEKYABhJ6623XjFQPvaxjzUPeMADmvXXX78YHx/84Aeb3XffvXnb295WIk4rrrhis+mmmzbPec5zmutf//ozn9A/mmgw1kZZ78VoOvroo5tXv/rVRQkxOTt2Sv9rX/va5oc//GHZjzJx6KGHlgldM4mHPexhze9///vmqKOOat7xjneUfUIIYZzc/va3bx75yEc2F110UTFQ1llnnWbttdcuTqOTTz65ed7znldqtHDnO9+52WOPPZr73ve+5e9BUOPl/3/3u98Vo2gUcMCZM/bff//iyLr//e9fHFeceCeccEJzySWXlH2+8pWvNAcccEBxtN3jHvco84254S1veUtzxhlnzHxaWOrEwAohTD28XLyijK173/veZVt33XWbPffcs3gfDznkkDKp85r6e4011ijG1qCIjPGujcJTir/97W/N2Wef3bz73e8uisZGG21Ujs/E/uQnP7l0RsT3vve95uUvf3n57m222aYoJPaz/y677FLOf1RKRgghzAdymKwUvSKrRH0e//jHl852IjyME9kAou8MGNGhQSG/73jHO5aOhaPi29/+dnFqcXDtsMMORQ4zoMhhTXxufetblwjdvvvu2/z1r38t+4ieicyJwPnbPklZDIiBFUJYFPR2rfL3bW9722bzzTcvEac3v/nNZeKT/iH1oE6CvJO6EF588cXN5z//+TJxigx97nOfa37605+W6NdHPvKRYgxV2t/Foyk90ecz4nyu/9U6/thjjy3f5X+99rrXva58j5QSUDbe/va3l6ibibz9uaJZJnYeYV7RK664okziFJcKg9EEv8kmm6QmLIQwMcwmj6U9i/ZceumlzYc+9KEiO/3OaIEUb/LynHPOKbJUGh6kTjN+yFAOKVH/ubBsx2mnnVYi/j5fupbPI4tFoXwXuWsff0u3roheyRjgnOt1ojG6ROMct8jVYx7zmOLUq+fpp32e+MQnxtkVCjGwQgiLGmkkPKnSOqwR8r//+7/NK17ximL0mGxFt6T9MWje+ta3lgl/5513Lt5W+5177rnNs5/97JI2wuvahqEk5UXNAc/lTjvt1LzhDW8okSYKgf/nZZU+wsvps+WWq0nAD37wg7KJRs2Gz7Sv1sfOgcE4Gw984ANHFlULIYSFQO3Sve51rxJ9YgBxOJGZapk4td70pjcVB5UMBHK3OqrUR0qhfuMb31j+Z4sttihOrTbkORnNkCJj7b/ffvsVuS498aSTTirONDLU32S571SnW/GZommzRdTIV84uxp6MgVVWWWXmnatDFk9j3VAYPTGwQgiLGpO6TWTKpCjto6YH8pCaML/5zW+WNJanPOUppXGFOihGkUJVBtMznvGM4t380Y9+VP6vQhlg+IggKd42Mfs8KTJPe9rTSgrMZz/72eLR5JHlwaVgVK/nn/70p+JlXdaETHGgCNTzCCGEaYWsE3knO0XkRYHAWfXlL3+5OMJuc5vbFJkrvVCkiBz1++GHH14MKPJTE402ZCyZvfXWWxdZruEEmet19aobb7xxiT7JZrBxbDHU2o4pr/uMudLHHTNZ7PjtF8KyiIEVQljUKIKunkvpde0JVVTpEY94ROlAxbiSLuJ9m9x+ESQKgSYaJtWa2ldhSKmB4vmUZuj/TOhaBzOmtttuu/K6Gqp3vetdxRBrf/+Nb3zjMlFLY5kLzThqB6ve7w8hhGni5z//eTFUyF6GTDVmbnazmxWDSxTrsY99bKlLZVh5n8wUPRKNkkr9oAc96BqykJx81rOeVVL8RLp0Vq2y2HtPetKTiiNNCiKn10orrVQiXW3IewZUOx28DVkt+uV980oIyyIGVghh0WIiN5kysEzaJug2Jkxtuc8888xiLL30pS8tCoBJuY0JmsHVG0ESAdt7772LIiDVxeRbYZAx2nhF1VD5LtGrNib4u93tbs0nPvGJEmFr4xhEuMCLK6VFZ6veWitKhLoy5xpCCJMIecZ4kaZNXqrFasOQ2myzzZqzzjqrZBFI8RNx6kX0ijHWK4sZPC960YuKM0vnWGnXNVMA0g41BVLDpdssY46MbuM19VlatPfOAeSsGjENkvwfmd0rc8lmslhWQggxsEIIi4LeSc3kJ7Ikl/9xj3tc2Uya7U3uv6YT8uaPOOKIklpSDRjGDaPHfuqpGEPSWbxv8/oXv/jFUicgTdDEzphizGmO4ft5XXXJuuCCC0rr4t7UEwbZtttuWyJnagt+8pOfXPXZ0hEpAiZ8aS8Pf/jDSxtgqTHVM0thMdFLhfF3CCGMG7KIjGoj4mQ5CU0o1LSK8NuvylNyjiwWRWJc6TrIoIH3azt2kSlRKnWz/r9umgBpRqTmVhMMMth32tfnVIcXWStjQASrF80tLIGhnTyZWp1e5gKOOut2yXjQ4VVmgiib4/H9vkN6OAPS8Yaw4j777LPfzO8hhDB1mPx0dWJ8MEoYOQwfa5aYJBk2GlvwepqE7cewUjPFw6n42Xot/lcqHoPIRMl7akLXWdDEKl9fmqFoFKOG8cTTauJVsC1CZUKWhsLLqbmFSd3rjomR1O4ACO9LleFt1chCGiGjitHmf9QdUBj8n+8SXaOkvOc97ymGljWxHAelIIXVw0MJMy6MlSzYHMLwMG4YShdeeGExPhg6jA7rYmkqxKHEeILXyDIyksHDaCHXqoOKMUOu6dAqLY+MZtTo1ieqb1/PLTmtm6ro0Tvf+c6rUvzIf04z8lXEyxzg+HRtXW211a4RwZLFoEaX7OWYI5M1Jvr6179enGjeM0f4Ls4yc4zj//SnP11qxxwrR1ivnA+DwcAW5VTHPI11x/QA3YdX+M8gjtszhDC18B6KXvEg+t3Ex3DyezVwauTIRGw/HkaTodf9bX/71v217zWR6wJYi7Br5z/7+z77+Qx/Uwb8Xo9FSmE9DgsGM4S23HLL8j+z4XgoBTUK5zhMLPavaS4+2/cQ3va3j+/wvX4Pw+Me6VSmFk/KaAhhOKosI6eqXK3yuFem2ce+VY75vcpt+9hXVN9SG7q6SvP2vtd9VpX79vf/5KPX1Gx5zeeTxfb1ef5W4yU9UWp2PY42c8lZ3+lnpe5jTrGPre4z2+eG/tGFV8aIejn3ddoQIdUgK7NyCGGqqRMxj5c6qbrIpZ9qrurkavO71+1LcNe/7W8i9lqdHE2YjCqfYauTqN99j/3r3/Xz7K9xhYmZt1VkRGcsHtR2c4te6nf5X5vjaR8L/O4z6vH7WY8hhBAmgSrLyMgqp6o89rr3qzz2t328TxaTpVUW130rZHx9nxz0/1Xu+2yv+T9/V1nudwaPiNT3v//9ko3AIKK8t2Vrm7nkbNu4guN1LHUfx1bnmhCQmTmEEGbgvVRLxSiSpiLyxFgaFJM5j6tiaxNzTUcMIYTQH+pZpUuLCGg8odEPGT0IIloWGt5xxx1Lg4sNNtigGEwhLDRJEQwhhBlM3lJS1FFJ/7BulnSFQaNE6sJ0/OMt1TlQVCpMLkkRDGHyIEc5uWQCSNXWop0sHcRZxUFmzSufIXJVa2PD5LJYUgRjYIUQQljSxMAKIYTJIDVYIYQQQgghhBCuRgysEEIIIYQQQhgRMbBCCCGEEEIIYUTEwAohhBBCCCGEEREDK4QQQgghhBBGRAysEEIIIYQQQhgRMbBCCCGEEEIIYUTEwAohhBBCCCGEEREDK4QQQgghhBBGRAysEEIIIYQQQhgRMbBCCCGEEEIIYUTEwAohhBBCCCGEEREDK4QQQgghhBBGRAysEEII4T/861//mvkthBBCGJ4YWCGEEJY0P/nJT5q//e1vzW9/+9uZV0IIIYyDf//7380///nPsk0zMbBCCCEsaW55y1s2f//735vrX//6M6+EEEIYB3/+85+bv/71r821rjXdJkoMrBBCCEuaFVZYoaQHTvuEHkII047I1WJI185sEkIIIYQQQggjIgZWCCGEEEIIIYyIGFghhBBCCCGEMCJiYIUQQgghhBDCiIiBFUIIIYQQQggjIgZWCCGEEEIIIYyIGFghhBBCCCGEMCJiYIUQQgghhBDCiIiBFUIIIYQQQggjIgZWCCGEEEIIIYyIGFghhBBCCCGEMCJiYIUQQgghhBDCiIiBFUIIIYQQQggjIgZWCCGEEEIIIYyIGFghhBBCCCGEMCJiYIUQQgghhBDCiIiBFUIIIYQQQggjIgZWCCGEEEIIIYyIGFghhBBCCCGEMCJiYIUQQgghhBDCiIiBFUIIIYQQQggjIgZWCCGEEEIIIYyIGFghhBBCCCGEMCJiYIUQQgghhBDCiIiBFUIIIYQQQggjIgZWCCGEEEIIIYyIFf7xj3/8e+b3EEJYknz5y19uLrnkkuYvf/lL+fva1752c5vb3KZ51KMe1dzlLndpVlhhhfI6Lrroouatb31rc9Ob3rTZfffdm7vf/e4z7zTNBz7wgebkk09ubnCDGzQ77rhjs/rqq8+8EyaZj370o82jH/3oZt9992323nvvmVdDCIPy3e9+t3nXu97V/OIXvyh/r7jiis3Nbnaz5kEPelDzgAc8oPyNf/3rX81nP/vZ5qSTTmp+85vfNNtvv32zwQYblPf//e9/N9/4xjea173udeVznvKUpzQbbrhhc61rJSawFLjlLW/Z3OlOd2o+8YlPNNe73vVmXp0efvvb3zZPf/rTE8EKIYR73/veZfI/66yzyt9rrrlm84Mf/KDZeuutm6OPPrr529/+1vzzn/9szjvvvOaMM85o/t//+3/Nt771rWaLLbZoPv7xj5f33vGOdzQnnnhimRj8LwH7/ve/v3xeCCEsBVZaaaVmvfXWa974xjc2n//854thxZj63//93+Y5z3lO87Of/awYUF/72teaN73pTcVRxYG11157FWPr73//e/OTn/ykedvb3tasvPLKxdn13Oc+t8hS/xfCtBADK4Sw5DHB3+IWt2hucpObNPe9731L5Gq33XZr7n//+xcv6re//e3m97//fXPd6163/H3QQQc1RxxxRPGuMcr+8Ic/FM/rq1/96mb//fcv793xjncsCgPjK0w+vONR4EKYPze/+c2L4XT729++ecQjHtHsvPPOzS677FKMJFErz9mPf/zj5v/+7/+KLD3uuOOahz3sYc0HP/jBIkvJYw4qBtnLX/7y5na3u12JjOX5XBqQxe2skWklBlYIIfwHAr0t1BlTUv3++te/FiPpRje6UfHM+mk/nto73/nOxbC64Q1v2Ky99tpFsfCeCBfvq4kiaS2TzZ///Ofm7LPPLmlM//jHP2ZeDSHMh7bc8/utbnWrIkdFqCBL4K53vWuRl+TnAx/4wCJz/c2gkqKNmq7t/bZ8DosPkU5p9hyd5PG03+/M/CGE0IKSTem+7LLLmi984QvNJptsUuqsTPTXv/71Z/Zqmj/96U9lv8c85jFXvVcnBK97f8stt4xS0AG83mo2TND9Yt8rrriieMkvuOCCYjA/5CEPmXn36vCc259yyOD2s9eb7m+ppH/84x/L/adMxuMeljKeAc/Lj370oxLNv9e97lWyAhhcjKpaj+U58Qzf7373K6/D8yZrQBqhjILVVlutvB4mG/Pnd77znXI/+8X9JzdPPfXUIo+vc53rFAP8f/7nf2b2uDr2r2OrOkB7Za3XyGGfO5u87oI0uQghhP/wxS9+sXn2s59dJnMTP0+aGqynPe1pJWrVxiSiKcaXvvSl5nnPe17xvFYIdqkwl156aakdmGuSCKPjzW9+c0klEom65z3vOfPq3Pzud79rLr744uaEE04ovz/ucY8rKUy3vvWtZ/a4Oj//+c+bT37yk6Xg3r2n/N3hDnco6U+ilibvr3/966X5CcOcUb3ppps2W2211VQWaYcwH371q1+VpjGekYc+9KGlnmqdddZpnvWsZxVHRi8cHccff3yp0xLVAuOK40PNqxTtl73sZaXmtS1rw+ThXmkUZB6VAro8GD9q9RjSUkTXWGONkp7/4Ac/eGaPq0P+fu5znyvyVlMq86051v5kP2cn5+aHPvSh0mxFainjnHwXGe3C4ZkmFyGMCA8whfrd73538573vKc82N/85jeL4LB95jOfKa/X9+3rNYrdXJhcLrzwwqs6MYVuYFhpeLHuuusWL5q/exVkyjQP3fe+973S3ap3wqeMu/9PeMITYlx1BC+l6JGJdVm4d4rr1X3YeMv32Wef5vnPf/6cxtVPf/rTsq/aER523cxWXXXVogy85jWvKd/p+z/2sY81d7vb3cpELj1UcxTP+VKiVxZ++MMfvkoWUoxc+/e9731Xve93TWJEOHo9zJQU19S+9vPZg0Qow/hRg0XR5qByP6V+9fLrX/+6ectb3tI8/vGPLx1bKze+8Y2bJz3pSaWuVX3WO9/5zmK4hcmGHBY5cr+XBx3o9NNPL/KXrNhpp52agw8+uDRGmQ1yhMFtTBgf5mmGO9nxyle+ssgSkCeMr2222aZkkbz3ve8tnWJ7ZcxCEwMrhHlCMfv+97/fHHrooc3ll19eFO8DDjigKG7C5HLPzz333ObYY48tqRGUbp4VHg6TBg9MG3/zyGv3nQmlewhuE7rowymnnFIiW21MHpRInlke2jaUSF5X7dnb7dvDZCAqyat6zjnnFEPpta99bbPxxhvP6RU3SZvMjQHGtDoQHnj33sTt+dUtzX13z3nY1ek94xnPKM89o2wpQRZK1ayykDe7ykJGKIWbIuU1ziOK91e/+tUSOebBtg/IwI985COlbf5LX/rS5vDDDy8yNum20wXnlGdmjz32KAY15dizUuGc0Jn1kY98ZIlc1JTBimgEp8V2221XlGMKdlgcaM3v2T7ssMPK3+ToM5/5zCIj5nrOP/WpT5UGUhtttFFJ3V9llVWae9zjHkXukreyGBhtaqOl7otq+alxFVkeAyuEKUMjBKFnDy9vncmA8USZo8BROnRUMnmYRB7+8IcXj430IkaXUHd98CkWvDDWZeKt7VogLGVca5vrzgh+4hOfWFIO3CspLF5n8B5zzDHNbW9729KO/Ze//GVREEU5TBiiFry0BD/PrPd0ywrjw31zf0SbpCgxkBkAr3rVq0qnx16lrg0jgRHluW2vh8ZRYmJnbL3+9a8vEWe1JcaNfRjpnnvNTpYSvbLwqU996lWyUDqmZ4MCRdlxvVzXHXbYodRdnHnmmcWoIgM9OyLBlC/OKc4mNRkxsKYHz53Ns0IZFtkVrajLWjCuzj///DJmyFn3XLTT6zUK0pbJ9jGPhunFveREEVGSQspRKT3bM04WMMjnesY5q61B6f26XlpFJgJjii5lTHGYVVlMNpNJnKbGYpfEwAphBHhwq2Dwk4KtNsOEgd4Hm3CgYBAaFAkQPqJfPMDqN5al+IXRwlCS1+1eiDrwvGvbTiF3j3japGxKX9CWXQTEui08s5TAqsBTINT21Pde8IIXlCLcMB4oahQ698P9MTEfeeSRxePZD1JBpbqoC+l9himGIpjuvee24jn2mvEj0rXUIP9mk4WeKcwm10QpXF+pPZRpNRnSA9WzUbQZq1J2w+QjgkCGcjhJ6/zKV75SDCoLr2tywbEhys9o5pxQn8WJpV5VKi4nlpRQkQqyVIqocWBO5LgI04vn+6ijjmr23HPPIh9f/OIXl9o68mF5mIeNJ4sQ6zDYhuzguNFoityAeVdaoHFkXh9H7V4MrBAWAN44ioGHfjZ4VXhxCIu6D4FAyVfnQfiE7qC8WWhYHreUMcozoS29RcRq++23L/dJusF+++1Xml9IIdx2221LQa6UBKlh7ffkfyv2XWpRjEmBcSXtxCQukihNzWTunvbrvJCSxGCaTbn3GTyuUp58V8VzLKVQhLq2ml7KVFnIizwbrp+0QcaYKKHran8/pei+6EUvKgo3JT1MPtL6yDzRfOm45jL3llL8kpe8pNl1111L5FjjAY4PspW8fPKTn1zWy5LqJTvA/hRjSrP6LPtXwz1MF2QoY0dDqNNOO63UTTG0zZX9Gs0cL+SxebnX2QURKzKDIQb7iHgy3ny3722np3ZBDKwQRgQFgJdWYbvFaE0scoorvC+77757SYmhqH/6058uyoNaHROHtECfkYmke6QuMbAYV1I4KYMENGVB6oHXpTCIgEh3aW9ae1MG1lprrWu8p7bAZ4Ru+cEPflCiVHLyTeBqP6SqMXgGebY4QHg+f/KTn8y88l9qmpOxI8JSYVzx4nvG+zXkFhtVFuq8WGUhuVdhQFmQW1G7yATHhg5ynhfPnbQh/8fA8rfoY42AhcmGc0qk6rGPfWxxOkmjJQPdR81fpIaRpe51r7wkezkt1MxIG9XBlVytawqG6UM6MGPKvRSJfOELX1hqKjWTGkQ+GhfkCOc0udsLmcKAql1kOcU0I2LUky3Sjx1Ll6RNewgjQAGv9AYKA48JhVskinJHGEgt40W3FoiJwvpKvOvSjwgACj2PH2WDEqj2w/vSzOqkExYG6V1SF8YNQ22pKuTzRYtnk7hnRvMEaShSlBg5GijMFUleHsYFJwkFUQ1RO5XFe+pKeNzVUjLEOElEpjXE8LrI1jhSU8aJVFoG02yyEO4R40mKmNRAhpP6KwXsIhgU83bEkHHL8+2acnRE0Z5cKLDSO8cJBwqjbq6IaVhY6DmeVzWTGgGRzWSimlUZHWqhhnEgM56sk6V+Vmqphf3r53iPbnXiiSc2b3jDG4qBXhE90/HV/5oX6jprCwm9jkMvBlYII4CBdcghhxTFQgpSm2pgaVFMCNQ1lRRkqvGhNPgf79UiXh5w7+tMRijx4IWFgTeNgjxuGNVdCP/FSDWwTOrWJhMV5rU0Cc/HwJGWYnL2/Epl0jaas4MiKSomdU2nO8+n3P93vOMdxTPPuLKPGkyGxlKCgaXObTZZCAbWcccdV6JTvNigkIhYMGT9H6OsjXvrnopyxMCaXNQsSv8aJ1LFpAWLmITuqQYWuUuP0dSC7JQCSi7Oh5/97GclDZ+8oG/VNdVq51I1r+St7xXR0oxKNF2dn8iX4+iiljMGVggjZBgDS9thhb9SJqTP1BbFEEqnhDCuRDZMGmFhYGCJTmhIIT2za3jvLZAbA2t4KPQ6dooASg0UCTH5jiLVlneUV94iwryh6kOk+4rIqMHjmRW5UqTPoJIiBRM7g+AVr3hF+XupMIyBxRjlbHK/ZjOw1EFS3HmmR3FPw8JQDayaedE1apgZ4zGwxofsHLV3MkNEqNW9Vh1mvs8u+StDwXzpXmugoy7rhz/8YdGjpPCTy5a5sewDh5u/yZPNN9984BTxYYmBFcKIoIBpH0pRZ0gpbqfoeZAJBEXeBx54YJl8eNoZWAoxra9DceMBJ4DantlLL7201I9IO6w5xWFhcN+kFhDI0he6xPgwDtSYxMAaHkaMtDNREHWOCxHlYARIa+NIUcTvWY7Cf3XIQh02pTvPJgu9z1hScC7NR60OQ1RXOc8fw5iiZG0kdTqMZAXq0gQ1jenC+xyGpxpY7r86uq6xyL/IdQys8aGDJAOLnkMWVIfTKCFLRMp0I6QrqWWXCl7lg+iV7pUiWZw4IlldUg2sxNpDmCciUdp8m1jUE/BuSy0ChYLirAZEwaVohVbeNkoaI0oThV6FUHG9z5tt5fsQwtXhpZReZu2lhUohkxoo4swQYBiIRvPWMhDClZCFUnGqLPR3lYWuk1QeBpeFQq2NJc2S0Sr1R9OLzTbbrBhjmpSIKqun8Lf0ohhXIUw+DCrymLNyIYwrkAkMJ04axpylODhl6GHQeVJ5BTnUtXHVJhGsEMKSJhGs6afWYL3lLW+ZNS1t1EhTkRYoquWeSS2NM2R08EAz1FzbPBPTQyJYodZgqYeyNMZCI0XQd2o6pO7LkinWLRwniWCFEEIIQ6BYW/toyqQFw2MEjBYeaPUSua4hhGUhsi07SP2VmqtJWncyEawQ5oF1XiyWmDSh8aGeTYMQytgw9TC85f5PkwRCukvaESxpFcOmt0mx0oFyXAtU89i5B7ULZteIJFngV8pZ11HIcCW6nmpb7z6E6cSyAurdNAUYZskI8yB5PM4I1lOf+tSSzjtMYyjyWN2OdONpXSTcPTQfiKgPcw/nizGgsZf7b15biqTJRQgjQO6v9KQYWONDnZs0gWFR76ERCaVAbUiXtA0sqW3DToh1vSWe/3Fg/DNUxzGhg1Kok5TuURorjAK1Qz7XVp9vhjiPqYWF5fbPdr7G0o9//ONyb3lT1SFQOKoBLfXtW9/6Vhmz/taVsK3M+T8dR63jJc0G9pVCyoilPN7nPvcZ272eC8cnTdNYDNMLA4MsMQ4HhaNDB9xxGlhSAz13w9beGL+e8YWqH+oCRi4jcZh7OF/IuiuuuKLZcMMNy7pTo8LnSkFtd1smfzXTqHK2F9fBvMDpY100cvtXv/rV1RwIakVr7ZbPshyEa1fxPFg83vzMieuaSkd0LOS377a1nbsxsEIYAR42ClUMrPHh2lOG20JxEESutOAedw2Wov9hJ3VGJgE/7DWYL64/I2A+a07NB4tIKngeZQ2WczIZn3XWWaUpjQVwfTbvsDWv1F1ZV6XWXpn4zz///LIOl+6C7qXJnXzQyl37eIqbfbQip4yKOOoUqtFN5ac//WnpisUDrzMihY/h6B4bnz6fAadr1qQt38AonI+zI4wfiuywxrumJsb5OA0s6yBpfLDVVlvNvDoY45alo4CziyNmHFiqwlpV1gMcZQ0WI4mhoyMzQ8eahAycT3/600VOq72zoLnX7PvhD3+4LJ+jCzOD6uc//3mpnWVY6TRLPpPZOpdqvoMnPOEJZWmc2lDHWDj33HNLsx112pxhHAhkuG6nZLNFlB0LGV+JgRVCCP8hTS6mn4VscsHw1T3Q5z/+8Y8vr4lcawlv7StrYVFojCNrs1jnSRfQCgOeh/T5z39+mfx1DhUpZVxRgnQYrcqcCVunUeNBlyxrRRkXL3zhC8ti2CZ4EVcTOiVWp6wQJoU0uQgL2eSC4UL2SUU3XzOSGEG77bZbMbLMpXe84x2Lw1SXV+vx6fhaseCwOcJ84TP8TnYzBiHKJdOgwmFA9jKqLrzwwpJpwDl285vfvKzbx7l72GGHFYPugAMOmPmv/xpYaXIRQghhqqmpMAsRSWYUtdM/cJe73KW5wx3uUKJJ+NSnPtW8+93vLjVIbeMKPOkPetCDyrG9/e1vL8s4+J2BxWBqe8opJ6JAdQFeUCAYaB/84AeLAeZ3hlmM8RDCpEEW28ithaA3LZv8lBbOGBKlktIt4qSe2kLEbRj9m266aTk2WQAcWHUBZDK9bVzJMLj44otLE6O68LmsBsaUDAbRMPtI+db0aDZiYIUQQphqpDUxWi655JLiyVxopMEwdFZeeeXytygXo6dtGFUYUg9/+MPLJK4RhJx/HteXvexl5XMqjvt973tfiaK2W76b+P2/xZR5ZaWkiKj1Kg8hhDBuGCBS7ywAbCmL6vxaKNRZWdxY9ElUinwkm6Vw11S/CuNMqrdaK44uMptcFY0S3apGobnkoosuKqmyD3jAA65ysNnfWotqaKUqWiCd8SUtdjaSIhhCWNJI7VLrQpEdx1pGPG7qbpIiODxSkhRUmwile+jsydjpjTwNg7SjbbbZplljjTWau93tbmXydq/WXXfdZs899yyF01tvvXXZ95hjjpmz+xjvp9QRyoeIl1RB67U4buPO/0r58z0veMELyr48rBQU3ykF5R3veEf5Lqk3k9bkIoSaIihNay6v/kIi+kueJkVwfEin22OPPYrziANKjRMDZBT1uWSilGzGkQgV2SjqL7JvoXKOKGnb6rKkZsscmAupgaJPxou0bhkI5pH111+//P/73//+YngxFNWUkcXW2PJdarvU+clAOPjgg0t7eJkOlZoiuOJ/BPV+M6+FEMKSgzA1KYiCaEjQ9VabQ6gdGFeTiGnn85//fPOJT3yieBcVN4tkMbB4NWdL8RsEkzlvpuLnZz7zmeVzpZeYkCmSPKWaYFTv6FxGsmNgFDGmfMZKK63UnHzyyaXBxfe+970y0avxknZiAqcAbLLJJuVzFWEbp77rvPPOK2kx/q89qYcwbnRc0xRGFGM2WbfQm2dGXQ4ni2cldI9IPPml9olcIyfNrVLtzG/zkcXG1TnnnFPkrnor91lanwwC36Xui2HEYUl2SuOeC9Etslq3SU4tn6G+9SEPeUhpbMGR5bNlHHCyPeYxjykRMvJZqjdjjt5g3uFsaztnHaeIWCJYIYQlDYFpGzcEdBTm4ahNLngZde7jkdTqnBeRx5MxU3P3GbQiSBSwfiKWJtdnPOMZpbi5NrmQfy/KxHv60Y9+tHT90/jC94pKteFlFb3qNfREsp7ylKeU6JhjNVlTQOyvtkuaynbbbVc238VjyjDT7IJhNo6mLCEsC2NWVGCceMakck1ah82lQrvJBdmr0QTjRWdVjYFElWr0naxjwBg37S58c1EjWFL8apMLcICJXMlc8JmyAWQIbLzxxtcw6Mhi9M61utCqcxVxk9HCieV/ZQ985StfKYaX7yb71XtJ8eb0IvtFsHxfpUawMpuHEJY0JmN51OPeYlzNHwYKI4ix9eQnP7k57bTTymTPiwqTrxx9bXpNwnWyHRTKmxQonlmYyBnpvqf3MymcjCdezTb2k15oTSuNMKSjaDFtYqZsSEcREZNqwysshZUHVf0VDy6jLIRJghNjNtnW5eYZiXE1GXA2qVVihDBKpA5K3dOMAjIBDj300GJ4MUqGRVq2iBR5rIkFuUrOV/lcYcgxiuZyAjCUVl111eLMklFCHpPtGheJaKl75fyy7hUDjNFlniHfZyMzegghzEDpFYnQtr2tEHtdLrbJQCRDCgJEQo477rgSVRBFIbwJdS1decFsvGJZG6g7KHkMFHUYRxxxRFm3Sot0OfpqpzSKUKuhnukzn/nMzH/NjXHQazQpqnZfrYUCE632wcbACSecUFKlYJxoGWwyplSIcPGAGg9SSNZaa62SSmNbe+21yybtRWojA05ajTQXnlQKCiiPFEmGWQiTjGYAWmH3Ks+izDz+GgxwFHB8eCalf5GlNqmGogcUWs+V16wHZ78wHZBbmvyQjdKoRbFEiqRai1yRgVK6pUCrf1oeDKReRxVjSeaCbAQRfcteMJDM4+ZqYwhSSMnmmpIv6mX+hu+XYihbgDHlc6o8traWiJk0QvMKeazWEOYa0bi5lgZJDVYIIfwH3YgYRtIM5PLzhNUuRAynM844o6SKyctmOPF0SdlSO8NLpzjW+kb+R5oExVpN0HrrrZfaqgWGoWRC3XLLLcsEa2J3H6zKz2AxgZpQ5dabHCl0JmabFr+zNYzQUeoLX/hC+R9GM2VRe16do/wUKdt1111LBNR3MbIoEDynlEodAeX0W7xScwzfa80U/89YZ1SJXNXUxQolgiHomIwdCgqPLOVSlIxSwDDTTKA3/SWESYBDggNCcwCLw9bObZ47spHDQ2qs55ODiuIqKktJ1jSAA0PkmaPBaxwTUmpFEdTMZNxPLhxIamBFeRgoIOOsHWV+dO+kVTO0/CRnjQsOJA4l42C2+yuKT3ZK1zM/f/KTnyyy9swzzyxjS5SMoSMTxLgSjSJnpVOrCTMHGIcaCTHS/J/1BslyTjhGHznbi/NhDGqq4RxEsXy341Cfy+AX7arpivD5qcEKIYQWOgQRtASkCYDQ9JpucdIdvGdCkOpAgEvnokBI79LlbcMNNyyKOKWcEpwamW6oNVhzLTQseiSVw71pw1v50pe+tBhLXaRo8qZSFKS0UBwHURRFxSgCDC4TfZTMMOlI0dWURVoYw4hizMngOaDc+ltHTM+eaJYxvsMOO5QoA4cWxfvss88u415qbO8ac2HyaNdgzbbQsPlUNNL9d38rxgAD6KCDDioR+oXGHM+o4yAzNqsztR/oAJxnjplDr/d/U4MVQgg9SOUicNtIZxE14FkTiSJMCWRRExEFim7deLR4zERFdHkLk4E0IykivVD03K/eXP2FgoLIu6pOZFADiUEmEsbAinEVpgHprG3HhWiA6JSIlagGB5baQp3fUMe1n55JWQBkrMYDMa4WB+Sw9bF6EfX8yEc+Uuba3pTshcDYJE9F2gYxrkBPMG7VyS7rf2NghRDCMrjiiiuKZ7VGHGx+58HijatIQdA8QUoYA2tQoR0WBl5K0S2Ro9lQoHzqqafO/BVCGBVVXlZ49j2HnARgfInGMrzaSJNVg8XIEgnoIqIRFh6RSd3/pOy1o1cV40O0cxK6+o6CGFghhLAManSjRrYoDIwnk0WdJKS6mDgUyvLQeS90h4iQqKL6uDbuj/o59RuUumr0Uuyq4ifdQ3qSvHq/hxAWBnJRdELNTMUz2RuxkAmgGQ3Dy7MbpofaYXW2BdelassmUOukxrQa4DXKSV5LuZeeryZ62omBFUIIy4DSLiWgKgEmAZErE0SdGBhf1jSS/iXv3LofMbK6QzMINXAKkNuYvNXFWZTS+xYL1phiiy22KPVx0kOkffKYe09HqxDCwuBZs7UdGWpheqP9d7rTnZqnPvWpzcUXX1ye3bmiz2Hy0GVPF78nPvGJM6/8F0aXhlDq8HR51Z7dvKmBxD3vec8y15pf1Wepq+0iVXAhiYEVQgjLwGSvVqCunWECkMpQa7JAkddR8KijjioThe5Z8slDN5i4ddVr13tUTNq6U+kKqduTLpH77rtvmcR15tPtSRqSVFCr8ocQFgap1bZaD0mBZjyJeLRhcOkyqPZKtzeNaGJkTQciWBYTllHQC0clJ9i6665bDCuGGEOLwaVTpDb9MkHMpzoGTruTMgZWCCEsA8WsD3jAA4oCLnLF+2p9I93qTCZgdJkUdBQ65JBDyk+dBxV0i46EycA9MslLUZKm4t5aT0qUi9LnvRDC6CAbKwyp1VZbraSBeV1qtRpJNato7ysrQEdBDhFr1knjZWS19wnTC1nMISYTRPq2bALNTxhfHJi2ab/XMbBCCOE/MJx0DNQS2ETud6+ZBHhTrXel+9GHPvShUpgtLc0aGNrSaoKhBbiaAdEU3jnKg59ahzPOYmiFEJYKZKFaKo4LP0UjKNOaAHlNtPj/t3fvsVuP/x/Ar3QkRQcVOmCYQyTCH07Dt5V9Mn/ImPmjWeY0m3+YmezLzMYfMcbWsPGHGHPOMMlhIpLDIkZrjYooERGlft/nu/vO5xs/VO9vfQ6Px3bv/nyuz33fn/+u635e1+u6ruyPzCrWxRdfXE1e5a64nOyZR/rT9L/pe3PHYC6TTXlZ7jbKl29o61w0DPAfGegTlFLakMsI85zDE3KccFaksurx5ZdfVq9taWkpI0aMqDbi5otBXp/fc5Rw7969q5WQXEScmdmUqOUUrPztz0rY2Pkyi55ywZQZNmfTgW2XvjR9Z1as0pdm9Sq/5+fcKZgDgTLplNXjlFXn5wSnlJDljsGsMGdlI6sY6TuzZzLHYiek5bPyTMd06623VmPv5MmT22VVgYuGAbZCAlhmYfMlQSlZxzJ79uwybty4am9WDrsA/ncSmpr7a7LfKuVi0JRAnb3PWeXc8l7K9iATBS4aBviHsvqUPVfCFcC2S6BqnigoXNFRCVgAAAA1EbAAAABqImABAADURMACAACoiYAFAABQEwELAACgJgIWAABATQQsAACAmghYAAAANRGwAAAAarBmzRoBCwAAoA7z5s0TsAAAAOpw8sknC1gAAAB1EbAAAABqImABAADURMACAACoiYAFAABQEwELAACgJgIWAABATQQsAACAmghYAAAANRGwAAAAaiJgAQAA1ETAAgAAqImABQAAUBMBC4BObcOGDaVnz55l48aNjRYAdob0xT169Gj81n4JWAB0auvWrSuDBw8uu+xiSATYmYYMGVIGDRrU7ie8jCYAdGp9+vSpZkz79u3baAFgZ+jevXvp2rVru5/wErAA6NQymHfp0qV6BoDtJWABAADURMACAACoiYAFAABQEwELAACgJgIWAABATQQsAACAmghYAAAANRGwAAAAaiJgAQAA1ETAAgAAqImABQAAUBMBCwAAoCZd1q9fv7HxMwC0Oz/++GOZP39++fnnnxstW2fRokXljjvuKC0tLWXs2LGN1q3Tq1evMnLkyNK3b99GC0Dn8ttvv5WFCxeWZcuWlY0bty1eXHXVVaVfv37l6quvLt26dWu0/nO77LJLGTFiRPXIzzva999/XyZNmiRgAdC+zZgxo0ydOrUKWtsiXwoSznr06FE9tkWXLl3KlClTyoQJExotAJ3LkiVLyk033VTefffdRsvWSz+eYLTrrrtW/eq2OOmkk8oNN9xQdt9990bLjiNgAdAhrFq1qsyaNasa2LbV0qVLy4ABA6qVqG2RLwPjx4+vZl4BOqN169aVefPmlU8++aRs2LCh0bp1VqxYUT0PHDiwet5aCWVHHXVUGTVqlBUsAACA9qwZsBxyAQAAUBMrWAB0OGvXri0zZ87c5jKVv5J9Wik/2XvvvRstAPyZHHbxxhtvlJUrVzZa6jV06NAyevTobd6vVTclggB0WA8//HC5/fbb/ycBK3X9EydOLFdeeeU2nXIF0FksXry4TJ48uaxevbrRUq9hw4aV2267rQwfPrzRsnMJWAB0WDn44p133in/GeMaLfXp2rVrOfjgg6tjgNvKrClAW5SDL+bOnbtdhxD9lRwsNGbMmDYz2SVgAQAA1MQhFwAAADWzggVAp7BgwYKqVCUXC2+Nww8/vBx//PGN3wDYHmvWrCnPPvvsVl8Ov+eee5aWlpbSs2fPRkvbo0QQgE5l+vTpZdq0aVu9L+v0008vN954Y+M3ALbH8uXLy4UXXli+++67Rss/s8cee1T9eIJWWyVgAdCp/PTTT9WMaY4N3hq77rpr6du3b+M3ALZHTnf99ttvt7qaICe4DhgwoHpuqwQsAACAmjjkAoBOLzOpKRnMUcJ53trVLQC2X/reZl+cR1a32nN/bAULgE7p119/LY888kh54403Ng/kRx99dLnooouqnwHYMT788MNy//33VwdgRPZbXXrppdV9g+2JFSwAOrWsXi1atKi8+uqrmx8Z5AHYsRJM5syZs7kvfvPNN6u29soKFgCdVlauWpehdOnSpXoAsONs2RdHe+yPrWAB0Oll8M6JVM2HcAWw423ZF7f3/ljAAgAAqIkSQQA6nF9++aXMnj27fP7552XgwIHllFNOqdqygXru3Lnlyy+/LEOHDq0uEW7ecfXzzz9Xtf8LFy4s3bt3r96XizBzf1ZkNjV3YuV9o0ePLnvttZcVL4C/kL2un332WXn//ferUwKPOuqocsghh1R9c+7CSn8cJ554Yjn88MOrPjXvST+cPjx3F/bv37/qk7/55pvqb9GjR4/qwuHDDjus+rz8vS1olgh2vf766//daAOAdiv1+6tXry5PPvlkdRrVoEGDyqhRo0rPnj3L888/X5555ply0EEHlRNOOKF8/PHHZdq0adWAn9d069atGqD322+/8tJLL5V99tmnnH322dVJVjfffHPZbbfdyr/+9a8yePDgsmDBgnLPPfdUXxoysOdvAPwux6x/9NFH5a677ipLliwpRxxxRBk+fHgVnB544IGybNmyMn78+NKnT5+qP81priNHjqwmtlIemAuF4+mnny6XX3559f7HHnusvPjii2Xs2LFVsMpJsGl7/PHHq8/JiYM7e9IrE3kZg5QIAtAh5O6U5557rsyaNasakBOQMiN67LHHVkevH3PMMdWg36tXr3LaaadVA3kG7wSq5qxogtawYcM2D/L9+vUru+++e9WW9x9//PHVZ+WR1a4777xz8woXAJskQCU47b///uWyyy6r+s70x2eddVa54IILqmqA9LsJVWPGjCnLly+vJsZWrVrV+IRShawhQ4aU3r17VxNlmTTL+1JBkP64paWlXHvttVU1wR133FFNerUVAhYAHULKRxKYUoKSQb21BKdx48Ztbk94Ou6446pZ0KlTp5Z33323ao/Wm6vzvOWMaD4rXxbypWDGjBnVLC0Av0vFQELTySefXJXztZaV/6xepS+NlGmfeeaZ5b333iv33ntvNVkW6Xtb98f5eUuZDJswYUL54YcfyoMPPlhVJbQFAhYAHcL8+fOrvVUJUV27dm20brpQOHupUkKY9ubgndnRXGSZVapbbrmlfPrpp384Jvj/k1nUlBZm35a7swB+l7Azc+bMqqQ6/WwzIGXFKnuqsk8plQEJQ+lzE5xOOumkMnHixPLoo4+W6dOnV/32P5HPTml3/lcmyvL5bYGABUCHsHLlyqoEcMvNzl9//XV54oknyhVXXFHV/ud1TTmwYsqUKdUgf99995UVK1Y0/vL3UrYS+TIBwCY5TCiTWpnQar3qtHbt2vLBBx+Ua665plx33XVVIEqfHVnlOu+886qVrIceeqg64OKfrkblvXnk/1rBAoAapcwkg3Vq+FuvRCVEZXY0JYTZZJ16/dayefqSSy6pVrCyYbq5H+vvNPcKNDdjA7BphT8rVFmpSqhqyoFAKa9OH5tKgoMPPnhzmWCkD8/+2SOPPLKaDFu0aFHjL38tlQTZC5tqhOzVagsELAA6hASlHNubUsEtZzEz6GY2NYP5lnuq8nv2CZx77rnVzGkOr/g7GcyzXyAnV2UvFgCbJCjl2PUvvviiOuyi9YRX+uBUGeS5dSl3UyasUm2QybK77777b0sF89kJYtnvdeqpp1bBri0QsADoEHK0ekJSyk7mzJnzXwNzswylKYNy65WqlJfkRKqcLvjWW281Wje9rvWXg8iM7GuvvVYd9T558uRy4IEHNv4CQCat0henT37qqaeqsuxmP/pnfWr64tZt++67b9W3ZiKr9Z6qLasL8p6lS5dWB2pkH9b555//hwm0ncU9WAB0CJkNPeCAA6pVrFdeeaU68CKzmosXL65WmzJrmpWq7Al4/fXXy7x586ovADkGOG1Z5cqpgplxzXNmYd9+++3ywgsvVH9PSMtMafYG5GCLM844o5xzzjlt5oJLgLYi/eehhx5a3XuVqoKErNyHlVNXc8lwVv5zmmCOVk9ASj+aEu6UF6a/Td+ckr+Udmc1LH1vXpf+OatUX331VbWf6+WXX67uK8zVGblOY2dr3oPVZf369f8dIwGgHUt5YA62yKXDKUPJYJ3VrP79+1ePDIAZnLMhOveq5JHXNOW9WdFK4MrPeeRzmgN/Pj8hLu9LOwB/lBWm9MPpQ7P6lBCViar0m+k/08cmeGUyLKEpoSr9bHMVqtlXZ0Urh2ZktSp9eV6TPjp9cZ5zgmDe3xZWr7LvbNKkSQIWAADA9moGLHuwAAAAaiJgAQAA1ETAAgAAqImABQAAUBMBCwAAoCYCFgAAQE0ELAAAgJoIWAAAADURsAAAAGoiYAEAANREwAIAAKiJgAUAAFATAQsAAKAmAhYAAEBNBCwAAICaCFgAAAA1EbAAAABqImABAADUopT/AyWTIwZT3dFpAAAAAElFTkSuQmCC;" parent="1" vertex="1">
          <mxGeometry x="70" y="-16.6" width="643.16" height="336.6" as="geometry" />
        </mxCell>
        <mxCell id="Op0lCO3ZR22i6gS680Ls-1" value="" style="shape=image;verticalLabelPosition=bottom;labelBackgroundColor=default;verticalAlign=top;aspect=fixed;imageAspect=0;image=data:image/png,iVBORw0KGgoAAAANSUhEUgAAA00AAAKBCAYAAACLXkBXAAAAAXNSR0IArs4c6QAAAARnQU1BAACxjwv8YQUAAAAJcEhZcwAADsMAAA7DAcdvqGQAAMAmSURBVHhe7N0FmFTV38Dxg4iEKGFjoRiIii2Cjd3d3d3dmH8L7I7X7u4ubFGwAwUTxUYJBdTX72EuXMbZuzu7szvM7vfzPPPs7tTOnHPPued36jYbP378P0GSJEmSVNBUuZ+SJEmSpAIMmiRJkiQpg0GTJEmSJGUwaJIkSZKkDAZNkiRJkpTBoEmSJEmSMhg0SZIkSVIGgyZJkiRJymDQJEmSJEkZDJokSZIkKYNBkyRJkiRlMGiSJEmSpAwGTZIkSZKUwaBJkiRJkjIYNEmSJElSBoMmSZIkScpg0CRJkiRJGQyaJEmSJCmDQZMkSZIkZTBokiRJkqQMBk2SJEmSlMGgSZIkSZIyGDRJkiRJUgaDJkmSJEnKYNAkSZIkSRkMmiRJkiQpg0GTJEmSJGUwaJIkSZKkDAZNkiRJkpTBoEmSJEmSMhg0SZIkSVIGgyZJkiRJymDQJEmSJEkZDJokSZIkKYNBkyRJkiRlaDZ+/Ph/cr9LklQx/vzzzzBs2LDw888/x98TrVu3Du3btw+zzTZbaNWqVe7eSYYPHx6+//77MGrUqPD333/n7i1s6qmnDvPMM09o27Zt+Prrr8Nvv/022f9Cs2bNQvPmzUOLFi1CmzZt4v+eccYZ432SpMbBoEmSVJF+//338O6774a333479OvXL/z666+ha9euYe+99w7zzjtvWGSRRcJ0002Xe/YkH330UXjnnXfClVdeGX926dIlrLXWWjEwSowbNy4GZK+88ko49NBDwzrrrBMGDhwYXnzxxXDTTTeFX375JSy88MLxNv3004exY8fGYIzXdOjQISy33HJhww03DPPPP3+YaiondUhSpTNokiRVNAIWgppBgwaFI488MhxxxBHVBip//fVXOOGEE8IVV1wRVltttXDuueeGWWedNfdoCP/8808YM2ZMuOWWW2Lgtc0228SRo/fffz/sv//+Mdg6+eSTw/bbbx9Ho3i/kSNHhjfeeCOcc845YejQoWHJJZeM/6NHjx5xNEqSVLns/pIkVbRpppkmjvYQ1DAtriYjOzy3Xbt28XcCGgIf3ie5tWzZMk6zW3nlleNPpvHxPKbfMf0PBFOMKvGT58wxxxxhk002iSNRc889dxylOu200+L0QUlSZTNokiQ1CgQ1pR7RWWCBBULv3r3jeqWaYmrgmWeeGddUvfbaa3Ea4Pjx43OPSpIqkUGTJEkF9O/fP/zwww9h2mmnLToYY2reKqusEqf53X777XETiQTrpVgf9dxzz4XBgwfHaYA8zhQ/SdKUyaBJkqQ8rJMi2Knt1Dqm8BE48fOrr76KG1bgm2++Cbvuumu47rrrwltvvRVOOumkGFzdeuutMZiSJE2ZDJokSU0WI0E//vhjePbZZ8PDDz8cb/fcc084/vjjw6OPPpp7VvFYM9WpU6c4SsX/+Pjjj8Po0aPD2WefHddPsfEEu/Jde+21YcUVVwx//PFH7pWSpCmRQZMkqUljq3JGgpgyx41d+Bgdqsv6KF7LNaIIkEBQNGLEiPDJJ5+En376KQZq4Dl77bVX6Ny5c8nXY0mSSsegSZLUZBGozDfffOHAAw+Mo0vc+vTpE/r27RuWXnrp3LNqhyl+yTolrgFFgMQue2wOwbbozz//fHwOF89de+21i9psQpLUsAyaJElKYctyptatuuqquXuKxxbljCixyQOBGRe5ZXtyLrzLtuWPPPJI2HzzzcNWW20Vp+7NNNNMXgRXkqZg1tCSpCbjzz//jIFMTey+++6hW7ducU1SsTvbMR2PKX+jRo0Kc801V1h00UXj/Vz3ifVTu+22W7yu04svvhgvzHv11VfHNU+SpCmTQZMkqclgStznn3+e+ysbmzkw+jN06NDw3nvv5e6tmU8//TQGR4wybbPNNmH22WePwRprpVi/xEVvL7roorD11lvHXfPYEOLDDz/MvVqSNKUxaJIkNQqMCHGrCtt933zzzWGGGWbI3VM9Ah121Bs5cmTunuoxLY+g6LPPPos74+2yyy4xAGMjCLYWZ7SrZcuWYfnllw+nn3562HTTTePGELXd3lySVP8MmiRJFY31QwQ3TKEj8GBzBUZvkhtByvDhw2OA0rFjxzDzzDPH4IrpcPwcP358fG0SdPF+3Hgfps+9+eabcXSIx5L3Bq/htTyX3/k/H330UVy3xIhWjx494qYSM844Y3w+z3vppZfi9Z94H7BBRNeuXeNz+GySpClTs38r/Kq75SRJmkKxXohNFN5+++0YEBEwzTrrrGG11VaLF5VlahzBzG+//RY++OCDODXu+uuvj2uM3n///XDBBRfEC8zyms022ywGRiA4Yk0S0/gef/zxsMkmm4T99tsvDBkyJAZDrD/if62wwgqhZ8+ecYMHAqkvvvgiTrFjF7zevXvH17FuKdlKfNiwYXGXPt5nvfXWC4svvnj8Dk888UT8m+ezw54kacpj0CRJqkhJ0EQwxO/VISBZc801w/fffx/XHBH4MPqThessde/ePe6mR+DFiFX+/yIo4nm8PyNGc845Z3x+/m54jGxxDSh+JtP9CLB4/kILLeSW45I0BTNokiRJkqQMrmmSJEmSpAwGTZIkSZKUwaBJkiRJkjIYNEmSJElSBoMmSZIkScpg0CRJkiRJGQyaJEmSJCmDQZMkSZIkZTBokiRJkqQMBk2SJEmSlMGgSZIkSZIyGDRJkiRJUgaDJkmSJEnKYNAkSZIkSRkMmiRJkiQpg0GTJEmSJGUwaJIkSZKkDAZNkiRJkpTBoEmSJEmSMhg0SZIkSVIGgyZJkiRJymDQJEmSJEkZDJokSZIkKYNBkyRJkiRlMGiSJEmSpAwGTZIkSZKUwaBJkiRJkjIYNEmSJElSBoMmSZIkScpg0CRJkiRJGQyaJEmSJCmDQZMkSZIkZTBokiRJkqQMBk2SJEmSlMGgSZIkSZIyGDRJkiRJUgaDJkmSJEnKYNAkSZIkSRkMmiRJkiQpg0GTJEmSJGUwaJIkSZKkDAZNkiRJkpTBoEmSJEmSMhg0SZIkSVIGgyZJkiRJymDQJEmSJEkZDJokSZIkKYNBkyRJkiRlMGiSJEmSpAwGTZIkSZKUwaBJkiRJkjIYNEmSJElSBoMmSZIkScpg0CRJkiRJGQyaJEmSJClDs/Hjx/+T+12SJElSBfn666/Diy++GIYOHRqmmWaaMP3008db9+7dwzzzzBNatmwZmjVrlnt2CH/99Vd44YUXwtJLLx2mm2663L0h/PPPP+GNN94IzzzzTPj7779z94bQoUOHsM8+++T+arocaZIkSZIq1BxzzBF69OgRHnnkkfDNN9/EYOm3334LBx98cLjlllvCH3/8kXvmBJ999lk4++yzw5tvvhkDpcTIkSND//79w/Dhw8OoUaPi7f333w+DBg3KPaNpM2iSJEmSKli7du1CmzZtwswzzxwWX3zxsPPOO4dFF100PPjggzGQSowbNy4899xz4ffffw9PPfVUDJQSY8aMCb179w5nnHFGOP3000OfPn3CMsssE9Zcc83cM5o2gyZJkiSpwqWn4LVo0SIGUIwyESglhg0bFn799dew3XbbhbfffjsMGTIk90gIM844Y1hsscVCq1at4t8//fRTfH6vXr3i302dQZMkSZJU4ZhqN378+PDnn3/GdU5Mq5tvvvnCDDPMEB9nLdN7770XFlpoobDOOuuEqaaaKq5hSoIq/uZG8MV7MY2vY8eOYZZZZomPN3UGTZIkSVIjwHqkl19+OTz00ENx1IgNHBhBwi+//BK+/fbbGDR16tQpLLvssvG5I0aMiI+nEUgNHjw4dOvWLQZSMmiSJEmSGgVGhgh0Nt5447D//vvHACkJej799NMwYMCAcN9994UrrrgifPfdd+GTTz6Jmz3kYxMIpucxUqUJDJokSZKkCse0utatW8fpdLPOOmuYdtppJ65zYrodwdEOO+wQDjzwwLDXXnuFo48+Oo5G3XPPPXFaXxojVgRbvI8mMGiSJEmSKhhBEddWSl9fKe3zzz8PP/74Y1h44YXjtZy4EVwtt9xyYeDAgeGtt96abPvxjz/+OAZM6es4NXUGTZIkSVKF+vnnn+PaJHbFYwreu+++O3HkiCCKKXiXXHJJHD3iOUlgxc56Y8eOjduOX3XVVTF4Yi0TNzaMWGCBBcLUU08dn6sQmv2bqJPCSkmSJEkVgwCJNUgEPwQ5bdu2jddsSnbBIzhis4fmzZuH6aefPo4y8Ri76XG9Jl7LVDweY3ofu+8x8sT1npjipwkMmiRJkiQpQ4MGTQwHMmz422+/5e6RJEmSpNpj18DOnTvX6/boDRo0ESxttNFGcT6lJEmSJNXVggsuGC699NIYPNWXBg2a2O99/vnnD6uuumqcJ5lsgyhJkiRJtcH1qDbZZJPGM9KUBE39+vULO+20k0GTJEmSpCmeW45LkiRJFYplL2+//XZ47bXX4m3AgAHxOkujR4/OPeO/vv322/9c0DaNfQh4DluZs/24DJokSZKkitWqVau4Tfjpp58ebr311rjp2vXXXx+OOuqoMGjQoMkuWgu2H2fW1xdffJG7578Ilm6++ea4hfnMM8+cu7dpM2iSJEmSKhRB07zzzhuvxzTrrLPGtT1HHnlk+PLLL8PFF18cfvjhh9wzJ2Ak6sknnwzPPffcxAvdpnF/3759w9prrx2WXXZZg6YcgyZJkiSpgrEBQnoThPbt24cePXqEr7/+Ovz444+5eyeMMr355puhe/fu4aWXXgrDhg3LPRLiiBQXtT3zzDPDdtttFzdX0CQGTZIkSVIjMm7cuLgB23TTTRdat24d7yMoYq3TjDPOGHbdddfw3XffhXfffXfiaNOYMWPCww8/HNq0aRNatmwZp/o9++yzmWufmhKDJkmSJKnCERSxKcTnn38ebrnlljBw4MCwzjrrhNlmmy0+TlD0ySefhIUXXjgsueSSoVOnTuGVV16J66FAkPX++++HDh06xGl+BE4XXXRRuPfee+PjTZ1BkyRJktQI/P7773HzB0aYrrzyyrDzzjvHNU9gZImpekzdI1Baaqml4lS9ZIoerx01alTYaKONwjLLLBPWX3/9GGDdcMMN8fGmzqBJkiRJqnBc/3TOOecMG2+8cdh0003DfPPNN9k6J7YOZyTq1VdfDY899ljcOIKpeUzBY5SK5zZv3jxMM8008flM61t00UVjICWDJkmSJKlR45pNgwcPDjvuuGPYYYcd4kYPu+++e1h55ZXjOqbvv/8+Tsvr2LFj+Oqrr3KvCnGKXrt27XJ/NW0GTZIkSVIF++uvv8LYsWPjtLv86zLh+eefj6NIc80118Sd9tq2bRuWXnrpOD3voYceCjPMMEPo3bt3eOaZZ+KIFO/HNZ/YwlwGTZIkSVLFIuh58MEH4ygRI0YvvPBCDHhAMPXaa6/FzRyGDx8ePvzww3gfCIyGDh0a5p577vDiiy+Gp59+Oq5jWnHFFcM111wT7r777hhIbb311vH5TV2z8ePH/zccrSfsyjH//PPHqxDvtNNOce6lJEmSpCkDI1VsGMFPArGpp54690jTZtCkorFo0D37JUmSNCUgsEtvelEfDJpUFIKlnj17hs8++yx3jyRJklQ+vXr1itemmn766XP3lJ5Bk4rCHv/dunULnTt3Dl27ds3dK0mSJJXHAgssEI488sjQpk2b3D2lZ9CkohA0caGzfffdN5x00km5eyVJkqTySHYErE8GTSoKQdMiiywS9t9//9CnT5/cvZIkSSoHds978803w8iRI+PfLVq0CDPNNFNYbLHFQvv27eN9+dhFb955543XYco3bty4uJPeL7/8Ev/mIrnLLLNM/L0pc8txSZIkqUJ16tQpLLjgguHCCy+M240zRe2xxx4Lm2++ebxwLevR0wiyjj/++PDee+/955pO/M0W5X379g1XXHFF3HqcC+PKoEmSJEmqaFxPabrppovXXFpttdXCCSecEH+/6aabYpCU4BpNXJPpq6++ihex5WK4aSNGjIijTARNd955Z7j99tvD8ssvn3u0aTNokiRJkioYS17Sa3oYbWJJDFPskml74PpLn3/+eVhjjTXilD6CpwSXlHnppZfCK6+8EgOmDz74IEw77bRepynHoEmSJElqRP7444/w6aefxrVN7dq1i/cx9e7dd98N88wzT9h+++3jqNKAAQPi6BMImnhu7969w8CBA8NRRx0Vbr755viYDJokSZKkikdQNHz48BjwsB5p1KhRceO1WWedNT7+22+/hS+//DIstNBCcRMINvZiVInngRGlFVZYIW7dTbC00UYbhVtvvTWOOMmgSZIkSWoUpplmmtC8efOwyiqrxI0hWN/E32Ba3ieffBJ3zmPdUuvWreNmENyXjxGnnXfeOY5Kvf7667l7mzaDJkmSJKnCsa6pQ4cOoXv37nG7cabmpS/v8/7774fFF188Xm+TYGj11VePO+89+uijcWpePl7PuijXNE1g0CRJkiQ1YkzNGzp0aBx56tatW5yit9xyy4VevXqFZ599Nk7byzd27Ni4uUTPnj1z9zRtBk2SJElSheI6SkOGDAm///57+Pbbb+Mt2dyBdU4//PBDuPbaa+NFawmCklElHpt55pljQHX11VfHTSIuuuiiuHMeO+sxhY9Rqy5dusTnN3UGTZIkSVKF4uK1BEB77713WHXVVeMIUYL7x4wZE+acc87Qo0ePyR4jsOL+gw8+OAZHvM8ss8wycd3TbLPNFlZcccXcs9Xs3wSa/FLA9einn36KcyP79esXd/NIz7NUZfjuu+/ibiv7779/6NOnT+5eSZIkVToCJ7YrZx1Ty5YtbaunGDSpKAZN5cewOr1GydC7JElSU9aiRYvQqlWreo0tDJpUFIOm8hs2bFi4/PLLJ7uKtyRJUlPFxhb77bdfmHbaaXP3lJ5Bk4pi0FR+r776arx2AsPniy66aO5eSZKkpokdAU888USDJk05DJrK7+WXX45B09FHHx222Wab3L2SJElNE7sCcmFfp+dpimHQVH5J0HTSSSeF7bbbLnevJElqitgRb+TIkRPXOtO+Zo0Poy5VXZiWbcpZA0SwUQi77vEcblzkVm45LkmSJFUsAqY33ngjdmZffPHF4ZFHHgnXX399uOWWW8LXX38dA6A0NpO66aabwvfff5+757+4ptP9998fzjvvvNw9MmiSJEmSKlTHjh3jdZa4thJWX331sMIKK4Q77rgjXHbZZeHXX3+N9yfeeeedcN1114X+/ftPvNBtvk8//TQGX1woVxMYNEmSJEkVjGsqsaandevWYYYZZghLLrlk6NmzZ3jzzTcnC3z+/PPP8Pzzz8fnv/DCC/8JqMB0v8ceeywuqeE9NYFBkyRJktSIMILEFDuCnmRdE9P0PvvssxhYsT03v3/wwQeTTd8jYLrnnnvCfPPNFzp37py7VzBokiRJkiocwQ/rm1ir9Mwzz4QBAwbEaXqzzTZbfJyA6P3334+XK1l55ZXjtD42l+J+EGi99tprcUOJ1VZbzQ3b8hg0SZIkSY0AO1W/+OKL8QL4Bx54YNhjjz1C27ZtJz72yy+/xFGkDh06hF69esXAivvBxfOHDBkS1l133bizniZn0CRJkiRVOEaG5p577rDpppuGXXbZJay55poxOEpGjN577724y96VV14ZTj/99LhxBIHSK6+8EsaPHx8fY50TlzQ55JBDwn333Rc++uijcOyxx8bXN3UGTZIkSVIjxvqmwYMHhwMOOCCceOKJ4bjjjovB0UorrRQefPDBMGrUqLDggguGVVddNSy99NJxI4k55pgjTD/99GGxxRbLvUvTZtAkSZIkVTDWIzFaRHCUf10mDBo0KPzxxx9xah4bQ3BjFGrZZZcNn3zySdx+fKGFFgrbb7992HHHHcMOO+wQg6dOnTqFrbbaKvcuTZtBkyRJklShvvzyy3DDDTfEDSBef/318Oijj8atxcGmDmwxzqgSgRO75RFcgfVNTNEbPXp06NevX7j33ntjYKXCmv2bcP8NR+sJC83Y852M2WmnndyVowJ99913YZFFFgn7779/vPK0Gh473ey8886xAtxuu+1y90qSJKm+ONIkSZIkSRkcaVJRHGkqP0eayu/HH38MxxxzTJzSIEmSyqt79+7hoIMOqtet0g2aVBSDpvIzaCq/Bx54IOaBJEkqPy7YyxbpbG5RXwyaVBSDpvIzaCq/JGhi69a99tord68kSSqH6aabLt7qk0GTimLQVH4GTeWXBE1nnHFG2HvvvXP3SpLU8H7++efw2WefhTFjxsS2dfPmzeP1leaZZ54w7bTT5p41wdixY8NXX30Vfvjhh9C2bdt4MVx+Jm3yf+OCeBFcruk0yyyzhKWWWuo/79FUuRGEJEmSVKEIeqaaaqrYkXfHHXfEoIgtyJkNMWDAgHgNJ7A1ed++fWPHH2tzn3322XDaaaeF999/Pz7O87jvnnvuiVuXn3nmmeG2226Lj8mgSZIkSapY00wzTRwxIuiZffbZw8YbbxyOO+648Ouvv4ZLL700Xr+J30855ZTQvn37sM8++4T1118//lxmmWXC4YcfHt5+++34HAKwE088MQZTq6++enj66acnXvOpqTNokiRJkioYI03cEu3atYsB0bBhw+LSigsuuCD8/vvvYe211564w9zUU08dA6OZZ545nH322XHqXs+ePeP93AjAunbtGn+XQZMkSZLUqIwbNy6OMLG2iRGkF154Icw111wxQErj8cUWWyyuiUqm6WHEiBExyNpwww3jGikZNEmSJEkV759//ombQgwZMiT83//9Xxg4cGDYYIMNQsuWLWMQxNQ8fk9jdGq22WaLo0yMSGHQoEHhiCOOCNddd1146aWXJq6JauoMmiRJkqRGgB30Pvzww9CpU6cYOLHLbps2beJoETvjFQqAmH6X7LqHxRdfPJx++ulhtdVWixtLvPvuu/H+ps6gSZIkSapwBD6sQ1pvvfXiRg9sOc5IElPyuDFdb/To0blnT0AQ9fXXX8dtxbt06ZK7N4RZZ501XlqDn+y6J4MmSZIkqdEiYNpiiy3C559/Hj799NM4jS/BNVTZXnzllVcOCy+8cO7eCTp06BBHrAicZNAkSZIkVbS//vorbg3OLR0UgWl32267bdxN784774zrnsBUvrvuuit07NgxrmEC65lGjRoV3+OTTz6JQdMSSywRH2vqDJokSZKkCsUGDk8++WTo3LlznH736quvxt3z0li3dNhhh8XAie3FDznkkLD//vvH53FRXHbR44K3119/fTj44IPDRRddFD766KO4JsotxycwaJIkSZIqFNPnGEli44ezzjorrLLKKqFFixa5RyeZbrrpwmabbRb23nvvuJNespaJjSIw55xzhpNPPjle3Jb3I2BipEkTGDRJkiRJTQCbRbBBxKGHHhqOPvrouMaJ0SW2JOcxRpwInmaccUavz5Sn2fjx4yef+FiPWGw2//zzh379+oWddtopZo4qC0PAiyyySBzS7dOnT+5eNaSXX3457mhz0kknxV4gNbwHHngg5gFTGuixU8Njzn3//v3jblCSpNph7dIvv/wSvvnmmziqNMMMM+QeqSxdu3YNSy+9dNwtsL4YNKkoBk3lZ9BUfgZN5ffaa6/Fiza2a9cuTDPNNLl7JUlN0UILLRSuuuqquONffTFoUlEMmsrPoKn8DJrK7/nnnw+bbrppOPXUU0O3bt1y90qSmiJ2AKR96kiTphgGTeVn0FR+Bk3lR9C0+eabh/vvvz/06tUrd68kSfXDjSAkSZKkCjVs2LB4vSV2vmM78WuuuSbcdNNNYcCAAWHkyJETr9vENZzY+OHRRx8NN9xwQ3zNwIED4xpR8Lxvv/02XHrppbFD8Pjjjw9vvfVW+Pvvv+PjTZ1BkyRJklSh2MCBTRCefvrpuDkOF6MlACLoIXji2k1cj+nee++NwRKPLbvssnH9zz333BOuvvrqeMFbAiwCKmaCrbjiimH48OHhtNNOC19++WXuPzVtBk2SJElSBWOr8NatW8etwhdeeOGw9dZbx+UUjz/+eBw9euaZZ8Ldd98dVltttbDWWmvF3eZWXXXV+LynnnoqXHfddeHXX38Niy22WNh9993DNttsE3+OGTMmDBo0KPdfmjaDJkmSJKnCpfcK4OK2s8wyS/jjjz/iiNEVV1wRtxMnKEquv8SmCQsuuGDceY71oYw2LbXUUvG1PDbHHHPE13ABXBk0SZIkSRWPaXdMw2N06LPPPgtvvvlmDIjGjh0b1z0RRDEalTb11FPHUSfWNbHeKcF7MdVv5plnDksuuWTu3qbNoEmSJElqBAh0Xn311fDkk0/GtU1MsWvbtm0YP358vKZdoS25p5tuurjZA8FWgk0jPvjgg7D66qtX7AVvS82gSZIkSWoEWNO0+OKLhy233DIcdNBBcaSJi4AzwvT777/H4Ckfo0yMOHGto8THH38c71thhRVy98igSZIkSapwrGlq2bJl3BWPAKhVq1bxPtYmMQXv66+/Dr/88kucepdgOt+HH34Yp+6xgQSPMZXvhRdeCGussUbcYMItxycwaJIkSZIqGMHOX3/9FW/52rRpEw444ID4+3PPPRen3oFRJ9Y9ff7552GvvfaKW5e//fbb8TpPbAjBbnqMOBFAyaBJkiRJqlg//vhjDIYYRSLI4YK0jCClsf34PvvsE7744otw7bXXhgcffDBew+n5558Pu+22WxxVGjx4cDjvvPPCSy+9FC688MJw7LHHxhtrpGTQJEmSJFWs9u3bxw0b2Db8nHPOCd27d4/rkdLYAGK55ZaLgdNMM80UzjrrrHjdJu7j2k1sEjHvvPOGM888M4409e3bN94Invbdd9/cuzRtBk2SJElShSJAYrOH2WefPa5N4rpK6Ws2Jbg+EwHWFltsEfr16xc3jeDit6x1Ylofa6Bmm222+D7pG+uaFEKz8ePHT1oNVs9++umnMP/888eM2mmnnQpmqKZs3333XRzi3X///UOfPn1y96ohvfzyy2HnnXcOJ510Uthuu+1y96ohPfDAAzEPzjjjjLD33nvn7lVDYkrJ5ptvHntWe/XqlbtXDemHH36I03a4eKakysO0vtdeey0GXcsuu2wMvAptSV4JCPYYNcsfYSslgyYVxaCp/Ayays+gqfwMmsrv5ptvDqeffnoYPXp07h5JlYjd8RhpYiSqUoMm2qY33nhj3Dmwvhg0qSgGTeVn0FR+Bk3lZ9BUfiwYP/vss8OBBx7otVwklRU7/3Xp0iX3V/0waFJRDJrKz6Cp/Ayays+gqfySoOnOO+80aJLKiCmybA/OFuJgtIiNHZhu16JFi3hfghElLnI7ZsyY+BjrlfiZ3ybnOWxNzsgNI1ByIwhJkiSpYhE0vffee+Hkk08Ol19+eXj66afD9ddfH66++up4DabkYrYMXjz88MNxu/EXX3wx/rz99tvjxWwTY8eOjddqYtc8dtcjuNIEBk2SJElShWJHPGYBDRkyJI4arb322mGdddYJjzzySLjkkkvCzz//HIMfRoc/+eSTsNJKK4W11lor3rj/uOOOC0OHDo3vxajSnHPOGX777bcwfPjwiQGXDJokSZKkisZ0PAKmli1bxil33bp1i7vJvfvuu3FpBSNP/L7eeuuFueeeOz6HdUAbb7xxDJC4vtPIkSNj0NSxY8e41bgmZ9AkSZIkNSKsXWJNEkEUI01MxSNYmmOOOXLPmGCGGWYIiy22WJySR1CVqNRd9OqTKSJJkiRVOKbSsYEDI0uPPfZYGDBgQFhllVXiJg9cV22mmWaKF7BNY2Rp3nnnjeuivvjii9y9KsSgSZIkSWoEGFXq379/DJKOPfbYsMcee4TWrVvHgKqqXavbtGkTH09231NhBk2SJElShSMoYgreFltsES+LwaUA2rZtG2accca4WQS75zGilEaw9P3338cRKDaAUNUMmiRJkqRGarbZZgurrrpq+PLLL8M333wz2Y54TOcbOHBgWHTRRcPCCy+cu1eFGDRJkiRJFezvv/8O48aNi7d0UAR21ttll13ijniPPvpoDJTANZmeeeaZ+HP//fePm0IkmKrHe+a/V1Nm0CRJkiRVKC5gy4VsmWb38ssvx53y2DkvjdEmLn7LrngHH3xwOP3008Ohhx4aBg0aFLcbZ6SJ6X287oEHHghPPfVU3Eji8ccfz72DDJokSZKkCtW5c+dw9NFHxy3DGUliTRNbjefr0KFDOOCAA8Kee+4Zg6VPP/00LLvssvG6TAlet+GGG4aHHnoo3ngvTWDQJEmSJDUBjDRx0duzzjorrL322uHFF18Mzz//fBg9enTuGapKs/HjxzfYZEV27Zh//vlDv379wk477VTl1oeacrH3/yKLLBLnvvbp0yd3rxoSQ+/sinPSSSeF7bbbLnevGhJTF8iDM844I+y99965e9WQOMlvvvnm4f777w+9evXK3auGdN5554Wzzz473HnnnXGXLjU8LmD62Wef/WdHNKkmmIpH23zEiBFhzJgxYa655oo77VWiTp061ftnN2hSUQyays+gqfwMmsrPoKn8DJrK7+GHHw477LBDbE/ZplJTtuCCC8Zzc3ozi1IzaFJRDJrKz6Cp/Ayays+gqfwMmsrvkksuiQv6e/fu7TV21KTNN998sQOBnQLri0GTimLQVH4GTeVn0FR+Bk3lZ9BUfgRNl112WbjyyistB1I9cyMISZIkqUJ9/fXX4e677w7XXXdduP7668Mtt9wStwz/5Zdfcs+YhLVLb7zxRrjtttvicxjQyL8W07Bhw8JFF10UrrjiinhBXE1g0CRJkiRVqDnmmCNeZ4kg59VXXw3t27cPTz/9dNwunHVvyYVque7S8ccfH1555ZW4ccKQIUPCMcccE5588sl4gVuCJ7YhZ/tyRi6XWGKJcOmll4Yff/wx95+aNoMmSZIkqYKxAcL0008f5p577rDaaquFE088Mcw777zhxhtvDN988014++2345TaFVdcMeyzzz5hpZVWCrvttltcLnPBBReEe+65J/z+++/h1ltvje+x+OKLh27dusVAihEsGTRJkiRJFS1/B8XWrVuHLl26hF9//TV8//334aqrrgpTTz11vEZTixYt4nOaN28eR5MIkm6++ebw5ptvhvfeey907do1PtamTZu4DTnXcpJBkyRJktSocO2uwYMHh5lmmin89ttvcaSJHRaZupdGcNW9e/e40ddLL70UR5uS53Ah3Hbt2oWff/45/t3UGTRJkiRJFY6pdMOHD49rl9hRkXVMu+++e5huuunihWwJkBhtSmN0qkOHDvFCyT/88EN8j7Zt2+YeDXFUisdk0CRJkiQ1ClyniNvKK68czjrrrLh2adppp433sXMem0Lk4z5GlTp27BiDqvRzCLaS6XxNnUGTJEmSVOGSUSOm2y222GJxah73sbse65bYSpzpd2mMIjGNj9f17NkzrmNiHRQYqWLbcjaZkEGTJEmSVPGYWsctH+uS2Cnv22+/De+++24MhsBzv/rqq/DWW2+FjTfeOG4zvsACC4R33nknPsbIFIFWjx494vObOoMmSZIkqUKNHj06XnNp5MiRcUMHgqP8dUirrrpq2HbbbcPzzz8f+vfvHz7++OO4W959990XVl999bDLLrvEtUwbbrhhXBc1aNCg+DjT9XidDJokSZKkisXIUcuWLcMRRxwR1l9//dy9k2ML8S233DLe3n///XgB27PPPjtuKb7HHnvEaXlYcsklw9577x0DL9Yz7brrrnF6nwyaJEmSpIrFCNGiiy4ap9itscYaoXPnzjFIykdgxQVrd95557D99tvHtUsffPBB7tEJeB3roRh9WmWVVeIFcjWBQZMkSZJUC4zG/PTTT+HHH3+siBuflel87Kp3xhlnxGs4scveRx99FC+CmzyH+0eMGFEx343PW2g9Vyk1Gz9+fP3+hxQSfv755w/9+vULO+2002RXLlZlYK7sIossEvbff//Qp0+f3L1qSC+//HLsJTrppJPCdtttl7tXDemBBx6IecAJh2kManjMy998883D/fffHxcvq+Gdd955cXrPnXfeGVZYYYXcvWpIl1xySbjsssviNXksBw2PaXF33313TH8uJlupxo0bFzd9aNWqVdyavBIx0kbwxzWp6otBk4pi0FR+Bk3lZ9BUfgZN5WfQVH4GTeVFsHH66aeHCy+8MO5Op/KZb775YmxB4FdfDJpUFIOm8jNoKj+DpvIzaCo/g6byM2gqryRouuiii+LGCSofLs7LTn/1yTVNkiRJUh0wrc1b+W71HTDBoEmSJEmSMhg0SZIkSVIGgyZJkiRJymDQJEmSJEkZDJokSZIkKYNBkyRJkiRlMGiSJEmSpAwGTZIkSZKUwaBJkiRJkjIYNEmSJElSBoMmSZIkScpg0KSi/fPPP7nfJEmSpMavQYOmpLFto7ty/fXXXzH/xo8fn7tHDe3PP/8MY8aMCb/++mvuHjW0n3/+Of788ccf4081POqiv//+2/NJGY0YMSLmg3VR+QwfPjyMHj06jBw5MnePGhL1j/VQ09HgI000+Dy4KheVw7hx4wyayijJg6mnnjp3jxoaeUAZsC4rH/Jg7Nix8afKg4CJcmBdVD4c/+SDyof0p22rxq8sQZMFvHJxcrRyKK9pppkmNGvWLLRs2TJ3jxpa+/btY+9uu3btcveooU011VQxaDJwLZ+2bdvG80GrVq1y96ihdezYMf40D8qDczFtWuoiNX6uaZIkSZKkDAZNkiRJkpTBoEmSJEmSMhg0SZIkSVIGgyZJkiRJymDQJEmSJEkZDJokSZIkKYNBkyRJkiRlMGiSJEmSpAwGTZIkSZKUwaBJkiRJkjIYNEmSJElSBoMmSZIkScpg0CRJkiRJGQyaJEmSJCmDQZMkSZIkZTBokiRJkqQMBk2SJEmSlMGgSZIkSZIyGDRJkiRJUgaDJkmSJEnKYNAkSZIkSRkMmiRJkiQpg0GTJEmSJGUwaJIkSZKkDAZNkiRJkpTBoEmSJEmSMhg0SZIkSVKGooOmf/75p063Ur2Haq9QmhZzSxR6rJhbU1YoPYq5JQo9VtNbU1YoPYq9JQo9VsytKSuUHsXcEoUeq+mtKSuUHsXeEoUeq+mtqSuUJjW9pRV6vKa3pqxQehRzSxR6rJibpnzNxo8fX+Oc+vbbb8Ntt91W68wdPXp06NevX1h33XXDkksumbu3OM2aNQsbbLBBmG+++XL3qBjff/99uP/++8Pvv/+eu6c4I0eODBdccEFYbrnlwmqrrZa7tzhTTz11WGONNcJCCy2Uu6dpIe2vv/76MHbs2Nw9xfnyyy/DXXfdFdN/scUWy91bvDXXXDMsssgiub+aFtLw0UcfDaNGjcrdU5yPPvoo5gFpuOyyy+buLU6rVq3CeuutF+aaa65YrzU1n332WayLamvo0KHhlltuCTvssENMw9po0aJF2GKLLcKss86au6dpIQ8efvjh8G87IHdPcV566aXwwgsvhG233TbMPffcuXuLM/3008c2QadOnXL3NC1vvPFG6N+/f+6v4r366qvhtddeC5tsskmty8F0000Xdt1119C8efPcPU3LW2+9FZ577rncX8X5+++/w7PPPhteeeWVcPzxx+fuLV67du3CpptuGjp06JC7R1OiooKm119/PWy55Za5v8rnrLPOCltttVXuLxVj0KBBYe+99w7fffdd7p6GRwPx1FNPDdtvv33unqblm2++CSuuuGKsbMvpuOOOC3vssUfur6bl+eefDwcffHD45Zdfcvc0vGmmmSZcdNFFMfBqikETjfX99tsv91d5TDXVVOGmm24KvXr1yt3TtNBxsO+++5a1l3ummWaKnanUiU3ReeedFzsiy6lNmzaxfde2bdvcPU3LZZddFtuV5UQ5oC5acMEFc/doSlRU0ETFeuaZZ4Yrrrgid0/DY4TiyiuvLFkj45133glPP/10+OOPP+J7zjPPPGGdddaJvV98X3qUn3nmmfDbb7/lXjEJvTM0eHjOBx98MPHEQ+9lx44dQ/fu3WNPPj3KaTzvzTffDO+++24MQqeddtrcI/WP/3322WfHSqJcVlhhhXD++eeHGWecMXdP3dAAprdu3LhxsRHEKCQ9+Em6k7cPPvhgGDJkyH8CFfJ80UUXjc8dOHBgfA8wGkb+duvWLY6Kpk8mf/75Z7jjjjtio4//tdtuu4XOnTsXdUxykuRkWS4cm3feeWdo2bJl7p7ao5ea3k5upB9pt8QSS8R8TvLg559/Dg888EAcrc5H7+Yqq6wS0/jxxx+P+QXykjwgjXv27Bl/T5CPL774Yhyxa926dTjooIPC/PPPn3u0emPGjAlHHXVUPC6SctvQqDvOPffcWNfUFcck9Rj1Gd+HOmippZYKq666au4ZIXz++ecxDwqNrvF8ejk//vjjWC/99ddfE++n55MRTcpJVccLr2PkjbJQ01Eb8nCfffaJeV4uO+64YzjllFNyf9XdQw89FM8FpB9BMSPyjESSjvj6669joPLjjz/Gv9MoKxwTdGjR852M/lA+OEYWXnjhmKc0cNPIT+oiRo1Ao4v6ryZlm3J5xBFHxGOnXLbeeuvYiZakUV0wes/oFwEAxxd1EXXdWmutlXvGhJEZnlNopJ/z9jbbbBPziPKSnC/ISxq1yyyzTExf6qZCOA/x2nnnnbfGnYIjRoyIbY5hw4bl7mlYnLeOPvrosNdee+XuqRuOx3vvvTce69RFHIerr756zAdwH8cq5b6qdhWzKAYPHvyfdlX79u3D4osv/p92FfmdfwzPMssscfSsJn766adYd9GpXC4nnnhijT9vdahfHnvssfDVV1/Fv6k/1l577XhcJu0UvittW84d+Rj1YkbXk08+GWcnkQe8jjSfbbbZ4vk4f1ST8zb139tvvx3/5nxCXhXTLqoEzf/NqD6536vFl6chxMH73nvvFUzs+sL/XH/99cPJJ59c0t4QKkIKDL0MfDdOojTCwPflcRqC/N+uXbvGCp6GNA00GgpUsr17947D40wVofHXo0ePWCHffvvt4eqrr46fl2CMCpxK+OWXXw7/+9//4ogDB3K68Nc3vhO9qpx4qZBoPDYkKs8TTjghzDHHHLl76o6AhRMOgQgFdfPNN49pneB3pn4wtZQh+EMOOSQWZvKTBsmHH34YpzZ88cUXsVOAhs5KK60UjwMaI5dcckk8BphOyM8bbrghph0VEEPyd999d6xEigkCaQCR7++//36tp+nVBicwGlQXX3xxyYJ1GhCkL40RAkEaCzQCaGgkSEvS79JLL43TqnbeeefYAFxggQVi+WPKIg180oJeZwIlyhWVN1NXaFQNHz483k95GjBgQAya+JuGCmWP8lvTPKA+IY85aX/yySe1np5UGxyPG2+8caxTSjUVg/fs0qVLbDxwfHLypS5Kn7BocHDyo5xw/G222WaxLmNaFXXSnHPOGZZffvnYmKFjis9I8EudRfpee+21Md3Is/Q0HqZdn3POOTH/qaP5PzXBZ+MzkveffvrpxA6LhsCxv8suu8TRxlJ0HCRmn3322Fih7j/yyCNjwJROKxovM888czjmmGPi96ehRmOSNOV8QP7QMfjDDz/EjiXqIkZg+IzURQTZNEqpu5LPTR103XXXxSmnvAfvR6MynfdVoVwSCFC2aKQ2JPKA73/sscdOVlfUBWnN+YAyzSgu5wPqu3SQw7knmWbO8cfUQMoBwT4dcOQZ53c6xmg0EkSRPwQ31F+cR6hnKC/8P/KMxil5QzCw++67x3JUk/QH5wHOWZQB3icJ1BoCeXDooYfGdg9luxTIS/Lg5ptvjvU0wUC6Q4t0od2UtKtoG3HOSLerqOPpQKBdRX3GuYB2FWlD+tOu4v9Q/1N/UF9xHmfmAGWH13E/5/WaoBxQ19EGSAKNhsKxRJuIPCgV2nfUM9TLdOpTF3F+SB+THO8ce6effnrsFCOtOC9QPsg37qMeIW05Z9PBzzFP+vC+dA4QOPE+lC86MDmfHnjggbGDjfJHfcdraloWKkHRG0Hw5cncnXbaqUFHSAguKNwEMaVEZlOA+S70IKUb2wkaNhxc/KRQc6OAU9Ap8LwHBwYNPE5AVLocgDT0OAg5YJn3TeXKc2lg00AsVSVVLD4Djar999+/QefPUgkyJYzCW2ozzDBD/C5Vzekm/8gfGhrkGXlIftO4p6FHXtDg4XECKhor9E726dMnfm6CAXrpqYipqKnsyVcaPwSeNOCLQW8aZYjpceRHQ+DYpoHA506P2pQC703PHulMHqQbignSludQoXNSJQ8IpGi8U2aoW2hwU9FSYRPc0+PIMXP44YfHRgwnYhrpPI+pXXvuuWfsKachSY9YMSjz5B8Nt6SjpL6RTtttt108SXLMlhLHESc8ygEnzELHFflOg4T/ndRlHO+c6HgtecRrKQ/kCXUVwROdSjTGKQdJTyIYUWFdEr2M+SMgNcFnoR6icVvomKkv5AHHDsdaKZFunE9IX84JhZAH1EV8dzpeknJAw5k0phyQB3w2OhbIB85/1EXkRd++fWNPPh0MpDudCgR///d//xdvG264YVGNFDo8WIvB/2+oxg1pQNB62GGHlSxgSvAd6Ajgf9ArXuicTv1B+afBl5QDGuUEPBzH1AeUI/KJzhXKAccMnU3kLY1GZi6AeocGIoEY+cB5pNh05P9QJ3CuaahyQLpTh9KOqU3ZzUI5IBgg/SkPhZC+nC/IiyQPknYVQSr1F2WIfEzaVRzbSbuKYIx21a+//hrP4zTab7zxxnDNNdfEDjQ6aGuK/KI9wLmmIafqkkbkAefAUqN+IW35H9wKIQ94Ho/TriEPqHNom/Bazgc8h2OaDgY6A2iz0EFAZyflgI4aglk6HHgvjqukTU2w1ZCdAA2hVq01DmJOOKUaSqwOjdeTTjopVoT1ValTQKt6b+7Pf4zGM4WVRiDyn8PvnPhYpMyIHD2PVKoJDqz892xInEjoQaPBSMVV3+g9ZXSNgKU+kJZZeYhCjzGdiQY8lTyP5z+HY50AmArkqquuio1EKg5OMvw/vk9VJ+bq8J6cpAkICjVwS43PzTSM2pzUayJJv6z3zv+eBJxMEUoWgRd6PRU3gS2NGnrb6enipJp02pD2nGy5r1jkI9NSKAulbrzlozFEw5SGFSei+lBdHhR6jOlgHNfJ6G+h13IS5LPzHRhxSkbmmEZGzzDBbW3KAP+LOpTGM9NBGgKNdQK1qhoSdZGkb6E0TBR6nPSkHCTnE+Q/hyCKDkvqK6aVkm8ETPTEE1ARvNJooS4rFsEDHQjUdVmfvRQ43xCA0PiqzWetiaSeqeq7FMoDZivQKUudj0KvJZ04pxMoMR2MBiGzF5gxwPch+KktOpuon5deeuncPfWHuo4AgTYcx0x9KJTGaYUeT9pV6fNBGn8n7Sp+p13F5ydISgI/poAztZJgtxi8H4ETnRJ0mtY3jn0CJmYv1de5h++Un4ZphR5nah/n1uRYzn+cvznf0nZkxhmjUgwIUJ9SBxEoUTfxPjyvIdo2DalW34ZEo2Jh5IeTXX01ujkJ01hiDQ4Zkp95DY0ebg4EpjIwRMy6pKwDgs9LTyIRPEPvROZp5fw+/G9601gEfMABB9RbHpI+9PgQ9Ja6Z702aJyQDwzhk3/0TtFgrCovuJ+giAY5Uy+okGnEcz8VBcPRBD9U2rVBRZ+MltRnOSIPGGanUVbO4440o4ecBiJ5QIX71FNPVTtFkRMMvY28Jpkrz/QOenvpWSQNa3t80RglcGUXtfrq5SXN6SVlHVV9BUw1RdrRgUNa0lBkLRLpWF1dRlBFJwHlhoYNr6XhyIk/CWBrg/cmTZiWyQY/9dWA4H0JkKmLSj3CVBt0piV1EWts2IGLvMkqnwSvdH4wjYiGCX9Tf1MHETjxe6F1IjXBe9Fo55xbX+WAcsxIAm2HugQYpUDAQ1pxTmdq43333ReDoerqR4JWGvVMAaPeYjor34Vp2hy/BJ802ovF/2VkhXqauq6+8oCyymeko6ghOkyrk25XkYY1bVcxKkK7irooCb4pP6zVIY+qGunNwnsTGNPm5JxeXw1+zvvMVqEDp6FmOVQlOR+QB7RvHnnkkYnrI6tCOjEbhO/B9D/KEp0GTI/kXExdxBR81oNXV54qTZ2OCBKDk1Bde1gK4WBNphJNCSc4sI6FivWee+6JJzka29WhwUolxTSKhlwDVlOkM4ux62uqHtMQOREnvdjlRk8WlQL5yKJF5qlXh5MXecgJkgo+QQDGVCV6tKqaFlgTHCP0vFKBlvokRkORKR9MryLYmxJwcmTdB3lAg4MAqiaooEnzZB0elTxTJimXrItgbUdtpwLw3rwHvX6lzgOOH9ZVMAWq3AETSCM2eyD9meZFI6Um6cZxyjHECZbGJlNSacCXaso0dRF1BXPnS50HvB95y86hUwqCf+og8oDykK5bshAgcS7hnMJUGgIlpuURkPM+lAkaQrVBLz4Nas69pW7sMCJAQ4pzen0FxsWgPmcNIOWAW3oDlCyUA44nGuvkGT3rNNCZNcDoDaNOl19+ee7ZxaMtxdopZmeUeiSOz017jTI2JeQBGKkm/WlXUafUpV3F34x+cE6uS8BDfnI+oH4rNepLOknZpn9KQOcjM24YJaIuSjbVqg7HEvlAm4r6hplgTDPkXEIgxf3VdYZWojqH0RRqhniZNkAClgrTPej95eCdUiJVhs2pGAky2HGJ3o7qUKCpXDlh0DCbElG50GCnh4ATcqmQh8w7ZqRtSkGjlaF9ThxUivT+V1e5UoGQh/QIpQN4TpY0HglK6nrs876kP7e6VPZpvA8LaKmg6UWeElCWKdOcMMgDRqr5jDVJv6RHkVFu3ocRQBrBTKfgfham1qWS5iRMw5Pjo1S9f3wvep+Zhz8ljLSCII41GqQ/I83kQXpaWFWoywiYKEPMY2eUiYCLRdksmGfkiXVndUH9QwcOox2lRB409BrO6rC2k7UDlHkCakYXanKuozeYY5VbgvML52BGlNO7gNYGoyisrynlVL0kYGLt3JTSWKfRR3pxTufY4Lxek3qSckCDkDJD0EQjkU0ECDiZkcDaD0bQ64KZNXQgsAlIqc4HpDtTg/m+6WOn3Ei7pF3FCEVN21WManBcpb9LsqlQXa8/yHHPOkPKAWupSoX6hzp3Srh0T4LjgnVcTLcjD9iJlk7u6so+5wLygTLDcwl4qXfOOOOM2OajozaZuteY1Lk0klic6OjtKlUvHifMCy+8sOwBE5UhveKFdpjjs1GYWICezO8vhOFjbizwLfUmFqVEQJdUXKXAwmUKTW0veFhKBDeFGtM0tAmaaNhm7SJIY5DdmNgRJqnQGeVgUwJGEGhklOI4pUKlUUFFXYoTJdMLmGbAVIVyliMqVspRoR5E6g56y2nIU5aqQllkhze+S3pdHA0f5p/Tw8XJMqss1gQBGScNphDVdXoMeUhjnZ71cjfWOZlxDOfjuGDeOQurSf+qgk5OfKwlYxofDU3SnV5dpigRPNFTSSOG0b664PPQGD3ttNNKtjia8xIjADRqy4lyQMBTqBxQ/xLIkk9ZAQ/1DrMcmJrEOSiNxiNlnrypa/1BWpVqcwjKEcEh0zhp5JYTaZts4JBGetHQpi6ncyZr5JXXk4/MoiDf6GAhTykjnFPIF37WBWnOuZNzKPVjXfF56Liho6TcecC5lnNqIay3pV1FMFrTdhXT6UD6My2SzqlSrFckDyhnjBqWasSJcwGdcuUOWpndwXGej+9MG4cOHTqEs0b9WM9KeWIjIfKKHTx5HfUYO3+SL2xp3thGm0rShUFCE63SY0nwVNsDgsYri4HpbaAiqmtlXVMUNirJ9AHCfTT0aBTwGH9zS/DZmIvOItCktyn9OH8z/YL1FlSijORwMktLP7/c+D5UrFSqNNxrm4e8DydupnjUx0LrqpCW5F/6ZMfvbKNLDwjHVpKH+enOVsmcCPPzEDRSWGzK96LC4yTJegKCegJD/uY4KNX1HficzDWnN4r3rg3ykVE+5sYzgtVQ5Yj0S24Jfmeonhtpm5/GfDYqVRa200uYnz/8To8Wawh5D3roGGGizCWVcfI/afjnl7Fi8XloVNAju9FGG9W68UMjjOk11ImlHL2tTpLG6XTmxEYwQ9CTPJ5OYz4rASdrm0jX9GPgbxqJlAOCP+oyRkVYD3jrrbfGG9+T9C/FtcfIA/KRnZkInGo7rZT3oLHO+pmGGt1I0je5JaibmMpLQ4/vl58HIA+YXkd+8Vj6cX4nKKUBx/MYqaVxSP1EnoGgl/enXqIeqSt6kJOR4NoiD5gWSUdEQ57Tk/RNpzMNO+pp1mvkPwY+G3V7MlqafgzkIed0God0oBE0cZ6k0yHpmOM1dCawJXxd8XnoaGUkl01watuJQ31Gu4z6rK4dQcUgLUizdDrScfDEE0/E45b7k1uC78z5lMZ20q5K4++kXUX7groomRXA/+J8T6O/rueBBJ+HOo+Ak2Cutp0RnIdp13JuL0XZrCnSNv84p/6gzcPPqvKAoJbLTCD9GKifKEdsjEUZYN0SaZ8c/2CKKSOu5APv15gUdZ2m6pA4RP40NJgfnDRqaopee6bHNORidRbTsq6C7RKp7CiwTG+gN49GAZUWz6E3NalwaLxxAmQOKA0iTuo0+phLS0OXYItpK5wAKSD0clLJJt+JBjpz2am8Gc6nd6shK7MsfEZ67jnYue5BckKuKXqh6aGsyRB7qdC7REXM9qMUXqYO0QtCQMtcf6bPUUkz15+TIpUtJznmnlM5U4EwnMzzCZIZbaCBQu85xwa/c9KhB4X/xQJOKg1ez25uzAMmL1kHUAocM5yI+cn34DvVFMdiQ6+foVImXZmXTtnhxMKJjd9JU9KQ70PZ4oK65AWNDdKSeoKyQCVN+rIYnjxJGvKUKaZ+kQ6cIOlUoawQtJLfST5xnNLALtX6RxrZTI3hBMGaKX7WFPlGQ5ERw4aaFkmDkAYzeUDdA/KE3ykbpCFpR/BEXQZeQxknbSknNML5vLwHdRx/ky88ztRHMI2JBmF+/cz/5n/RYC9VkMj/oBeTYKDYa2lRDpiuRudDshtaQ+BYoZ6hbuAY5nOTLqQ/5YBpMKzhYME75ZoGH2nHcU66g1Ee8ohzEPUwvcKcb8gDyhCdWgQy9NjTEKNTiHMO70E9RkOmVOcTGtw0FvkMfO5iJFOOmWbfUEEracpxz7mZkWlwDFMXUa9wTqaNQp5wzif96ZQh31jLQTmgw4nvS71ERwPHD/U75wbyiE4bRs0YCaKsc7zzGPlN7zx1Gltg548E1hbHAOdk2iHUmfmBRBbSnQ4gOg9q2wlXLNp9nB/JgyRApTyQvtzHOjLOyez8yCZAlHOO13S7iu/MOYJ2FenJccgxTl2UtKuYds5mBEldRD6SZyuvvHJJ25C8D3nMSCTpz6YhxeB4ofOBgKm2QVexOB9yjNMRRp1BHlDXJ3nA8U1dQR1DenKcENBSxkljtm4nGGI0ijzg+bTrySNeQ7uHeoFRfNKa+pbXcy6m3NPJRjuXc2hNpvpVkmb/nogmDyPriMyhsUMvN9c0qCkaejQyGjJgAgWNipGDggM66dXkBM2N6UB8H3rBKagUXj4flTNBFhsA8DeNRE5iVMK8B4/zfApMfiOC/8XzeT0BE8+ZUoKmBIWOHmR2tMqaNpVG0MAapmS4vKFQsAmU+EmaUwFwHCYNXXrAOZnxHCp0CjXP4znkGScTgmMKOs+jwubGyYljgkYMDUjymY0j6M2igkgjH0sdKHLckQdccLemJ0rKEUE6x1RDlSPSkXShscJnpnJNRmhIb8oDU+ooa8k1HShH5AG/c6wRyJLOlAvKGq8nX3hvbqQ/dQPlhLJFoEsjkdcwJYAGSn0EiUldxi0/zwvh89FAoWFbquChJkhHAkjqMtKZMkAaknbkAfUSU01IX4JWHiMPQDmhjJOOHO+8B3/TaOF9SG+eT7mmB7HQiZ86jcYpJ2LKTqnw+fm81EOUhZqisc5U44aeFkkDhTQm/dJ5wLFDelIO+D6kFccKDXLSk/yjLqLcklfURdRnpCV/8zjlmeOdssLv5BuNIBqaTGsimKUOolyVGscWI3/kAd+nOnxm0r8+t7QuhHSiLuIYpi4n/bmB9CJPaMSRT3wnPic3vhOPU1bo4OE9yIMk30hT2gPkB3V90g5I3pcGIvUf709eEFDxe6nw+WisM+JBoFET/H86+Li2F9+xoVBfEOBwjJN+1P8c6+QNf1MmaTcldX1SDkjPpF1FHnE/z+H8wLkgv11FXZQ+x5FnnBeYSlcfxxx5wHHF+ZWAryb43HRgsj6wIfOAY5I8IP1Is3QecIxTl9NBxjFOHvA4nzWpV8gnzhec/3gOr6McUFfxfvzOcZ6u6znvcE6m3uLcR11ViqmqU5qSB00JDjAugHXJJZfk7qkaDT0CrHQBUPmRh0y3oVe/OvQo8NyGnJLXVFA2aDRScWVho5KbbrqppI1WTZiDT2cAowNZeUD9RV3GQthSjXhpAtKdKV70elaHoJXGokqLIIPNCRgxqw5rAtnavbE1mMqNwIARdUYns5DuzNphnbJKiw4iOmVqstkHZWCXXXbJ/aXGoKTT89JoQDAVgV4BhmaJXPNRsNn0gQZJQ/ZGqWbIQ+ZS0wPB9AUaj4UwnYHelCllW/HGhl186AmiHNFLlI/HGOUjuKUHSKVFPUXvJT3XVU0ToxePNQOcJBt6dKMpoC6iY4aeTxqM9Ibm49hnhzamI1EmVFr0lLMpAT3YjLYXwnmcPGBNaylHWjQBHWLUM5QBRj0KdeJQDpLNbMyD0iMPmBbIyCJ5UAidx7SJmCKsxqXegiZwoqPBRyODBl/+iY5eWeZ6MtzNczXlIV+oIKgomK/K0Hkaa5gYrmZqj+oHDUCm3tABwdx5RgATNNYpR2xSkUzbUenR+GBdAXUZUxDSgRP5wsJ8euEbag1TU0QeMNWWwInzSbocgBEmrhtoHtQfplGx1oERD9ZIpBEwsZEQQauN9fqTNNpZ48S0wHQ5oIOHdYeUBTui6wfnWKaLJxuA5AdOPMaaN3ZO5dygxqWo6XkEPSxGLdTLl4W5jiyEZcFqgmBq0003LfoERwMy2bUmjXmZ3OprTndjwYgf83E56RWDYImFtCyeTRqMrF9gNzMqiWKQhyz6z38d/4OTQCl3v5kScZKjPND4KwYjfSwQZ3OF5ERJWlE5FzstkrnJLJjNL3+st+BkXNfrXEzpGDViQXKx5YC1KiyCZWoGc7uTTgV6f4udkkcDlJHc/AuD89lYv0AdSVDcWLFWgU0qSMdiMGeezVcIXhNMTWXWAmlaDEbRGSnPb+RTBihv6e3tGyOm3LE5SFWzCKpCHrApAov0wTmXheFsBFLsaDfrH+iQyH8dZSBZW9GYsWYk2bSipqj/GfFjR8tkYwLqCjoxqdeLHWllvSi73qbxP1iDSh3X2Du2Oe/RLqpuCny+JA8YdQJ5wK6ppGWxa5g4hzM7K39KK5svcI5gHZfKr6igiQYbw77FHlgJCiEnSgp0bQMbCu4hhxwy2VxdPs8NN9wQF8wzPYY5v/Z0FcYJkrnOVBK1keQhBbu2aUwechwxLziNYIDdrtipjvzNrzwaC3poCTaLbSwmeB0BJulflzSiV558SGNLYy4Wy/Sa7bbbruiTb6VgMTUjQxzLtUHHAQ26uuQBgSuL62lophskF110Ubj22mvj7lBbbLFFoy0HbCrA9ZiSDoBiJeWADpbaBpekO2sx2c0rwXuSB+yeSnmgQd9YO+JYp8c5s7bndKYL04lalzwgaGKDA4LXNC62yewG1gjSUdpY84Dvx1rU2iIPqI+oq2ubB7yOTu10Bw71G+cBdlNj6nd6B+DGhuth0YasbV2UlINiOwzSmNZ96aWXxk64BJ0ajN4ymsXW84xu1TaPVRpFBU2MGBE4cVKpDV7P9qM0xpifXhs0NDjBpQs3BzpbJVLxss3iscceGwOnuhzAjRV5wJaR9BTWBj3zNDbp0SKNa4NCT/7Tu5XGSCEBHSMA7D7GFp2NMQ+pXGsz0pRgXQ27ubErUn7vYDFWWmml//Re8d7sYkkPMlP+uLhlY5zmwWLe5FoVtcFIEycxygA9i7XBKEcy4ppujLDjEcc/vbyUNS7A3BhPlDQIGL1ORq6LRQ/sBRdcEK/DVNvRCBrirAdM9wpzPuE8QjmgB/n000+Pz2mMHQjsIscoR23P6Y888ki8JVvR1wajg6wZzB9xpXxyLqdscF5IB7aNCccY37W22DKaSzWwU+GCCy6Yu7c4BK6kb7oeIpBmZglBNe0uygH1Fb83NtS55EFtOjJ5Ddt4M2pOJ0ttMVMhf9SbPKBj43//+18c7aNO4hp5jTEPKkVRQVNdMbrBVoeXXXZZHEkoZa8FBxc9+Fy3gkWqVOIshGzM07zKgakEbKdKQ4WRvVKiscICVyoIAju2rOU4cW725JhGwEgV6cSi61IiDyg/p5xySuyIYG425aix9vLW1j333BPzgF0NCXBKjevK0EihQcVoINd9Mg8mR8DF9XDogKADoJRoCNF5Q9BKjzvrNhkRbKyjfrVFDz11BVNWuZhlqdFop54jD+gUrUsnUWNFHUTnAdfWKXU5YASF8kW7iuCWn+SBjfZJ6AQlmGGGRrFLV2qCTiXKF+WAbbxpdzHipPJoNEc+hZgDiasU06jnAOYig6ocBNGsk2KrenqO6bW54oor4glTDYM8IO0pP/yk4c7JWA2Li7pycqTTh59MFatNL6hqh5E9puWxXoHRbnbC4mLKaljMSKChDjrQanqNIpUGox50TNDRzfoddjquyVbbKh06y7gwOZ0TdFrvsssu8aLBKo9G1V1Ag49hZubfMi+UYWUWDLNugQ0GGL0otGWzphzkIZsTsN6Bxd1cof22226L00eYrsQQerGLllUc8oAeLRqK7JRFZc18bzZB4IroTNE1D+pX0oHA2qZkdJ5rFNHrSF1Gw6W2U6pUM+QBaU8vPtNYGfFj5INjn1FY1ocayNYvOkMJXrnuFiMdNNrJA87jTM9kRNZzev0iDzgXMx2ZDkymSjKNm/qHCyuTD6pf5AFT90h7RrMInDj2adtyLmBTnNquS1RxKi5o4oRV3YmKq03T4GN7Wg6y888/P25tzoHG3F+VD9O/qHiry0NOkEzHYA41i+VZIMn8dqaj0WhX3VCOstaS0GBk9zbKEbtiUYYYfWIqGtMmWcdAXqp2aloOGO2j0d65c+eJi5VpvJMH9vjWDXlAR0B1xzEzGKh7uA4dm3OQH2xWwxqSQYMG5Z6l2qLxXV05YNoZ9Q+jfkxTYkYJ18AhPwptP6+aI+1r0gHDWhrKAc9nEyHW1TJ9e++99671xlKagOOX9eZZxzGj36xjZl8Azt90IDA1k3LAhh3JDn6qXxUVNLFolUJL4yFr7igNPgImprUQQNFDwsmNHqmzzz47bumr8mADCgo6J8DqekZoKDJXmMWtl1xySexhpHLntbXd9UwTts1ml0ICoax0pByx9TjpvcACC4TrrrsubhBBOWJND9syq3bYUIW6jBHV6jZCIHilp50RWOo08oC68Oabb849Q7XBFBeuKcTUx6y6iF5e1nEwbZjfaSzS007Dhc4cR/xqj41Y2B2MNRvVlQMCJ0a9qX/Y8fD777+Po65shOAU7tpjdzzWgFe37TnTxNZaa604XZLd3Nhhkg0UmH3ANHrVHh1gTD+ljZMVOJEHXGKEafPDhg0L11xzTTyHUx9RDqorQ6q7igqa2L2IOZ2ctAh+qusp5wRHw44TYnIgck2Dxx9/PP6uhkehJ2ilsVHdVrfkIY+z01m6J5ILyjFlT7XDOhl2KqS3NplyURXygF3eODmmyxGdEJxksyp4VY10pQOBTgF2XsrCc+kkooGZnorENfPoZVftcFzT4ONccsstt1QbOHG+odykn0c5YNq3aoc8IPChHNRkBznqG8pNcu4nL9hdzJGO2uOczDmVXY2rC5zYCIXzMemf7rim/PAeqh12zmPHTjrHqFOyzquMOHEeoB2VPI9zOBt2sIRB9auigiYOLKZqLbXUUrHRTIOPXvNCOJhYB8CQZxoFnalF9NSq4THtjl4trrtBLzs95+nCn8YJkbxKLt6XRu8wPY0qHpUu6Uc5oqeKKV/pxni+pEcxjXJHo722W3Y3ddRlTC1irQA/2WyjqlE/ToiUg/wrz4NeX0c6aoctfFn/Ovvss8dj/K677qqyI477Offkz3CgAUneVHUeUjbqoosvvjhefoKpv0y9zppFwhpX0jyNgIn6LKuhqaqx6Qy7RLKOlctMkAdVlQM6re+4447cX5NQBzHynZV3qhqzaRgMIB2ZasdasaqOZ9KYEdf8tOY1xV4kWcVrfuKJJ07YmqYB0ChgigNXbmeBOT2oxeJaDmxtSgOCTR44cGh4UPnm4/on9KJQ0NMNEq4PwiJrphzV5jM0ZQShTOtirRHXaqoNGow9evSIvbZcVZ5GIcdDoYvlEmSRR+Q302ES/D7TTDPFDT/oBW5KCCLvvPPOmP6c8GqD69IQNPFeNBYJmkjLQlsqk86M9LF7UrocUa7It3nmmSd3T9PB5Q3IA6arcCwXi2Oa+onpj2yzTzlga31OnvnlgOdSZign5Ff6ZMkUDdbc1PY6RZWMnm0aaszpZ8fU2uDYphww5ZEpYqQzU7sLnRdoVJL2HPfpTgbqMTYrIAhrahhlY0oRoxRMp64N0pXjlylKnNMJoDg/Fzqnc/4nQKVHPT37gOlJ1Iczzjhj7p6mgw1JXnvttbDpppvWqhxwrM8777yxHqHRzbpv8rJQvc75IZ0HyagrDXymHFMXUqaaEtKANCMfWGdUW3POOWdcN8lF/plqR/qzvCS/LkrOHbSBOCcn5YA8YF0T1w4s1JZSaVRc0AQaF1ydml1b2FGK4fpevXrFSjaJznlvdjziZMaF8zjAmIrBAUbjg94pLkqZvqihqleKoAkEQwS7jPjR+GTEgu1lyTcqIX5y4yTIRgTJ1eJZh0DDhXxkhIrFqVQgTUkpgibQQCRQ+uCDD2I5Il0pl5wY0+WIRg3liDynB5KAAfzOtWxYEM/zmpK6Bk1Ijm/qJ3oJH3rooXhV+OSK8Eke0ClAQ5L0Z4SWMkhdljRYqNsoO02tLitF0ATygHVjTI/hMhVMGevevXvMn3RdRAOG8wx1DuecZOE1DUjygAvgNjWlCJo4vgk4qXuYOs97MvrXpUuX+Fi6LiIPWF9GHjDTIBkBJ4ilY22jjTaKz2tK6ho0gTSj0U7wytb6jJ4SRJHeSMoBndDkC3mwxBJLxOUPdCKA8zFtLs5JhQLexqpUQRPHOvlHOaLzgLVmSeCE9PmAzjXygJ/Ug3TcgFFYnsdjqh8VGTSBBh8VZ9JDSAOOxh6L6WhY0xCh4BJxU5C5MOHKK68cCzkBE40Orj/AlrKquVIFTaBxQsVLoWdeOidBFrtz4dw33ngjNhCTPKT3qnfv3vFGoEUe0mghn+mVbEpKFTRR/ug1JJ3pYWRaBicAtu1np0kaIfTCU65YT0jDhiCBK8eTB5QlKmkaOPTONyWlCJpAHtCBwHHMSZK1AZQB6kp2aEtGADlRshYtqcv4n/T0Ug4YbaKnmIZ/U1KqoIk8oGOAcxLXAaIcUDcRGG2++ebx3EI5IA8ITPlfG264YTz/UBZ5Hh0P7GhIo7IpKUXQBNKWPKBuYdov53TqdeogNq1h1zyOb/KKvKExuckmm8TO06QcELwyckvjvykpRdAE0paRDoIiggCmz5MHnIvZrIPH+Ju8Ij/4nSCV5zPSR9uAepF8aUoXpC9V0ATaO9Tl1C3MAGGdHzOi6Jw85JBD4rmWY588II0pE5Q9zs10IFAXMZjA+bup1UUNpWKDJtDYoPHOQlJ6RuippQKl54OeQgp58j/4SW8t/5tKlYYhQRSNRtVcKYMmcAKkUUieMdrBYkYqYBa4U3GkTwLkIcHTeuutF3vBaETSo8LJtikpVdCUIB0JnAYPHhzLEPlApwINEcopDfV0WSUPGKWlHFF++BxNLQ9KFTQlaIR07do1BgKsz+BkSTl455134oUN6SRKcMKkbuN+0p8TKeWA+q0pKVXQlGDEmhFVFmIzPYZyQO85nQOkb3pEm/JADzB1ER1vSadOU+phR6mCpgTHOY1E8oBGI+cDAiemIdEYTzcEKQc02OlE4H4am4y4NrVzeqmCJnBcU69zbCcjr+QxIxlMI2Y0lXN2gnSn3iJv6Fhj5IO2Ab83FaUMmhLU6ZSn/v37x7qIkSfOx/wvlqekp9+RZ3Rach4m3RktpBw0tbqooVT8YhAibKYHsYCOObXg4KKniikT+Sjk9I6wAUFT65GaUtEA3GGHHeKUu/QGHTfddFPBjQY4WVJxkIf0LKrumKLEiQ9JHhCcPfHEEwUXBRNocZJm5zHzoO6SE18yDTWZdsRIHguEOVnm4wRJjyKbQdDjrrqjAchxTbCUrN8jL2gUFdoshWB3m222idcOKrQeUMWhHDD7gI4IRo6STR/oPGAEqhCCJHrhjzvuuIlTmVR75AH1EA1vzr9Ju4rzAaOwyTSxNIJdRsbZSCLdwaPaowOHjmNmEiT1Px0UhS4mTJ7Ruck1nAjcXNNUfyo+aGLkg4s9phdH0/imcNMTqSkfG3MU2n6cni56uVT/6HRgG3gaiwnyg+li6UBW9YeruhfaSp8OIB5T/WNEg+sApusigiW2hXe3zobBhhAESOnOGvKDzgHO96p/tJ/yd8mjE5p8oYyo/jEtkpkf6SCVIJYdP1U+FR80cUJjalB6yBhM96KxUahXRFMWTo5MfcmfB82IISMdnijrH+WE9M8vR1TSTMdMduhR/aG3kI0g8qe20KnAmr9CIx0qLdKYUVdGUtOYLvzMM8/k/lJ9oR5iWhHT5/NH7livwXTM/M411Q+mnObnAWtrWHup+sf5gPWt+dPsGG1ya/HyqfigiYOKNQBsHsBwZrqQ01PCkLKmbFTOXKuD6xOwdiDdcGcnH9baqH6R5lxln2sG5Zcj5lOz4YrqF9PzmO7IVCM2HkiCJwLWpBzYCVS/mLJ97bXXhv322y+ui03jmmb51whSadFQZEpS3759w1577RXXrqYbjYz45V8zTqXH9DymBe+2225xjQxT4sGUSQPXhrHSSivFUaWddtrpP+sFua5celaIGk7FB02g0c3cfnrEOZiodMFIBRdS1ZSPkSbWBvTr12/iRhMgD1kvoPqVzImmgiZ4orJOrn/G1FcuFO1IR/0iD1jITWOR9D/jjDPiGhuwMcc999wz2TRk1Q92p9p7771jRw4bFyVr9tit8/TTT4+/q/5Q57ArGJ0H5AFrNNjkAXQcMOLnyHf9oi4iYKUzmrqfDk02JwAbHjDyrfpFxyWdZ0cddVS44oor4nql5FpwjPaxu6EaXqMImkBFyy5G7KRDTwgnN3bXc5SictCblWw7S4VAAMwiX/Ow4ZAHBE9sx085Ou200+KiUnYQc5pkw6DBQgOFixSyKyh1GSNMH3/8sY3FBkKDhU0F2HKcGQtcyoJyUGgRtuoH53SCJTpymGpPIEunAQvj7Tyof9RDHPNsLc6W4+xkuOWWW8ZRJnb3VMNgxgG7EjIAwG6GzATh+GenaDW8RhM0pVHQ2QLVuZ+VjS2VmZbEFbLV8KisGf1jQw6mJjEVVg2LIHbbbbeNWzBffvnl/1lro/rH1NXjjz8+vPjii+H222/P3auGxPWxjj766DBw4MBw4IEHWg7KgHLAJim0qc4555zcvWpIrLdksyA2yGL0Tw2vUQZNCRp5NvQqGyNNTe26G1MaRmyprFUe9PiyMJ6NOvhd5cEoeFO6aOeUiI1SzIPyof5hiliyxknlwWwQOhLU8DzyJUmSJCmDQZMkSZIkZTBokiRJkqQMBk2SJEmSlMGgSZIkSZIyGDRJkiRJUgaDJkmSJEnKYNAkSZIkSRkMmiRJkiQpg0GTJEmSJGUwaFLR/vnnn3hTeZj+5Zekv/lQXqZ/ef3999+531ROnhOkhtGgQVNSqK1oK9eff/4Z8/Gvv/7K3aOGNmbMmDBq1Kjw/fff5+5RQxs2bFj8+e2338afanhjx46N5xIbi+Xz008/hfHjx1sXldHQoUPj+eD333/P3aOGRB1Ee8h6qGlo0KCpWbNm8edUUznAVammmWaamI/mYfm0aNEi5sOMM86Yu0cNrWPHjvFnu3bt4k81PMoBdVFyXlHDm3baaeO5YIYZZsjdo4Y266yzhpYtW4ZWrVrl7lFD4vhv3rx57i81drZ8VZSkkWLQVD5J0GQelE/r1q3jTxqNKg/rofJr06aNjcYyoy5KzgkqHztvmgbPOJIkSZKUwaBJkiRJkjIYNEmSJElSBoMmSZIkScpg0CRJkiRJGQyaJEmSJCmDQZMkSZIkZTBokiRJkqQMBk2SJEmSlMGgSZIkSZIyGDRJkiRJUgaDJkmSJEnKYNAkSZIkSRmajR8//p/c7yXx66+/hvPPPz+8/PLLuXsm+fd/hY8//jh06tQpdOjQIXfvJKuttlo46qijcn+pnK6//vpw88035/6aZNy4ceGTTz4JM8wwQ5h11llz906y7LLLhtNOOy33l+qiT58+BcvRqFGjwldffRVmmWWWguVo8803D7vsskto0aJF7h7V1gknnBBee+213F+T/PbbbzEPKAOUhXy77rpr2HrrrXN/qbZ+/PHHeD55/fXXc/dMMnLkyPDFF1+Ezp07h2mnnTZ37wQc+9ttt13Ydtttc/eoLtZZZ53w119/5f6a5Icffoi3ueaaK7Rt2zZ37yRnnHFGWHrppXN/qbaGDx8eTj755PDpp5/m7pmEMvLTTz+FOeaY4z/lAMcee2xYZZVVcn+ptgYPHhyOO+642MZN++eff8L3338f82HhhRfO3TsJ52he171799w9qmQlD5oovEcffXR44YUX/lNQObjGjh0bpp566tC8efPcvRMCLRomm2yySTjvvPNy96qc+vXrFy688MLQq1evMN100+XuneCPP/6IjZJ0Ho4YMSIMHDgwPv///u//cveqLvbcc8/wxBNPxM4EykyCcvTnn3+Gli1bhmbNmuXuneDxxx8Pe+yxRzjiiCPCNNNMk7tXtUXw+cYbb4TFFlvsP41CGu00UtJ5QOPm3XffDYcffnjYZ599cveqtkjPY445JjzzzDNhrbXWyt07wd9//x07caiLpppq0qQJXvPBBx+EAw44IN5Ud/POO288DyyzzDKT1fvkAeeDNm3a5O6Z4Oeff47lhs63lVdeOXevauvrr78Oe++9dzy2l1xyydy9E3A+IA9atWo1WV304Ycfhi+//DJcdNFFYYMNNsjdq9p67733wk477RQ7LfOPaQYEKAv559zPP/88tokvvvjisNxyy+XuVSWrt6CJqPuqq67K3TsJBxeVbrpw03tCr6xB05SDoOnWW28NV1xxRexFTKOhQh6mGypDhgwJBx10UOjatatBU4kkQVP//v1D69atc/dOkDQW8/Xo0SOOchg0lQZBE72I9JjPPvvsuXsnSBoqaQMGDIi9irvvvrtBUwkkQRP1y1133ZW7dwIai5xP6FBIn09orFMXGTSVDkHTIossEi677LLYWZMgD6iL8usaOtBo5F977bUGTSWQBE2MqjIDIR+d0fl5cMMNN8SOT4Om0kiCpgUXXDCmaxoBE7d05ybuv//+WGYMmhqPeguaKMT0MtUEQdPqq69eo6CJKP/ee++NlQgVNidLGpRU6DQY83uDed7tt98ePw+N/I033jge9MpG0ESBp+Kde+65c/dW7bPPPgs777xzmG+++aoNmjhGHnzwwfDtt9/Gv8kXeiq7desWll9++f80RMHIyj333BOnBm644YZhiSWWyD3SeCVBE73m+T25VZl//vljPlQXNDG97M4774xTayhH5MH0008fFl988dibnK78n3766f9Mj6K8NYUTMUETo6icJJn+Uh0a7AceeGDYcccdqw2avvnmm/DII4/EDibQEdGuXbt4bC+11FITe/TJH6YCUo8xKs+0zO233z507NgxPt6YJUETdQb1UU1wrJI+NQmamN533333hdGjR8e/KQekK2WAYzxdDn7//ffYicQ0HabhUD4L1VWNEUETxyVTtmvynckDpkZec8011QZNBMSUA9IXpPmMM84YZy3kn6spC9SHPJ/ylT7fc45gpJ36is/LiHtN680pXRI0LbroouF///tf7t5stL9OOumkGgVNBLmM5tJOAh1yTDsmDzinpDtIQT10yy23hJVWWimWkzTaAnfccUesOwtN4a9USdBE8HPJJZfk7s1Gm4UOt5oETd99912si3755Zf4N/U/dRFLHvKn9iXnBJ5POaO8JFgCw/9jJgRTlGlbq3QqbiMIpsNss802sfeXBiUnLypIDmJOlAxJJ6hEifIffvjhWJG+/fbbBdeAqGFRGW+xxRbhpZdeCk8++WTMQyrXc889N46S0ChJ0JP86quvhr322ivOqT/yyCObRMBU3wiQ1lhjjdi44UawSgODNTw0BilfIKhixJjptuQDNxrvjKiobhi56t27d7jttttiuhIo0TjhWCfwGjZsWDw5kgeXXnppnO7MekHqO06KyclVtUeHEA1KzhEEUDQSGTkh/VlDwjkElAfWhiywwALhnHPOiQ18OgeThr5qb5555onBwI033hg7EghYOeZZm3nKKafEDp4E9c6JJ54Y8yu9xope/qReOv744+NoGK+lw0PV45xK/UInKQER69DosNhhhx1i3cOoOqiPaGNRFjgvpOsgys0rr7wSDjvssBgsJK9RzdAZRoBEhzKdwwRZY8aMicH/oYceGqe8Jug4OP3002NwmgS6eOedd+JxT2cC+cG55PLLL4/tKJVGRe6eRwQ+22yzxeiag2z99dcP++6778RewwQVKBXrTTfdFCtUDp6ZZ54596jKieCXDUGSnhSCKEZHKPQ00MGJcNCgQbFnbc0114xTOPOnqan2CJJIf8rSCiusEHuluNHBQIcEOHEycsVJkJ5+RqcIsGjYqO7oxGF0iXqJdN1tt93i6Mhzzz0Xg1kaKdRr9MYnI0sETQRUNghLg/QnbZn61LNnz9hDTiDFMU+vLfUQHTw06Aly6XDgnEM5IZ9UN8wWoSONup0AisY7QStrOZmSyRrBBOt56OzJH+2iPDCdnMdpFzCjhJEBOkpVM5wHOLaZLbLiiiuGgw8+OP6kzuc8APJqoYUWio3xQpuvUH6YMaTikbbt27ePawdZEsEoHulMXUM54HyQIA9I5/R6c9q6jEgSNNFmYgMdgt+77757soBLdVORQRPSc9j5nYOHYf1kmgU9gEwlIIhiRz4i98YyVN9Y5A/5c+IkL5PeXXqx6Pliiga9jvnzhVU3pHW6HJG+NCBpJCbliBMojZQkWKUBT8XMqIhKI10O+J3GCz2DSTkgT2i00APJ/TQiGaVy1Lx00nmQlAN6askD0pzzBz3nyfOYqslzCKZUd/l1EUERxze96Ek5AOlfaAMcRjiY3jTnnHPGx+iEoFFPfaWaId3S5SCZHsZoR/7OieRP+rlptrPqJn1sM8WeQIq6KD1yx3N4LJ0H3MdUWDrVQHuKDmk63qrKKxWvolOSxh0VKsP3zMflZLfRRhvlHg1xdIJonEYGU454DgeQphzkISdG8pCh5plmmin2VoGdZ956660YENP7vummm8b1bOnhaNUdeUCFTDBEGaG3d911142PcXJMr61hl0umUzKVQKWT1GWs82PdDBuq0EvIyY4pZIzEMgWZcsC6KXogabSrNDi2aRiSB6wVePbZZ+MaWdYSkAc0BFl7xrSxNKfnlRZ5QCOdczZ1EY0+1lnmSzcswYggjcikwZ7kmVPEikM5oJOAdGN0m9FUOs3y1yaR/vl5kKjqftUc5YA8oLOGcsD0SaYO50unNcd8ejdX3oPR8VVXXXXiLAXVXUUHTZzEGHpk+tCbb74ZNy9I1rvQ0GaInmFKGtoM27PJRP4e+yofKmgaIUyf3GyzzeKJr2/fvhMXPbKglIqDRjr3M0zNuicajSodgiV2uWLuNI1GNvIotOkBC0tZMExAZc9VaZEHBEVbbrllHEWiLuvSpUt8jMYg18lhahiNecoENzuASoe0pIHConkWe3P8n3XWWXFUg844AihGW1kjS0cOa9BY52RjpLQ++uijmO777bdfXMDOObsmaUzdRF6ld/ZjuphlpDgETEyRP/XUU8NWW20V1l577biextGjhkXAesEFF8TNP1hHed111xW1tCSpzzif0z72fF06FZ2SDN8TRTOFiNEHAqVCBwdz1dlphx6soUOH5u5VudEjQh4ypMzIBVPC6D1PRjZYs8H89GRXRE6iDFU/9dRT8XGVBmnPNXD4yYhHVdO+GPnjpFqo51d1Q9pTDlhTwA6h6YYi5YCpeYyi06AkcKVx70YQpUNdxIge5SBpIKYbihzzdMBR/9CoJHDifFKo91e1xyg36ysJfjiXUx5qgvJCzzq3BB0LyblENUMHAY101jJxLoABU8Oj04a1fcnxX+xUbNYwMWWV9Zn5l8pQ3VR00ERPEvP/DznkkBhZ00NOgyMfJ0QqY4aY0z1RKj960elRZ9c2CjprmJIpLwRKnDiT3kIqEBqXTs8rLcpEskUvo3ssqM5HY+T999+PHRT5C4BVd+QBo+QsgGc0iTxgHjuYqsSGKFxglw0K2B2MBe4sfldpcI6gccj2yVzj6cUXXwzPP/987tEJ9RTThlkcv95668WAlY07aOCrdMgDFsAz4soMBHZXrQmms9KrnqzFpL5i9MkGf3EoB0kHJVOBmcnDBgRJAKWGwag264bZEZoykN7grDp0bFJ/ESzZwVl6FRs00ZCmIPOThjTDmETWyTWZqEA5sfEcbkx/YVvTZMqLyi/JG/KQzR5oDFJBPProo/F+rttEY5J5uaARSU8Y89xVd6R7Uo44WbKGhms+sMvkY489FivfBA0QRpqYOslzVTpJOaCDgPUDbNnLNVDYmY3GHw1B8oJ0p+ec4MprzZVWkgekMSN+BKfsPsV0Me5Hkv6s62PTAbZ/T+9epdpL10UEqOyUyu55Z599dhxZTfIAyXPTGPGjU5TLVfBczvecL+gsVc0k6c+N8yw7qTLLgympX375Ze5ZExTKg0TWY6oeaUe9Tx4wFZ5lCdQ1L7/88mQjqYXSmdFVlqOwNpZONpajsBkK526VRsUFTVSE7FHPtQLoaaUHlkYFvVMcXExbYf4njT6unM0F3pjawpQKdmCryYX5VL+Y1kJPOaMa7ArG1rDcx1RLGixU0mxzSqXBZh4PPfRQzG/WMnGhPXt3646OBUYwWPTO/Gnyg5Mla8sISik7bHOabFXK+g0q5Jpc6Fg1QyDKNC/SmHzgGKd+Y9txes65oC7HPlNUGVHv37//xLzice5T3bABDZem4FzCGgDWVdJRQ6OdqXjMYuBCqjxOHtGhQ/oz3TvZpUp1w/RTAiNmGHAu4GL3nKe5Jh+j2meeeWY8n4NglcCI9cyc+5OZJZQRrt9IncbICJsKcS7Jv/CqCqN+ZydI6iLKAI1sRjuoi7iPRjudODTCudA0ZYbf6VRIrqPF+YMOTvKQfKE+S0b+VD3SjLqF9CXtSFs6aRgQYIkJ12V64IEH4oAAz6EdzJrwpOzwejrbeB6j5FwUnPVoXMqFukulUXFBE719DB9zxX0uPkgjjgOLHj8KOBcepEHBiBLDmxRsKmCGm5lapPJL8out4Gmcs00svexMpWABMBfO4z62zKTxwsmPSpx8p/er2Pm9+i/KEcP3VKjckvWApDkXj+RK8vTSMgUW/KRjwuuclQ7lgLnrbG5CWWBdBnlAQ/G4446L02PII+o4TpzkEQ1KGvN0AFkO6o6OGfKAhgbz/5kCTNkgzWko7r///nEEg0YJve3s7skFPxnZIK9Ud+QBI9h0EpAHnAfIA65Vw0gTFzxPOgg4l7O2j7whXyhDCe5npJYGJaPmtAc4Z6h6jO7RPiIPqFtIN/KA6wGxjpL7qJ/IK84FbM5EW4vr9XFfgg4HNq1hAw86FdL5o2ykFevJzjjjjHjdUc4D1DFcz5K05nyQtJXIL6YHUw4IqMgDXs9sKuoypvWx4yqbedDB4zS90mk2fvz4ko6jUmFxpXR6shnlqQkaAgQ1bA9OYVP5sXsXFzNljVFNRhcYNWKXFipe1pap7tgmn4vM0qNU07n5jMSRDwRCVKyqGxpx9ITTmCi0o2A+RkNZl0SnDicr1Q0j0fSYcl6hPqoJRhpoNNDI4Ka6owHMtFCufViT2RrkAVN9r7nmmtjppbphuiEdJzSK2ZCkJmh/0fnF7Bumm6puGEFjZ83lllsu7nRaE1wgmyDo4osvjq9T5bOrTJIkSZIyGDRJkiRJUgaDJkmSJEnKYNAkSZIkSRkqNmhif3q2wmT7UbaKHTp06GTbW/I4O+dxQU52XksuiMq2mOxbzxbkbCPL83iMLRl5n+TGxgZsw5neF1+lRdpzLa0kD9lOmW2t08gb8pbtN8lPcM0a8oftZckjFMpDXscC8vxrGWgSygOL7ZM0o2ykr88EtsEmb3g8yR+eQ3pTjngN5YTHSPPkvbjxN+WU/6OqcRyn0yydBxy/bEZBGeCxBGlOviR1WZIH1HfJe1G2+JvXq2qkd7LtODe2Ts4vB5xf2I6ZuodLJICyQZ6QB2yHTV6x015SXtJ5wNbM1kVVo45gh8Ik3ciPfNTnlIPk2n1gC2aen5wPeB/yhXopeS9u5FNy7UYVRrqx6USSZhzT6fRK6qL8dhU/eT55wHma5/GTspK8F+WAc4bbkGcjvdN5wO9ppC35wrbkbL3P39y4hAVlgzzgOOc+tiHPzwPKBXWR5aB2KjZoouBde+21cYex3XffPW7JyJ71oPHALlZcpJPKlQLNAQSuNcA1gLj4F9cD4jopPMZBxFaNbHf99NNPh4cffjjuQMbuPxyAKj0qaPKI/GN7WHaZoeAnyE924iPPaKTQiOE1d9xxR7xSORUw+UMek4fkKVuYc5HcF154IeYz1yngOLGiLoxGCNv6kv7kA+lJIyRBhd23b9+YnlTAVLTcXn311Zi+BES33XZbePbZZ2P+UFbYspzyyGu41hPbaZNfyQlWk+PY5LglD7hdeeWVE+srUEdRTmiIJ3lDWlNH3XTTTfEEyvU52N2JvGE3UuoxdiLlgojsgEldxvXq8gMBTUBjnUtYUAb22muvWMdQ14C8YAdLLnZLg4Q8SBocjz/+eLx2CnUP5YTgKckDdlFk5zKur0U9xkWLuXh38r6aHI050owysMcee8SdQxOc07lW0xVXXBHr+yQNKTvkFfUPecDufqQ9ecbz2JKZLbOpr7jwPTv7Um9ZDgqjYU1dQR5QDji+k7qI4zq/XcV9lAeOb9pNNNCpd+iII89efPHFuOsfj1MOKEOUA3ZXTMqQJkdnQZIHlAMuVpugHUSdz86IBEzJcUwge+utt8ZzBe0i2jzkEWlMueJ8QHuX8wGvpRxQZlS8ig2aOLC4XgAHQ3I9jeRaDhw4FM6ePXuG3r17x73vuX4ABxPP5UrJXG2caxCwtTYBE7/zfvQSrrXWWnHbZi62ytaSTz31lJVsPUh61Gkwki9cSDK59gwVMg1vToQbbrhhvM4AFzDkQm407LkWBNvUc20Cgi2Qz1QqnEg33njj2ADiGgacNKkg0g1RTTgJcjE9tokn/ek04LjnooagvJA3XAOC63SQB2x9TnmhIc5W9CuuuGK8HhqNdnoWKVs0aHgeF5tmy27KJdciopde/8WxmVwXiBuNleTaJ5zk2HKbrYY53hdccMF4P2nJRby5Yjz1FOWGkyLX8CA/yQvuI9+4zg3l7PDDD4+BlSZH2tBzzjVnTj311Hgj3ZKttamnqENIV45pzhVcQ4X7acSzFTfnE7b7Z2thyhX5xagH1z3bdNNN4/kpqdMI0DQ5GthcRJi0ogxQp6+33noTH6PhyH0c72xhTnmhPudcz/mZssFFz0l7gqjkukM06KnPyE/qNq7DRXBM41//RXpyQXny4JRTTonn2eR6ZEnHAeeBpF1FGeFCqgSrXCNr7bXXjh1plAOuK0eZIIjlJ9cMom7jnEM5oLNHk+NYp5OYtEzOyZQJMIuAYIjjnUsqcK04rlXG9bS4MDF5RxlYZZVVYv1PZw75wwWeaRNxyQwu68N15qiLKAcEtypORQZNVJY0JqgYu3XrFnr06BF/8jc95xxoFGz2xU8aH7yGSpnonIYH9y+55JKxQL/55puxYqByTX5SuXLw8TcNFIOm0iI9b7zxxnixVBohVABcMI8giIqD6+LQwONitjQ8qBgo6PR80SCnEia/aZzQg04e8VoCX36Sh1yMjwCY1zGUbQ/v5KhYaTzMMssssfxQXrgeC8c8FTS9gzRC6O1KLnYIem3pUeQC0qQ1J08aiPRo8Tf5QvlK8mDZZZeNI4j0YmpyjMwRcHJi48YFCwn0wcgSARMNQhoypCt5QNmhB5cGIWWGY54LelOPMdJBHpD+3E/jnpMlecvILeVAkyMPOKa5kDD1CZ1tXESStKbOoAFI44QGIY0Q7ud8QuOcThrKAelNGpO+1EVJ+nOjvuKiuAS3dPYVmnbWlJGWTBuiMU0ZoOOFtCTNeIzjmtFXesc5r5O25AHnCRrs1DM8l7zhgtyUDaTLAXlAHiZ10aBBg+JzNAlBDI1v6hLSmQY452fSmnbVCSecEO/nIuekKzj+GcGj7FBmyAPaY48++mjsdCPtOZ9Qd1EXca4gb+lwsME+OY51ZnbQMUw6UReRVqQt52FG6phdQOcy93F8J6/jfjrJON8yQECnAs9ndkhyTk7KAa8lH+mQpv2r4lRk0ESDjsYBUTeRM9MiKIAcWPR4cDBQgAmSiNqJsnkNlW+7du0mXiWcxjiFn7m5+XgvelZARZxUEioN8ot0v+qqq2IPFCdFRvlAutODS88vJ9OHHnooViac7PibioHKGTT4CYoK9aDT4OFETKWRNGw0CR0IVJr0KG622WZx9IhACgRFNEiouJlmx0mQxh4VNA1M0pSeRFCeqKipoPPRwOd/cMKsyUWSmxrSmfrpuOOOi72HTGMkzTim6SmkYUhDkpMiHUUEStwIQElTGoygTNC4oY7LR7mi3FD3UQ40OeoW6hymkdILS7rTGAQNcBqSdCYwIsj0OhqQPE45aN++fcwH0MAE5598nH+oo3gODXxNwrmWDgLOCaQ/MwSY6kX9TZ1PftCJSZ1/3333xR51ygflhCCV45q6ncY55/Sq1u9RzihvlBk66jS5AQMGxLqa6XT77rtvPPapf5J2FXlEu4qOy6RdRVmgbiEg5RwAOmmocwiM8nHOoe7q1KlTzCtNkgRN3BiRS9dFSXBKujHtjovmMlWYMkBaUw4ImgiMOA9Qx1APUe/k4zxN3vAc8lPFqcigiQPjoIMOitNRGLpkmgqjFhwknNRoxNGgo0DTGKExSOXL39xP1J28D40/Cn+CRiNzqZlOxDQwGjLJNDCVDhUm02CY/kjPLr25zNWlEqAxQkXAdDxOhHfccUc48sgjY6XN1LBkCh+oqMnHZEMI0HNMI5Mrp3M8cKwwnYD30iSc3CgfzFGnB/bSSy+NwRF5wJxzygINQm5U2HROMFpBDyI9VslJkkqaPOAECyp/KnbygCk1r732Wthnn33iqIgmR48idQ1rXwgqWV9GkMoUFxoxyYmQvxlBpyyQP+RNErQi6UlMN9iZBkYQRh6QZ2eeeWbo3r177lElmMZFul9wwQUxCCK96KXleGZaGOlNo53jmhFwzjvUN5QFzjWkO/hJWUgaKkkwQB4wjZzGEHURnXCahHqZcwBTtigHpCPTIRmx4zinHCTnbdKQaUUEsqQvj5MHSd3Oc7g/jc4egi3ymE40RqwYDdHkGNXgPMy0MNpKjHIzbZUgNN2u4vyatKv4nbYV5+pE0pFD3iR4H87vrDcmyGVdEwGAJqHuoJOSep5OY6a1sz6M2SCcTxkdJf3JBzp5TjrppDh4QFuJPOA8nS4HdCwkZYGfBMQEW7SLqL/oJGLUScWpyFYkvUpzzTVXXEtB4eNERM8HPXkMMTPnmakUzGGmIqCXhAYEBxQHU37jOf03780ByJQZGjH0uCRD1CqdZCoFjXU2DmDuNA1CGn1M86JCZfSDaUn0PL7yyitxGh75kDTWQUOGW9JwAXlIRUIvDQEveUhFrckR+NCDTgOCtUtMH3rmmWdirxa9hzQmyRemqW6zzTax5zEpR0nPboI8SJcR8oNeRTo0mHK27bbbThwd1CQ0xhn9YSoMJ0GmnTL6SmOE9GMNDQH/FltsEfODhj1Ia+qyBOmP9H38TuOHBs/WW2892TodTUJDhHTnOKfjgHqJkQ4CVRruTF2lHGywwQYxDRn5ptHC8c9xnpQD8oRbulxQV7GjFY2VnXbaKb5Huv7ShHSjc4AOBOogzgccpxy35AGdmkyzZgo3sxIIbJmZgCQPEvn1EHicBiT5xtoz6qKkYa9JCHyYmsdaMjoHSHc6kKmHaFexfpV2FSMgSbuKkTvSu1C9wjkiQR4wQsiNcw3vlX5cE8oB5wPqec6ZnA9og7KGic4CjnXSn7RjAzSOdToD6NyhU580Th/7PD/9N/UOwRcjhczQIp8dDCje5NFDheGA4EBhtImRCwo5BxIHHgWSGycpev4YkmQ4ksY0FSi4nykA6R5boviNNtooHHDAAXF6Hzv20NOo+kEe0ninIuZ3GuzkIfdxYqPg0ztO5UFDkpNrugeLPCcPk01AQH6yEQQnWBqgTGvK733UJKQ7vVQ0DGlok1ZJHlDRkgc0aJgKSVrTqCSfknJEpc2UsaQC5v3oaGA92i677BJ72ukt4z1VGGnGMUzdQyOFtCXdqctIV+olglt6fanzaODQuZOgLiMPGD1MMGWGYJeGIj2XjDapauQBnStbbrllPM6p9ykLlAPKBflAJw/1Eo9THsgDfgd1EWWB54P8oyd3v/32iw0dFtEzNclyUDXyIOlESOp50j3pRSdgYroqPeX8nZSDpM6iXspvCHLep5FIwMuIOaMeqlpS39NpyTmXckDaJtMg0+0q0ps8oc5KMBsETBlO8H60qcgLgoH08/VfyfmATgTqddKfdKduSc4LrMknmOI+/qaNm8z2oC4ikE3KAq9hKh5TLxlUYFCAgFfFq+igKcEBwcgTvYWcpJgbnQQ6NKAp7ARVnPDouUrmPFPxcnDyujQONBrcVAwshqdX0RNd/SIPOVlSqTL6QWVNgAsaLDQaKfT0hDEaRaUAfk9OpGlUGEytZLib4WimyZiH2Uhnern4STpTCSdTjaiwk5MmjXcqZ/IInCRptOSP5vFcpuUR8LL+kFEPZSMgWnrppSeufUnvMEXDkfqM/KERQj2WrCOjEcL9vDaNcrPjjjvGOo1pTeZB9ag76BjgeKb+4DhPygGdCHTccCMQIj2TRiJ5RR6kA1dQP7GInjqOKd/pTh/9F+dkjlvSnnSm8Z3UNaQhQSsBK/ULa5PIgyTA5fdkbVkaz+WcTkcC02HdhKB6NMbZNIv0pF3F8Z3frqKckAeskUnKCDNFeA3n8TTOA2xiQNDKDISk7lLVONZJX9o+5Ad1Pu0YygjnA45nygrtH6YL09lGOeB32sT5I4CcX9jYiXzknJzkmWquIoMmGsCsl6DQEYXTk03PFAWcBgJzP5NeVeYwsyUshZuedCpbgiAOLNYOsIsINySjFhxQHIhs0ctJkKFqDkKVDiMPrJ+hkNOIYCod0/CoiJlSR4XAdDDyKamsyT+Gp+lZZPoYBZ6F7+Q5FTTP5f04JmjUU6HQq8Vxwlxte7cmRzlhbQDpRcOP+dE0BKlomapEQ4PpSUljhEY8J0M26CDApdecx1iQykmVMgbyJam8eQ2BE9P6KEdW0pNwTDOtmDUboLHBcc321KQz5YDNOJLeXuo9RlAJgJLpLTRASGvyjjyjDuTY5/nUZ5xcCYCZxkx9x/SzpDNCEzAllXqENKOuYfcq6hoaLGzXTv3BegAaK0xvoTGS9MRTTyXlgFkJTBnnMfKAfEnKAR1z5AHTjLlOkCZhtILpkMkoHNMZOW7pEaf+4NxO/pCm1B90fHIZCsoBzyF/6ADlfSg/jKyCdCdPuZ/3o9FO2eL/sGbK4HUS0pXr7ZE2oAzQ5mEKF4Er51jaUvntKhrrTP3lfm6cm1kPyH2MlNCeIh94fwJe6ijaVXfccUec+kf+aALSivMxdTlpRnpS93OMEzSx7o/pjZyvqVc4Z/MYbVS24ucczTHNY5QDpnVTP1GmSP9kxIogjHqNeo9prjxfNdf8xBNP7JP7vSSooJiDSQXHkHhNUAnecMMNMTNpFFeHheX0WDBHmR2NOHBY+0IjggYC78d8aBpqVLYswqXgJxE5Q/QcmAxP0qim8qXCYH4oFTAVLD3uNFzoJeT5fCca9JwQmwJO7jSYyUPSoDoUbtKPXkEadlmoEJjjz2JSAifyiEqWkUDSnv9Hw5yFo1QEPCdZn0bQy5SMq6++OjZkwCYR5BsXd+N44LPQo0IgRa8vNyoHNjfgtUnjfkrHGi6OUab38H1qgoXUdAIwJ5rjOgsXnmVhLicvpjAyNYyRCvKAnkTKC3lKZUvjnoYkvb/0thOQ0kjk83GSZF0hwRY96ZQVKm/KI5s/EFCR5+QZAQKvrZRde+6///74/fnuTIGoDovOOV7ZNpljOAsnMtKEESDSjOOZaaocnzQwaGiTvqQzjXmOay7+STozck5ZYI0T/5M6j+CUz8rFCznWGYWld5L3o17kGKJ3kZ2WGC0kf6d0lGsa1JxXmGpYE8nuUnxHblk4T5GGbELAOYPzAmsgqTsoB5wDaHhQFkl/8omLTtJpwPHAsUwZoQOCoJf1ODQ2KQfUawSulCWCWdZpErBSF9FxRxkgDysBaUQjmECRcl0d8oDOTOqUZAv9qpAmvD+BDIE9ARB5zf/jmOVcTCcbDXnKCI3EZH0e+UOjjw07eIxGOGvHyFfaFHQ6UA4oT+Qp70UwTP6QZ9RnlbCLGw1k2jscL3Sm1ASBDfU2DWqOvyyMYHA+pj6ivJEnnFc5F1MOqD8og6yHoTFPPU67ivN9MqJBfnPMU99ThqhnqG/YJZfPT15xzHNOIK+op6jXmIJWCTguKeu0J5JriFWHNOD8SB7kj0Dn4zhmOQEbZJFvBLCsZaWuoczxk/s5nikP1CuUL8oD9RCjp5Qf2scc00yP5z7ek/YcbSmOfc4rvBf1FI9xjuEcQQeFqtfs30qmpHOWyBh2p+EAoFDUBAWIioAGOruF1AQBESdUCiwntTQqTBoSfAYq7HTjkUibBgYnQAqwi3IL46K/NBg58dBDVx0KHoENJyWmNFaHPGJIn94V8ojCnI+KnAqCCiE/cKPAUxFTETXWPGSxJwENDSwavzVBhUg+cEVxKtMslA/KEXlBgyI/MKOsUJ4pSxwD6el3PEZgxEmvqvxrDHbZZZd4HDJKVt1JD5zMCGzomSWIqQ6BEyNIpD11Wf6xTLDJvHWCoUKPU49RFvhsNT1GKgknfXbx4jikPqoJAkam5rKGglt1SFvqItKW45wGdhp5wOcgrSknNBATPMYINnURDY/qOioqFd+bkQUW/6e/f1XIAzZcIDihU7M6NNIJOjmGOc7zAzPOE+QR9+c/Tl3EeYIAlceqq/cqEXUA61GS6eY1QfuLTmE60lhqUB3aU6Qx51oC1vxjmWOdYJjykn+s81gyI4SgqTGWAzYaIyCn85Zdf2uCzht242SmC6+rDscw5YDzAefV/HJA4Eoe0WFDJ0y6riLtOU5AOcivx1Qa9ZaqZC5DtTW9FYuDgpGp/IAJFFgCIqLp/MJLrwlROI17A6ZsNKoL5VVVNxrfNUW+kAfkYVUNbhrp9HAVGumiV4T8bQp5WCitq7oVM92BxgV5QC9kfsAEygojc2zEkQ6YwGOM3mblX2NBmhZK66puxZQDGqDszkawW+hY5sRHXVfV4+QBo9+NMWBKozFRKK0L3Wj8FYN0pZ5JRvjycR+NSPIpP2DgMXrQKUeNsaGYxnFdKL0L3civYsoBvebMAiE4y28ogvqJ47zQ49RFNCDJg8YYMKXRyVIovau6FYO2FHlAB0yhY5ljnXZVoWOdx8gD6qrGXg4KpXNVN8pBMajHOaeSxoXKAeda6iHyKL+u4vkEWtzyH1Pp1NtIE8PiNR32plFCb2kxI02qX4w00TtCHhYqvPnIQ0bwuFp4TUaaVL1kpImRNhoGNUGPKws9azLSpOox0sTaOoKTmjQG6GhgRIL0r8lIk7IlI01MO6np9BHygJGLmo40qXoEKxz/nA9qUheRB7QFGO2oyUiTsiUjTczoKNSJWAiNdspBTUealC0ZaSJd0zsDZiFoIuCv6UiTpnwlD0eTnjd65mi0pW9UukwHorckfT/RNdMi6NXWlIGKmV4l8iadV+QveUhlnL6f59H7Qd6rNGgkUi7oCU+nNT24yTSJ9P3ceD4N/JoGWcrGGgJ6UOnhS6dzMrWREfX0/awTotzkj8ypdjhnUKcw5SedztwoB6yv4Gf6fvKAHu+aNi5VPXqvKQf5dRGjelXlAXVRYx+Fbih0XNKmoiyk05kbDXOmUOfnAQ178qDQbBwVjzSlbqcTM53OBEW0hzgfpO/nlrSjajKlVZWh5CNNWZj7zQHHFdXZKc2GXeVhJIOK+NBDDw1nnnlm7l41JBaWci0Z5razfkkNj7nq5AEjsqxhUsNj9yc26GADB0a41fDYvOGUU06Ju9myM5oaHnUQG2nceOONloMyYL0dlxTo27dv/F2NmxMfJUmSJCmDQZMkSZIkZTBokiRJkqQMBk2SJEmSlMGgSZIkSZIyGDRJkiRJUgaDJkmSJEnKYNAkSZIkSRkMmiRJkiQpg0GTJEmSJGUwaFKNjRkzJrzzzjuhefPm4ffffw+jRo3KPaKG8scff4QhQ4aEv/76K3z99ddh7NixuUfUEP7555/w22+/hc8++yxMPfXU4aeffop5ooZF/fPhhx/Gumj48OHh77//zj2ihkA54Nj/9ttvw1RTTRW++eabMH78+Nyjagjkwffffx8+/fTTeD74+eef4081LPLgu+++i+eDL774IuaLGq/mJ554Yp/c7/Vu9OjR4dxzzw3rr79+WHLJJUOzZs1yj2hK98svv4R+/fqFK6+8Mvz6668TT5irrLJKbLio/tFYP+yww8L9998f0/+rr74KQ4cODcstt1xo1apV7lmqTz/++GM47bTTwt133x07EYYNGxYbKosvvnho0aJF7lmqT59//nk4/PDDw0MPPRQ7bigDBE49e/aMDXjVPxqJ1EXPP/98LAfkARZZZJHYeFT9omE+YMCAcMopp4Snnnoq5gHBU4cOHcJCCy2Ue5bqG53I1EXkBR2YH3zwQWwPkQfWRY2TQZOqRS/uPffcE04//fTwww8/xPtorFBBjBs3Lqy00krxPtUfTpLHH398uP3222PDHQRR5AEBEw1Gy1P9O++888I111wTRowYEdObEY/XX3891mddunTJPUv1hXrnpJNOCvfdd188/kF5GDRoUJhjjjlio131b/PNNw/9+/cPI0eOjOWAPHjjjTfCCiusEPNB9YtOgjPOOCM8+uij4c8//5w46vTMM8+E1VZbLcwyyyy5Z6q+0HG50UYbhffee2/ibANmfwwePDh069YtzDXXXPE+NS7Nxo8f32BjiVSss88+e9hzzz1D7969beRVCHpQLr/88vD222//Z+h5mmmmCRdffLG9i/WMkb5LLrkkTs3Lt9RSS4Xtt98+tGvXLneP6gPH/oEHHlhwWmr37t3DwQcfnPtL9YURjeuuuy6OsuYjcN1nn30c+a5nzDA48cQT/zMVjJ71jTfeOHaKqn4xqsTMj0JTg+nE3HnnnXN/qb688sor4cYbb/xPHlAO6OA84IADrIsaoQYNmmj4EYFT2RowVRZGlKritKT6R4O9qjUDlCUqZ8tU/bMclFd15cDOm/rHzIOq1s7QYLShWP+y8sBy0DBI/0JrKUl/pq4eccQRnhMaoQYNmjjZvfnmmwZNFYZ8o0eFKXr5lcSCCy4Ye7xUv2is07vLHOp8a6+9dthrr73iqJ/q19FHHx3efffd3F8T0EjcZptt4k31iylIF110UXjrrbdy90yyySabhN133z33l+oL08G23nrr/2xCwzn9qKOOCiuuuGLuHtUXNhw488wzw5dffpm7ZwIa6Yy2rrXWWrl7VF8++eSTeE5minZamzZt4tTJHXbYwXZuI9SgQZMqE727r732Wthvv/3iImz+pjKYbrrpwoMPPhgWXXTR3DNVn5588smwxx57xEo6yQPWD1x44YVh5ZVXzj1L9enpp5+ODXPW05AHBExzzz13uOuuu0Lnzp1zz1J9odOGqcKsjWVDGjC6wQL4J554IswzzzzxPtUvpkgyBYl1yqAc9OrVKwa0ruWof0wJo7OSqfHJ9DA6zejEZJ0TDXfVL+qivffeOzz88MNxIw5QDlhTdsEFF7iurJFq0I0gVJlonHfq1CnuCMOo02yzzRbX0ZxwwgmhR48euWepvrHRALu0JXnAGo5jjjnGjTgaEEEqDRMCJsoEDcXjjjsudO3a1V7FBkAaL7HEEhMbJDTQ6TA4//zz3YijAbHhBnUQjUTKBGuUmY5EHlgO6h/T7zgX0FlAHpDuzDg4++yz432qfxzn66yzThzdYwMIlp+w5vXYY4+NZUONkyNNKgrTxFgIT0+W08EaHo11giZ6eKeddlrnrpcJU5TIg7Zt2zpvvUzIA3rZyQMajmpY1EWkP/kw/fTTu8VymVAPcU7gfGA5aHhMU+UyFGzUxI56atys5VQUGojt27c3YCoTerfIA3bKM2Aqn5YtW8YeXQOm8iEPKAc2FMuDuqh169bxfGDAVD50YBK0Wg7Kg3Lg8d90mNOSJEmSlMGgSZIkSZIyGDRJkiRJUgaDJkmSJEnKYNAkSZIkSRkMmiRJkiQpg0GTJEmSJGUwaJIkSZKkDAZNkiRJkpTBoEmSJEmSMhg0SZIkSVIGgyZJkiRJymDQJEmSJEkZDJokSZIkKYNBkyRJkiRlMGiSJEmSpAwGTZIkSZKUwaBJkiRJkjIYNEmSJElSBoMmSZIkScpg0CRJkiRJGQyaJEmSJCmDQZMkSZIkZTBokiRJkqQMBk2SJEmSlMGgSZIkSZIyGDRJkiRJUgaDJkmSJEnKYNAkSZIkSRkMmiRJkiQpg0GTJEmSJGUwaJIkSZKkDAZNkiRJkpTBoEmSJEmSMhg0SZIkSVIGgyZJkiRJymDQJEmSJEkZDJokSZIkKYNBkyRJkiRlMGiSJEmSpAwGTZIkSZKUwaBJkiRJkjIYNEmSJElSBoMmSZIkScpg0CRJkiRJGQyaJEmSJCmDQZMkSZIkZTBokiRJkqQMBk2SJEmSlMGgSZIkSZIyGDRJkiRJUgaDJkmSJEnKYNAkSZIkSRkMmiRJkiQpg0GTJEmSJGUwaJIkSZKkDAZNkiRJkpTBoEmSJEmSMhg0SZIkSbXwzz//xJsaP4MmSZIkqUgES+PGjYs3NX4GTZIkSVKRmjVrFv7+++/wxx9/5O5RY2bQJEmSJEkZDJokSZIkKYNBkyRJkiRlMGiSJEmSpAwGTZIkSZKUwaBJkiRJkjIYNEmSJElSBoMmSZIkScpg0CRJkiRJGQyaJEmSJCmDQZMkSZIkZTBokiRJkqQMBk2SJEmSlMGgSZIkSZIyGDRJkiRJUgaDJkmSJEnKYNAkSZIkSRkMmiRJkiQpg0GTJEmSJGUwaJIkSZKkDAZNkiRJkpTBoEmSJEmSMhg0SZIkSVIGgyZJkiRJymDQJEmSJEkZDJokSZIkKUOz8ePH/5P7XZIkSRXi77//Dm+//XZ45513wr/tudCsWbMwzTTThFlmmSX07NkztG3bNvfMCf75558wePDg8NJLL4Wtt946tG7dOvdICO+++2647777QvPmzcO2224bOnfunHtEVRk3blw44YQTQt++fePvatwcaZIkSapAU001VVh44YXDsGHDwqmnnhp+++23eN/FF18cg6YXX3wxBkr466+/wuOPPx522223cMMNN0zWyP/ss8/ia37//fdw1113ha222ip88cUXuUclwaBJkiSpQjGyNPvss8dRo5VWWimOEvXr1y8GSQRCP/74Y3weI0irr7562GijjeJr0njOmWeeGc4+++w4avLTTz+Fjz/+OPeoJBg0SZIkVTBGl9JmmGGGMP3008eRpz///DN374TntWrVKk7jS+vRo0fo0KFD/L1du3ZhvvnmizdlIzAFaarGz6BJkiSpkWCd06uvvhqn1y2//PJhpplmyj0SYrCU3AoZOXJkeOihh8IRRxzhmqYauOeee8KTTz45MeBU42bQJEmSVOFYo/TII4+E/fbbL5x11llxqt1hhx0WWrZsmXtGtm+++SacccYZ4bbbbgvHH398GDRo0MT1UI0Z67yuu+66MHr06Nw92dhwY+jQoeGQQw4JJ554YujUqVO48sorc49Ojud+++234ZlnnglXX311uOqqq8ITTzwRvvvuuxjcJsaOHRvee++9cMopp4QBAwbk7tWUxqBJkqQmiAYdoxHsvkYDmZ8ffvhh+OGHH2JjmWldn376aXwsefyjjz4Kv/zyy2SNaX7/+eef4+5rPI/GH9PC1LCmnnrq0L1797i+ifVLiy++eFHTxnjdcccdFwMuGvEET+mpfY3VvffeGwOnZO1Xlj/++CM8+OCD4YADDogjTKwfO++888Jaa62Ve8YkTN1jxO9///tfeP/992N+sGnHW2+9FY488sj4GGUQo0aNioEVI1cjRoyI92nKY9AkSVITxBQtGtd333133Hnt9ddfD88//3zo06dP3EGNhjNrYOhFp2E4cODA2EtOw/qpp56Kj4OGNQ1J7j/22GPj5gMEUWpY5CeBzw477BBmnXXWcNJJJ8URjWJMO+20Yd111w2bbbZZDCKSPG7MCG5qMqLG5hiMxJ1++ukxXfidaYys/So03ZG0v/DCC8Occ84Z9thjj7D00kuHXr16xYBrxhlnDOecc07ctRBM71tllVUmm0qpKY9BkyRJTRAB0xxzzBEbbDSQ2Vltzz33jD3i7L7Wv3//MO+888aGND3i66yzTth///3ja3icESUwMkXgxO5rl1xySQy6aCiq4dF4n3vuueO0PEY0zj///Dg6UgyOC4Iu3id9HaemioDqtddeC+uvv3648cYbwzLLLBO3bN9www3DdNNNl3vWfzF6xTQ+gqH0FEnKE9fIYndCOh+S0SZGCkl7TbkMmiRJasLSO6/xOzup0fj+6quv4n3phhyPr7jiinHDAHreWZfxwgsvxMCJxh895TS4bfw1DBr0v/76a8wr1uQwnZKpkYsttlgMXhkZZB3Nl19+OfG5w4cPj9djYg0TIyaMtDCyyDQ1pl+++eabsUFPw75Fixa5/9Q00Zlw7bXXxnViHNOsYzr33HPjMV6dV155JbRv3z7uRpg/EsWIIBce5kLDTWE0r7EwaJIkSROxpoJGHo26QljTxHV+WC/D5gNff/11eOONN+I6DUY2+FsNIwmEGNlLGvYERCDoOfDAA+N9SZ7w2AILLBCn3xH0kn8EvtxP8MvIB6MjTCdbcMEF42uaIgJJNmRgoweOaUZf2ViDqXWMFNUEaUrQWagDgZEnytCYMWNqNDVQUwaDJkmSmjhGiWhYMw2JkYlu3bqFFVZYIfdoiI07HmfN0//93/+Fnj17hq5du8ZG4V577RXXMe2yyy7h4YcfDpdffvnEhrvqFyN/bA2+/fbbx6CVYIhRDO4nqN15553DvvvuG9fSEAjPNddc8bmMmJC/BADk4Y477hh3biMPN9100yZ9jSZG7K6//vqYRmz2sPfee8fNMTjm80eMsrCrHhs8FNpMIxnh69ixo6OyFcSgSZKkJo7RBqZkcaOhfdFFF8U1LQkaeeyex257LH6nB56peDTOmYLEOqetttoqbgTxzjvvONrUQGh40yiv642gmZEP1tUw+lToOVXdODbS22dXKkZ8mNrIMcxmDwRITFtkBI+LBRcTMGHVVVeN01iZBpk/mkQ5It2WWGKJmO6qDM3+LSiOC0qS1ERdcMEFcatjrlUzzzzz5O6d5Oijj45rZtj8YZZZZsndWxiNRIIqeudZV6P6xcgfo3vlRKOfEaouXbrk7qksTEVk7dJGG20Ut1nnukprr712HKFLdxwUix0kKTvTTz99DMQYVUruZ2dDAimuh5Wsj2Jb8kMPPTSWHzZl0ZTHoEmSpCaslEETPfWsAdl9993j9CTVL7aDZ+trpuixjXVDo6EPjh02EKlEBHysySOImW222cJBBx0UVl555Rjs1AWjb0OGDIlb+rPubKGFFor3sWaMXfcYmWWElhEsys3tt98ep7lusMEGYdddd407V2rKYtAkSVITxvVi7rvvvtjwnX/++XP3TnLwwQfH3neu1ZQfCBFMcUFbGpmsoWErZhqCa6yxhms1GgBBE2vQmE7GdYAaGgEbI12VHDRxrLLrIMHKUUcdVdLdHwnEWA/IdDw6H9imf5999olb96cvPMw0SwIn1kAxcseOe+ltyjVlaH7iiSf2yf0uSZKaCNajvPTSS+Hll1+euF6DBiM97PzNVDt2U2MXMdYu0ZAkIEpfu4eedEaqnnnmmbjmiYYz16UxYGoYbA9Oum+88cYx4CVvGvL24osvhg8++CD+f46NSsS27KxZYp0e0/E41kuFcsRGG6z/Y6t+dqYkzRhFYmSQx3gO/5P0pOyxOQdryzTlcaRJkiTVGtdoooecqXs0/NRwGGniOkIEruUY6SHQuPPOOyt6pIk1Tez2yJbi7C5Ynxh1ev311+O0Rqbrsa07HRWlDNRUf8wlSZJUa/Sis6bGgEnKRhlhKuuee+4ZFllkkcmm6GnK50iTJElN0B9//BGn1zFNT+XByMO/7bDQpk2b3D3FeeCBB+L0snKONLHjHLvAcW2vYrHmJ1nHU66tt7kGE9NJG2KkSZXNoEmSpCbo/vvvDwceeGC8Lo/Kgw0ASH+u2ZOsKysGmwWw4xs7G7KhQUNj4wSCJjYxIPgrFkETr2N6GrfapEFdtW3bNiy55JIxDZkuJ1XFoEmSpCaIne+efvrp2GBXeSQXh2WUpTYBA1tlsz6Gkabll18+d2/DOeGEE8Ktt94aNttsszDnnHPm7q25ZHc5Nj5INkVoaPfee2/o0KFD3EWy0Jb7tUG+skEGo2h8R/Ad2WqczSb4mY/XcFForhnF52HUi9ezOQRpk1yAmsfBDnsLL7zwZJuu8BwuLs3x1LVr15ieBLTs2sfIcvIap9LWjkGTJElSBXIjiLqrj40gGEH88ssvY/oQFO62224xaHrhhRfChx9+GLfxX2GFFXLPDnHL88suuyyuD1x00UXDTz/9FJ9HgMS27txPJwcXjea5jMptt9124cgjj5xsWiNbm3NR3vXWWy+umyJQ4vhYYIEFQvfu3cNjjz0Wg7htt93WwKkW3AhCkiRJKhFGf9hNsn379nH636qrrhqnTzKdkemUBxxwQAx+CGAYPeICu4wMHXLIITHg2XHHHcNOO+0UR5oIfAjCXnvttXjR20ceeSTemFrLCFSCkapLL700/PzzzxOn3PI/uI4am07wfxdbbLE4Ojl8+PD4uIpj0CRJkqQmiZEgbgQdyVS6UsnfSpwAaokllohBy9ChQ+PUudNOOy1uBLLRRhtNdkFbRocYTWL65rBhw+L1nRh54jUzzzzzxOupgedwkeH55psvTr9LEGwxQsWoFd+NESxGmLxwbu14cVtJkqQKxMVtn3vuudCpU6e4noU1MQ15YzMRrtNVyRe3veaaa8Jnn30WgxFGZAhGSoHRHtYMEoytv/76cXoeaXXTTTfFESRGjQhoLrnkkrDWWmuFddddd7I1Xfw+++yzx0Dr+++/j3n94IMPhvvuuy++PtmynHwfOHBg+Pzzz8Pmm28e/ydB1bLLLhsvlMvaKl7D+xE88X8IyLw2VPFc0yRJklSBWNPEmhdGKsqxZTdrgfi/lbymialxrDVKptT973//i5tqpAOY2hg9enQ45phjwjPPPBN69eoVR30GDx4cH2PTiaWWWipuQsGUPNY+sbaqEEaI2GGQ0TCCpeuvvz7cfPPN4aSTTgqbbLJJnI5HUMT1n1iTxbQ9Rpv222+/+J0Y0TrssMPiNL1DDz00/h+vD1U7Bk2SJEkV6KWXXgqPP/547q/yYF3NDjvsEC9wXIkIIgg8CDRYK8QIERsubLXVVqFjx465Z02QBDCMGlUXVCVB0y+//BKuuOKKOOLEqCCbdvDaiy++OO58SNDELoR77bVX7pXZCJxOPfXUOCWPAI/PTPC65pprxs923HHHxfVRvB+79D311FPhk08+CW+//XZcF8W6qq233rosQXalM2iSJElSk5TePY81Q+xiR3DB9Lbdd989LL300jFIAtP4CFIZ4WFjhSxJ0DRixIhw+eWXx9Edgi6mz7HJA9PzNtxww7jpAwHPueeeO9nGDmDqHSNU6fu579FHHw39+/ePI1TsoMf0PYIgHmN7cYIlPiNT8S666KI4wsTnZVTy3XffDeedd15c/6TiuKZJkiSpwtFgfv3118O3334bZp111olrVmios0MbU8Fo9DMFjc0AWAPz/PPPx0b2Rx99FEcpmOb36quvhgEDBsT7aLDPMMMMjXr9C+uEGLVhdztGaAiWWEfECA7T9niM+0kLgg+ezzS4bt26ZaZLoTVNjDD9+uuv4fbbb48jW5tuumkcBSJI69mzZ8ybZAQrWatE/nF9pQT3DxkyJK5XYjc8gp9lllkmLLfccnHKH1MAuZ+RMqbmvfXWW2GDDTaIo2YETuQt35H/peK4CkySJKmCsbsau7AxakHQQ8M6wcjCmWeeGbe9pqHNOiimeLHJAKMgrI1hpGLBBReMjxMIMF2MjR4IDprahgEEE4w+XX311TFg6tevX5zydsQRR8SglLRj9IbRqSwEO7yenwlGsrhuEqNCq6++egzOTj755LiJBqNGbAdO3hFoPfnkk/G6SwTA7JxHgEtgy3sQBHOdJwKxhRZaKAZN3AiaCI7IW4Ip8o/3I1ADI1bcV6rNLpoaR5okSZIqGNOxaDQzsjHvvPPG39kEgKCI6WYEROuss05spN92222x0c7ua2xBTWN85513DnPPPXf47rvv4igIa5S23377OCJV1w0RpnTpkSZGdPi+BIqMymyxxRYxDRl1Yv1REoyyKQProNh8gXTOx9S8J554Ir6GIItgiPVnXFw2CZQYWeL/8DfT6BjJ4rPwHNYfkR+rrbZafH/WQjHF7+WXX46jTEzrIyjKzxs+H9dm4rUEUwRQ5DVBF9+DUcUVV1wxPtbUguFScE2TJElShWMUggX+NIr33XffOKrAFDumlHExVYKmkSNHxnU2NPoZSSHI4m82J2AEgil8Xbp0iVtgN5VGdXpNE2mQxigRAc/BBx8cR/PSSF82eOjdu3funvpDUMd25WAkLFljVRMEUgTHfEdey2iiascwU5IkqcIx6pA/8sDIEVOzkulYNPQZTWEdTRrXKGJEih3wGN1wFGICgstLL700Xow2H2uWCDxJ4/rGaBFT7rgVEzCBvJxpppniCKQBU91YKiRJkhohpoYx0sA0OxBU0QAnGEgwQsUaJqbpFTuK0RgkwWZ+wInzzz8/bgbB1LlC2FTh7rvvjmmoxs+gSZIkqRFim+v0dtVMN6OBn764KUES1yVibQ3X/3nnnXdyjzQN7Dq35JJLFtwcgVGaVVZZJT5ngQUWiGuESC8CLB5j2twdd9wRtwBX42fQJEmS1AixXTgBEiNOIGBibcucc84Z/06wMQDX8GnZsmVc48QISlPBphf77LNPwaCJC8EybZERJ9Z9cX2jc845Jxx77LFxp0Ku4cT0PHa+U+Nn0CRJktQIsQMc65S4JhOYlsemAIye5OvevXucpsfOb2wcwQYITQEjcYyyFZqex30Ekmz7TWDJbnkbb7xx2GWXXeJFZVnvxM53+WvE1DgZNEmSJFUw1tz88ssvcUSJ2x9//BHvZ6SJ3d2YcseGEGxHzUYQ7KTHtYDYNptAip3ZmGrGNuR9+vSJ12g65JBD4lbXbFWtSQikmKLHhYA7dOgQgyrSTo2fQZMkSVIFI/D54IMP4rV/WHfz7bffxvtp3G+wwQZhiSWWCA899FAcEWGL7U6dOsWLpPI6Rk6YYvbVV1/F6XsEA4ykrLTSSuHNN9+M1wyS9G/A/G8B8TpNkiRJjRQjUYwYMSpCUFRoKpqKx7bjTGns27dv/F2NmyNNkiRJjVjz5s3jCBTX6TFgkmrHoEmSJEmSMhg0SZIkSVIGgyZJkiRJymDQJEmSJEkZDJokSZIkKYNBkyRJkiRlMGiSJEmSpAwGTZIkSZKUwaBJkiRJkjIYNEmSJElSBoMmSWokPvroo3DdddeF77//PnfP5MaNGxcee+yxcO2114bx48fH+/7+++/w1ltvhUsvvTT8/PPP8b4RI0aECy+8MLz33nvhn3/+ifdpcqTbLbfcEu67774wduzY3L2SpMbKoEmSyuCHH34IN9xwQ+jRo0fo1KlT2G677cIDDzwQG+M//fRTuOmmm0KvXr3CbLPNFjbbbLPw0EMPTQx08tFo5/Gddtopvufvv/+ee2RyY8aMCQMGDAiPPvpo+O2338KoUaPCzTffHLbddttw++23x8fx1VdfhccffzwGYX/99Ve8j+CJ/z+lBFEEgOX8LH/88UdMo1deeWViumWZ0tJP9YMOi9tuuy307Nkzlt2NN944XH/99bFMp1H+6eBYddVVw8wzzxy22WabcPDBB8fbgQceGMv8rrvuGoYNGxZuvfXWsMkmm8T3o07Yeuutww477BBfs/3224e+ffuGjz/+eGJZlVQ/mp944ol9cr9LkhrItNNOG7p37x6GDBkSg5NDDz00bLjhhmGqqaYKbdq0CYsuumj47LPP4mjPAQccEBtRzZs3z716cty/wAILhG+++SZ88cUX8X06duyYe3SSaaaZJnTt2jX07t07NsD4e6GFFgqvvvpqDLT4H9NPP32YYYYZYqNvscUWC61bt46vJTAYOHBgmHXWWav8HA2FIPGFF16IwWaLFi1y9zYs/u8yyywT04n0atasWe6RwkaPHh3zsl27djHd1ThRrhdZZJFYFsnv/fffPwY23J/G35RFyvgbb7wRzjrrrLDPPvuEtddeO95WWmml8Msvv4SllloqLL744vH4IUA/4YQT4o1gjA4XEKQ999xzsQ6YffbZ431qGHRyPfvsszFv/m1P5+5VY+VIkySVCQ1tGk8ESjSk0w1vfid44rFWrVpV2yhHfsMsH+8xyyyzhLnnnjt3TwhTTz11fP80gqIuXbqE6aabLv5Nw+Ddd98Nd999d5WjXQ3pmWeeCXfeeWfZp8XNMcccMXAjj6ozaNCgcO+998YRKjV+lB3KUVKGC+H+li1b5v6ahHLK6NMGG2wQyzR/8zzej04MXsfvc801VwzIGJ0aOnRoOO200/4zoiWpdAyaJKmMkmAoKyhKHmNq159//hnXHH377bfh119/jYFDMuUreR7TdBg5orebn8m0HX4yJe+7776bbCpP+n8n/4P1TbyWvxm9OuOMM+Lap08//TS+L6/neSNHjozvx/P5m+cTZPE7U5B4nM9bVWOO5zPVjs81fPjw+DwCi+Q7pfG+9Ogecsgh8TMwSsf/JZDjs9Izz4gYU6T4vzyfHnru5zMmacF78xoe43+ShkxX5D25L/nf/OT9krTge/A5k9dzH48laZn8vx9//DE+j/zhu3z44YfhsMMOC++//35s3PI/weuSz8d9vIb34P2Tx8hn3oP35DPm43l81yQdku+afE7wkzTm85I26TRO0oHXcB95xvN4jHTh96+//vo/x1ohfBb+L+/P+/C+yffh//AY34Njg59MPSN9k/dMP4/H+KzJ50zSNvnsfF++K/+zqu/Ga5LvxHvyfB4vhOfz/UhL8oLnJsczkv/P/RwH/MyalplVnqvD/yLNGcGsblSSEc9VVlklLLvssuHll1+OU2/5zHx2PmPyefn+kurG6XmSVEb9+/ePwcgaa6wRR4BoNCY3HmOEguk6TKOj8cc0nueffz6O/CQ9y0zzY7SIRhP3M3p0/vnnh3POOSeuu2Eq3rzzzhtee+210KdPn7jGYtNNN4291zSwWEtF44rpeTSueJwpQO3btw8LLrhgnH7CZ6QxSSONxmLbtm3jZhGPPPJInF54ySWXxJ+suaDBy8YS9IDT6LvoootCv3794vSjNP43n/+uu+6K70NQwRorpt7xefOnvdFwZyohNxrD9LbzHQhECEoIqD755JP4f/k+pAnflylQTz75ZPxMM800UxwhIq2OPvrouJaL9+AxAkPegylRTG+k4XrxxRfH93/99dfDZZddFjp06BDmnHPO+H5HHHFEeOedd8KKK64Y34PnsDkEa8J4nO/FdCny8O23346NVzBSwCgB6cp6Fb73ww8/HKdZMZLA52Mq5LHHHhv/P2nO/2IK1pZbbhnfAxwjpBXP438TSJBv5DtpxDQxvi/BFscDn4egl/zgfy+xxBLxc/F6NgchTY888siYNnwnnvfUU0/F4PS8884LX375ZZyymT8yCY4bjqM77rgjfPDBB/F/MbJGOpJmTz/9dJyC+tJLL8UA7dRTT43pzXdfeOGF4/MIWkgH1udxrJLefK/55psvHns8/5prronPO+aYY+KmJpQL8pC047vxGv7X0ksvHYNgysvxxx8fjyPShXzee++9c596Ao5DPhNrjJJjnd+ZNseUN8oB34k05NjmGLngggvi/65qOhzpz+sp1zyvEAI+yjjflSmzjE5xjPO5+W7zzDNPnM5JEMVUP8o9dQFlMo3jg+9OWjGyxXS+//u//4vlkfwlzXhOVZ9DtUfeOD2v6XCkSZLKjF5hGqc0btI3GjxpNJroSWbjBhrH66yzTgw2aKQnaLwSqBBEcBKnB/7ss8+OARcNck7yNDqrQoOeKWcEHTQmCUzWX3/9uH6HYIGAhOCKhiUB2X777ReOOuqo2Oij0cxnoVFNI43GOo3RHXfcMT4vHyME999/f2xgsvidwIDG8ODBg2PjnZGDNBrfG220UVxXRYOS9SKs62DKIQ1+RsRoUPK9CXxouJO2vCfvTcOZxjDBBg3hZOSA+1k3xggWaU7QQDqxMx6fnw02DjrooLDuuuvG78VjNJb5frxXggY/n23nnXeO34fefxrC/M36FRr/pAP5xugTn2X11VePeXXyySfHxwlg+P+8ju/E5yNPCDhI9zTyh7TmOxLY8Dy+K5/3zTffDGeeeWbMfxr8V111Vfz8PL7VVlvFvCIPSQeOGQIu0vfwww+P62UIvpkGyQYlpB3r5J544omJo2RpSeOfwGXPPfeMeXfKKafE45BjgwY/34djkPQkQCKQ2WOPPWLQR9BDXhA88JnYAIFgl/x48cUX41RMvic3AgqQTmyIQBBDWUm+G2Uj+W4E9khGyfhse+21V7wvje/PxisEhXxX3pv05n9TdvjOHKccJ3xmjpWVV1459+rSIMAiWOTGcUG6kL81QSfJjDPOGMsqI3gETxwPfF86KjbffPOJaxMl1Z5BkySVGY3L5ZdfPo4ipG80tNNohNPYZL3R559/HgMUGtbpaUI0fNdaa62wwgorxMYxDUsaUIxczD///HEUg8Z1VQhAllxyyThykoXnELh17tw5Bjd8Fj4HDVACB/4XjThGLAi6dt9999wrJ2HkhQYuoy5sQMHn4nWrrbZaHJGgIV4dGoOMqPC5GZ1iqhK7itGIJsggCKDxyWgRU69oQPO5+D+sG2E0i8CFURfSjffj+xAIgBEjRlx4HWnJSBrrTOjN57VpNPwvv/zyOHpEA58GPHlVCO9LQ55AicY4IwqsYSFNGKHhu5CONPwJsrbYYovJRplAAMcxwvMYpeR7sxsbDWU+H8EXgST/gyCGY4yRPY4d0oT8Ih0YjSJ44vvzP/hf3bp1iwEEwSnpwWgd34/jLR/pSvBOw53PwfchP/g8jNYRDPF+fEceJygjyCagIt35nKQvgQvBDqNrBL6kERui8D35DqQl/4PRG0ZcyA+CZo7D5LuRz3w3PhPHFa/h9WysQMBN0JOPQIz/xTHNSA3HB7/zGRndo+wQKBPcMVpFsExAwnFXKgRhBKisUeKY5TsWg+OV78135Sdlh8CPcsl78f0l1Y1BkySVGcECDUoa8ekbDbg0RjeYysS0OBqYNGjz8V7caLgSjNHY5CcjFuD+6mQFVeA9CL6Y7sO0OwIFXkODLcFzuBF88bPQe9IrTqM6/Ri/EwjQ8EtGFWoi+f80ePl//E7DlyAuGb0h2OF9uYHn8XxuoMee32kgg22daWwy5YsGNI1mHuP1hb4Tz6dRz4gHAQijBcnz8zHSxGO8D/jJCB/BC6MxyX18Hr5Lof+XxnP4/DyPIIgRNwIcRpoY2SEwZOoc21NzPCA/HXg9/4Mbxx8BBwEjgQJBLY8naZNGMEUgBt4r+UngR9DHKFYiSWNwfBMUEYQQLDLSQ5BNwMT0PabWcZwTXIH35PXJ9+Rz8t0IFJPvlkh/N258Z34m/zuNkSRu6fTleXw2Aks+P3nLNFiOBQLyBx98MPfM2slPR9KCOoAb+Uc6JCNl1WGkkbVvBE6UdwIwgko+I8ch6UI5kFQ3VdfAkqQpBo0s5s7TIGeqHD8Z5cmSNBwZ9WA0olRonDF1iWlY9LYzlYqRjaxGfSFJA5YGX7oRmTTqaTzWFsECwRxTt1jDwo1RuGLwPWlw0nhnRIYpdFdffXXB0RYwinLFFVfE0UDS4rjjjovTLgsFTXzHZIOCRBIQEAjUBcEBjXDynWCH6XGMsJDeBCQcP9VhdIg1c4wEETQRQPC+hfBdCdoIgNNTP5Pvw9S8qvA5CRT5rLwH63DSQRZTOPOnaSZIV74bUx6T78aIU7F4LcdfeporCPjJJwIZjh2CZqY8ks/kLeuGkhHJYvC5mYJa1XHE52FkjqApCUarwnuRPoyGkc6MSpKmjL4R4BF83XjjjbFzIz2VVFLxDJokqYySYKFQwzr9GL3JNNiZdsRifBqY/M5jNNxoXObjPhpn9D7T+K0LGsxJo4upVEzHYoSAEQwazXw+Pi83/m+h75OP0QyCLaZkEUAkaHyzeQXTEfPxOfh/fBa+N2lQCA1getoZbWLEhOfzufh8vK4mjd177rknjoYxzZERF67JROOUgKwQFu/T+GfdDJsGEKjSqOd/8pn5n6QL6Ufjnvfm/RKMBjKywahWsdINcAIxpqmR54xesRaJ44ARGRrUyXROPhfpUiivmDbJ52F0BeRvkmb5jX0a66Qz00DT6/BozPM/WF+WSL8PP5k+yGs5FkhfRgSZ3sh34HHWZnFfIXx2vhujdsl3Sz5b1nfLxzQ+NnxgDRd5kyANOXZ4jLzl83AsEEiTLqzp4/sUknzHQv+f92XaX9JpUAivIy1Z75f8XQhBarL5BscdaUma8T8YbWJNFtMteR9Hm6S6MWiSpDJiHQaNO6Y4pRtGNLp4jJ8EBgRJ9MizOxzT81ijwqJxeuXp8WaHNtbjMGpDo4nX0VCmUc6GCYw4cB+NPBpa/E/wk0Y0jyX30bgiwOB5fCYad7yeBi4bChC88Xn4LIy+sLMa63AIoujVZn0I/4f3SzdC8/GebBLB/2I0g//L/6AhTE8507vyJT3/H3/8cdzBjIYu+H+kU/IdCF5ID3YCZGc/Go+sy2EKGN+BBj5pnm7E81o+C/fR6GZHMtbXECTRqGcEiGlvfG6eQ7olgRgYfSNPeB+CPoImnk/AxPonGveMfpFGrDOhgct3IJ/47qQhjX/W3pDuvA/38zmrw+J/Rmn4LKxn4XuShqQVQQ358L///S/mFTv8EXwSGJHWfA/+TzoY4rsS8PF5zz333PiZCfJIOzYkSSOdWT/G92UElP9NwMWGBnwXRjsSvCfpwPdjlzvym0Y9oypsYEG6MZpDOqy33nrxMycjqqQ1eZx8To5LvhvHXfLdyO/kuxHU8PzkdVXhfzL9jlEdRmRIDz4nacMGIEyLHTBgQDxGKRPkJf+XwJfvXgidABwjlEf+P8hP3of3ZFMVPmfyuUj/BGlDGlLOGNUiT5NjO11H8BymLl555ZVxJJHRVMolxzb5xnuSrkwZZTdBjltJteeW45JUBvTCM5JBbzINVBp+NN4ZFSIQYuc2HqOBRoOJaU6bbLJJ/J0GGRse0MhkLQZrGFh7w8gCjSwaozQYGbHZbbfdYk8/DXemihFEJaMeTAHieeyURi89jTPup/FOg49GGq+lgZhsXU0gx6YO3M9zCSxokLFDF41N1jmx1opghsCF57MpADf+bxqNRhqPvJ6tu9mhjECMBf40mHk8H+nAmie+G41BNo3gdXwOGqcEGHwv0o1RFnZXI834fHw2vhc98NxPsEIQRkOU78L7JI1YgiQ+L/+Hnc248X9Jc9KF0RAarTTcaTjzGI1V0pKglUY3Df8111wzNmRZA0aek840bvl8jKyQ5owUJFtrs2NcklfkP+uwCHhI00KNXtKcIJXPQFrzOw113ocRSd6L1/J/WCtFIMrudOQlv/PZGJXj9aQdAQoNbV5DgEAgQXDHBgU0wvmd4zCdl+QTecExyLHLCB9pwGYkbErBNDdeyy54BP68L7tA8t5sVpBM/eM4I014PvnElEh2qmNUh/Rgeio4/vl8TJnjJ3nA+je+DzsV8t0YHeKYJd9IN9KQ44F0zz+u+C78L9KLz81nI2/57Hwnjg/yjuOFERvyhc+5yy67/Ge0iOcRsDG9kf9FoE4557szvY/vQBqw6Qf/hy3XOdZ4b9bAUR7ZhZH3oF5guh338X85dvjflC0COoJX8out8wlOKW8gYKU8JJcm4PsTVPF6lRblyi3Hm45m/1b+1Y9dS5KkKQ5BCmvLaDAzKjalIphgZz4CV0aEkga+VMnoqGFElymbyYiiGi+n50mSpHqVTCtLTy+TpEpi0CRJUgViahBT6lhzxYgTa324b0qSTH1kS3E+H1PnmAI5pX1OqS4KTSVW42PQJElSBSL4YB0Mu7+xXoc1WVXt7FdOrEFizQcXBmZtF7vhpTc+kCoVnQJMNWWdmho/1zRJkiRJRWIdE5cXuPbaa+OukGrcHGmSJEmSisS0PHZfTO8mqcbLXJYkSZKkDAZNkiRJkpTBoEmSJEmSMhg0SZIkSVIGgyZJkiRJymDQJEmSJEkZDJokSZIkKYNBkyRJkiRlMGiSJEmSpAwGTZIkSZKUwaBJkiRJkjIYNEmSJElSBoMmSZIkScrQbPz48f/kfpckSZKajP79+4e77ror/PNP8c1hXvPpp5+GL774Iqy++uq5e4s388wzh7322ivMNNNMuXs0JTJokiRJUpP0f//3f+Gcc87J/VUeM844Y/wcXbp0yd2jKZFBkyRJkpqkv//+O4wePTr+rI1khKpZs2bxZ21MPfXUoU2bNrm/NKUyaJIkSZKkDG4EIUmSJEkZHGmSJEmS/vXnn3+G2267LTz00EO1nrKXpUOHDuHss88OHTt2zN2jSuFIkyRJkvSv8ePHx8CpZcuWoVWrViW/jR07NowcOTL331RJHGmSJEmScsaMGRN+++23ehlpatGiRdwtT5XHoEmSJEmSMhg0SZIkSVVgW3Gm1I0bNy53T81MNdVUYdppp41bitdlS3JNGQyaJEmSpCoQMJ122mnh888/z91TMwRM++23X1hiiSUMmhoBgyZJkiSpClz89rrrrgtffvll7p6aad26ddhyyy1D165dDZoaAYMmSZIkqQpMz/vrr7+K3hiCQKl58+Zxmp4qn0GTJEmSJGUwaJIkSZKK9Nlnn4URI0bE3xlV6ty5c7x4rRongyZJkiSpCOykt/nmm8drOoEpeOuss0446KCD4t9qfAyaJEmSpCLdcMMNYejQofF31i6tu+66Yckll4x/q/ExaJIkSZKkDG7nIUmSJEkZDJokSZIkKYPT8yRJktTkcT2m3377LQwZMiR8+umn4c8//wzzzjtvmH322cOoUaNCmzZtwrPPPht+/PHHsPzyy4cePXrEtUz4/vvvw9NPPx2GDx8e5pxzzjDttNPG9xg5cmT8vVWrVvH1nTp1Ct26dQsdO3YMLVq0iK9VZXCkSZIkSU0aAdOHH34Y+vXrF/r37x+3D+/Zs2fcHe/qq68ODz/8cJhrrrnife+//3444YQTwsCBAyde8HammWYKiy++eHz+KqusEnr37h3fk0CqS5cuMcCaZZZZYtC1zz77hAceeCAGYqocBk2SJElq0r744otw5plnhvbt24dddtklLLPMMjHYWXXVVcOWW24Zpplmmrit+DzzzBMWWWSR+Pull14aR5MIjrhOEyNKjCTxXEageK+2bduGJZZYInTv3j2svvrq4fDDD4+BF4HYK6+8MjHo0pTPoEmSJElNFtdcuvfee8Pnn38eNtlkkzDddNPlHvm3ofxvcLTwwguHTTfdNHdPiMHRMcccE77++utwzTXXhJ9//jneT+CU3Koy/fTTh5122ikGVoxC/fHHH7lHNKUzaJIkSVKT9dNPP4X33nsvTp9jml2CEaQRI0aEb7/9NgZCBEfJyNDcc88dL2Q7aNCgcNddd8XAq6batWsX10oRpLFuSpXBoEmSJElNFqM9bNjAlLpkYwcQIA0ePDj07ds3HHvssXEt0/jx43OPhrDyyivHkan77rsvPPHEE5M9Vp3WrVvH9U9Oz6scBk2SJElqstjZjil3jDj9/vvvuXtDDKAWWmih0LJlyzgitOSSS8ZpdQles9VWW4VevXrFwIo1SoxOVYfnMGrVoUOHMPXUU+fu1ZTOoEmSJElN1gwzzBA3d/jhhx/iaFIa0/KSESjWN6XxGIHPgQceGGabbbZwxRVXhK+++ir36P+3d8e2iQVRGEbfajNCAmogIaMHKqAC+kAraqAGWiAgogAaQCJBghRiBNLqn7VXSCtfp2Z9TmIL3iP/NDN3PpbtfofDoRuNRm3FidcgmgAA+LZyX9J0Om1T7larVZuI93g83r79szL0LFvqnj/LGaXFYtENBoN2X9O7PPP8XN47n8/dcrlsU/Ymk4m7ml7Iz/l8/uvtfwAA+HYSPuPxuLter+3+pdPp1B2Px7bylAtrM4I8K0MZGLFer9vgh0RSJu1lxSnjxXMJbs5HZRtfVpI2m0233+/b9xlpvtvtuu12296ZzWbdcDj8Z/WKr+vH/X7/fPMlAAD85zKc4XK5tJWmnDfK6lDCJtvwcp4p0/RyHinnnPr9fttelyiK2+3WLqzNWPH8zXOJqDz7/lvZ5pff6vV6f9/jNYgmAACAgjVBAACAgmgCAAAoiCYAAICCaAIAACiIJgAAgIJoAgAAKIgmAACAgmgCAAAoiCYAAICCaAIAACiIJgAAgIJoAgAAKIgmAACAgmgCAAAoiCYAAICCaAIAACiIJgAAgIJoAgAAKIgmAACAgmgCAAAoiCYAAICCaAIAACiIJgAAgIJoAgAAKIgmAACAgmgCAAAoiCYAAICCaAIAACiIJgAAgIJoAgAAKIgmAACAgmgCAAAoiCYAAICCaAIAACiIJgAAgA913W893ZXDFysJ5QAAAABJRU5ErkJggg==;" parent="1" vertex="1">
          <mxGeometry x="780" y="-100" width="610" height="462.73" as="geometry" />
        </mxCell>
        <mxCell id="Yy0qseovy9o05Z6vf-ay-23" value="" style="edgeStyle=orthogonalEdgeStyle;rounded=0;orthogonalLoop=1;jettySize=auto;html=1;" parent="1" source="Yy0qseovy9o05Z6vf-ay-1" target="Yy0qseovy9o05Z6vf-ay-22" edge="1">
          <mxGeometry relative="1" as="geometry" />
        </mxCell>
        <mxCell id="Yy0qseovy9o05Z6vf-ay-1" value="Setar os bits PQ0, PQ1, PQ2, PQ3 para o Display 1" style="rounded=0;whiteSpace=wrap;html=1;" parent="1" vertex="1">
          <mxGeometry x="410" y="700" width="120" height="60" as="geometry" />
        </mxCell>
        <mxCell id="Yy0qseovy9o05Z6vf-ay-7" style="edgeStyle=orthogonalEdgeStyle;rounded=0;orthogonalLoop=1;jettySize=auto;html=1;exitX=0.5;exitY=1;exitDx=0;exitDy=0;entryX=0.5;entryY=0;entryDx=0;entryDy=0;" parent="1" source="Yy0qseovy9o05Z6vf-ay-2" target="Yy0qseovy9o05Z6vf-ay-3" edge="1">
          <mxGeometry relative="1" as="geometry" />
        </mxCell>
        <mxCell id="Yy0qseovy9o05Z6vf-ay-2" value="Inicializar as variáveis" style="shape=process;whiteSpace=wrap;html=1;backgroundOutline=1;" parent="1" vertex="1">
          <mxGeometry x="150" y="380" width="120" height="60" as="geometry" />
        </mxCell>
        <mxCell id="Yy0qseovy9o05Z6vf-ay-8" style="edgeStyle=orthogonalEdgeStyle;rounded=0;orthogonalLoop=1;jettySize=auto;html=1;exitX=0.5;exitY=1;exitDx=0;exitDy=0;entryX=0.5;entryY=0;entryDx=0;entryDy=0;" parent="1" source="Yy0qseovy9o05Z6vf-ay-3" target="Yy0qseovy9o05Z6vf-ay-4" edge="1">
          <mxGeometry relative="1" as="geometry" />
        </mxCell>
        <mxCell id="Yy0qseovy9o05Z6vf-ay-3" value="Configurar o RCGCGPIO" style="shape=process;whiteSpace=wrap;html=1;backgroundOutline=1;" parent="1" vertex="1">
          <mxGeometry x="150" y="470" width="120" height="60" as="geometry" />
        </mxCell>
        <mxCell id="Yy0qseovy9o05Z6vf-ay-9" style="edgeStyle=orthogonalEdgeStyle;rounded=0;orthogonalLoop=1;jettySize=auto;html=1;exitX=0.5;exitY=1;exitDx=0;exitDy=0;entryX=0.5;entryY=0;entryDx=0;entryDy=0;" parent="1" source="Yy0qseovy9o05Z6vf-ay-4" target="Yy0qseovy9o05Z6vf-ay-5" edge="1">
          <mxGeometry relative="1" as="geometry" />
        </mxCell>
        <mxCell id="Yy0qseovy9o05Z6vf-ay-4" value="Configurar o GPIOAMSEL" style="shape=process;whiteSpace=wrap;html=1;backgroundOutline=1;" parent="1" vertex="1">
          <mxGeometry x="150" y="560" width="120" height="60" as="geometry" />
        </mxCell>
        <mxCell id="Yy0qseovy9o05Z6vf-ay-10" style="edgeStyle=orthogonalEdgeStyle;rounded=0;orthogonalLoop=1;jettySize=auto;html=1;exitX=0.5;exitY=1;exitDx=0;exitDy=0;entryX=0.5;entryY=0;entryDx=0;entryDy=0;" parent="1" source="Yy0qseovy9o05Z6vf-ay-5" target="Yy0qseovy9o05Z6vf-ay-6" edge="1">
          <mxGeometry relative="1" as="geometry" />
        </mxCell>
        <mxCell id="Yy0qseovy9o05Z6vf-ay-5" value="Configurar o GPIOPCTL" style="shape=process;whiteSpace=wrap;html=1;backgroundOutline=1;" parent="1" vertex="1">
          <mxGeometry x="150" y="650" width="120" height="60" as="geometry" />
        </mxCell>
        <mxCell id="Yy0qseovy9o05Z6vf-ay-32" value="" style="edgeStyle=orthogonalEdgeStyle;rounded=0;orthogonalLoop=1;jettySize=auto;html=1;" parent="1" source="Yy0qseovy9o05Z6vf-ay-6" target="Yy0qseovy9o05Z6vf-ay-31" edge="1">
          <mxGeometry relative="1" as="geometry" />
        </mxCell>
        <mxCell id="Yy0qseovy9o05Z6vf-ay-6" value="Configurar o GPIODIR" style="shape=process;whiteSpace=wrap;html=1;backgroundOutline=1;" parent="1" vertex="1">
          <mxGeometry x="150" y="740" width="120" height="60" as="geometry" />
        </mxCell>
        <mxCell id="Yy0qseovy9o05Z6vf-ay-15" style="edgeStyle=orthogonalEdgeStyle;rounded=0;orthogonalLoop=1;jettySize=auto;html=1;exitX=0.5;exitY=1;exitDx=0;exitDy=0;entryX=0.5;entryY=0;entryDx=0;entryDy=0;" parent="1" source="Yy0qseovy9o05Z6vf-ay-11" target="Yy0qseovy9o05Z6vf-ay-14" edge="1">
          <mxGeometry relative="1" as="geometry" />
        </mxCell>
        <mxCell id="Yy0qseovy9o05Z6vf-ay-11" value="Configurar o GPIODIR" style="shape=process;whiteSpace=wrap;html=1;backgroundOutline=1;" parent="1" vertex="1">
          <mxGeometry x="410" y="380" width="120" height="60" as="geometry" />
        </mxCell>
        <mxCell id="Yy0qseovy9o05Z6vf-ay-13" value="Dúvida: Como setar &lt;br&gt;o display 2?" style="text;html=1;align=center;verticalAlign=middle;resizable=0;points=[];autosize=1;strokeColor=none;fillColor=none;" parent="1" vertex="1">
          <mxGeometry x="540" y="710" width="130" height="40" as="geometry" />
        </mxCell>
        <mxCell id="Yy0qseovy9o05Z6vf-ay-20" value="" style="edgeStyle=orthogonalEdgeStyle;rounded=0;orthogonalLoop=1;jettySize=auto;html=1;" parent="1" source="Yy0qseovy9o05Z6vf-ay-14" target="Yy0qseovy9o05Z6vf-ay-19" edge="1">
          <mxGeometry relative="1" as="geometry" />
        </mxCell>
        <mxCell id="Yy0qseovy9o05Z6vf-ay-14" value="Setar os bits PF0 e PF4 para LEDs&amp;nbsp;" style="rounded=0;whiteSpace=wrap;html=1;" parent="1" vertex="1">
          <mxGeometry x="410" y="490" width="120" height="60" as="geometry" />
        </mxCell>
        <mxCell id="Yy0qseovy9o05Z6vf-ay-17" value="LEDs da tiva: indica qual &lt;br&gt;botão foi pressionado" style="text;html=1;align=center;verticalAlign=middle;resizable=0;points=[];autosize=1;strokeColor=none;fillColor=none;" parent="1" vertex="1">
          <mxGeometry x="525" y="500" width="160" height="40" as="geometry" />
        </mxCell>
        <mxCell id="Yy0qseovy9o05Z6vf-ay-21" value="" style="edgeStyle=orthogonalEdgeStyle;rounded=0;orthogonalLoop=1;jettySize=auto;html=1;" parent="1" source="Yy0qseovy9o05Z6vf-ay-19" target="Yy0qseovy9o05Z6vf-ay-1" edge="1">
          <mxGeometry relative="1" as="geometry" />
        </mxCell>
        <mxCell id="Yy0qseovy9o05Z6vf-ay-19" value="Zerar J0 e J1 para os switches" style="rounded=0;whiteSpace=wrap;html=1;" parent="1" vertex="1">
          <mxGeometry x="410" y="590" width="120" height="60" as="geometry" />
        </mxCell>
        <mxCell id="Yy0qseovy9o05Z6vf-ay-29" value="" style="edgeStyle=orthogonalEdgeStyle;rounded=0;orthogonalLoop=1;jettySize=auto;html=1;" parent="1" source="Yy0qseovy9o05Z6vf-ay-22" target="Yy0qseovy9o05Z6vf-ay-28" edge="1">
          <mxGeometry relative="1" as="geometry" />
        </mxCell>
        <mxCell id="Yy0qseovy9o05Z6vf-ay-22" value="Setar os bits PP5 para transistor de LEDs" style="rounded=0;whiteSpace=wrap;html=1;" parent="1" vertex="1">
          <mxGeometry x="410" y="800" width="120" height="60" as="geometry" />
        </mxCell>
        <mxCell id="Yy0qseovy9o05Z6vf-ay-27" value="" style="edgeStyle=orthogonalEdgeStyle;rounded=0;orthogonalLoop=1;jettySize=auto;html=1;" parent="1" source="Yy0qseovy9o05Z6vf-ay-24" target="Yy0qseovy9o05Z6vf-ay-26" edge="1">
          <mxGeometry relative="1" as="geometry" />
        </mxCell>
        <mxCell id="Yy0qseovy9o05Z6vf-ay-24" value="Setar os bits PB4 e PB5 para transistor de display de 7 segmentos" style="rounded=0;whiteSpace=wrap;html=1;" parent="1" vertex="1">
          <mxGeometry x="395" y="1010" width="150" height="70" as="geometry" />
        </mxCell>
        <mxCell id="Yy0qseovy9o05Z6vf-ay-26" value="Return" style="rounded=1;whiteSpace=wrap;html=1;" parent="1" vertex="1">
          <mxGeometry x="410" y="1120" width="120" height="60" as="geometry" />
        </mxCell>
        <mxCell id="Yy0qseovy9o05Z6vf-ay-30" value="" style="edgeStyle=orthogonalEdgeStyle;rounded=0;orthogonalLoop=1;jettySize=auto;html=1;" parent="1" source="Yy0qseovy9o05Z6vf-ay-28" target="Yy0qseovy9o05Z6vf-ay-24" edge="1">
          <mxGeometry relative="1" as="geometry" />
        </mxCell>
        <mxCell id="Yy0qseovy9o05Z6vf-ay-28" value="Setar os bits P&lt;span style=&quot;white-space: pre;&quot;&gt;&#x9;&lt;/span&gt;A4, PA5, PA6 e PA7 para transistor de display de 7 segmentos" style="rounded=0;whiteSpace=wrap;html=1;" parent="1" vertex="1">
          <mxGeometry x="395" y="890" width="150" height="70" as="geometry" />
        </mxCell>
        <mxCell id="Yy0qseovy9o05Z6vf-ay-41" value="" style="edgeStyle=orthogonalEdgeStyle;rounded=0;orthogonalLoop=1;jettySize=auto;html=1;" parent="1" source="Yy0qseovy9o05Z6vf-ay-31" target="Yy0qseovy9o05Z6vf-ay-40" edge="1">
          <mxGeometry relative="1" as="geometry" />
        </mxCell>
        <mxCell id="Yy0qseovy9o05Z6vf-ay-31" value="Configurar o GPIOAFSEL" style="shape=process;whiteSpace=wrap;html=1;backgroundOutline=1;" parent="1" vertex="1">
          <mxGeometry x="150" y="830" width="120" height="60" as="geometry" />
        </mxCell>
        <mxCell id="Yy0qseovy9o05Z6vf-ay-37" value="" style="edgeStyle=orthogonalEdgeStyle;rounded=0;orthogonalLoop=1;jettySize=auto;html=1;" parent="1" source="Yy0qseovy9o05Z6vf-ay-33" target="Yy0qseovy9o05Z6vf-ay-36" edge="1">
          <mxGeometry relative="1" as="geometry" />
        </mxCell>
        <mxCell id="Yy0qseovy9o05Z6vf-ay-33" value="Configurar o GPIOAFSEL" style="shape=process;whiteSpace=wrap;html=1;backgroundOutline=1;" parent="1" vertex="1">
          <mxGeometry x="755" y="400" width="120" height="60" as="geometry" />
        </mxCell>
        <mxCell id="Yy0qseovy9o05Z6vf-ay-39" value="" style="edgeStyle=orthogonalEdgeStyle;rounded=0;orthogonalLoop=1;jettySize=auto;html=1;" parent="1" source="Yy0qseovy9o05Z6vf-ay-36" target="Yy0qseovy9o05Z6vf-ay-38" edge="1">
          <mxGeometry relative="1" as="geometry" />
        </mxCell>
        <mxCell id="Yy0qseovy9o05Z6vf-ay-36" value="Zerar os bits da porta A, B, F, J, Q, P para função alternativa" style="rounded=0;whiteSpace=wrap;html=1;" parent="1" vertex="1">
          <mxGeometry x="740" y="510" width="150" height="70" as="geometry" />
        </mxCell>
        <mxCell id="Yy0qseovy9o05Z6vf-ay-38" value="Return" style="rounded=1;whiteSpace=wrap;html=1;" parent="1" vertex="1">
          <mxGeometry x="755" y="620" width="120" height="60" as="geometry" />
        </mxCell>
        <mxCell id="Yy0qseovy9o05Z6vf-ay-61" value="" style="edgeStyle=orthogonalEdgeStyle;rounded=0;orthogonalLoop=1;jettySize=auto;html=1;" parent="1" source="Yy0qseovy9o05Z6vf-ay-40" target="Yy0qseovy9o05Z6vf-ay-60" edge="1">
          <mxGeometry relative="1" as="geometry" />
        </mxCell>
        <mxCell id="Yy0qseovy9o05Z6vf-ay-40" value="Configurar o GPIODEN" style="shape=process;whiteSpace=wrap;html=1;backgroundOutline=1;" parent="1" vertex="1">
          <mxGeometry x="150" y="930" width="120" height="60" as="geometry" />
        </mxCell>
        <mxCell id="Yy0qseovy9o05Z6vf-ay-44" value="" style="edgeStyle=orthogonalEdgeStyle;rounded=0;orthogonalLoop=1;jettySize=auto;html=1;" parent="1" source="Yy0qseovy9o05Z6vf-ay-42" target="Yy0qseovy9o05Z6vf-ay-43" edge="1">
          <mxGeometry relative="1" as="geometry" />
        </mxCell>
        <mxCell id="Yy0qseovy9o05Z6vf-ay-42" value="Configurar o GPIODEN" style="shape=process;whiteSpace=wrap;html=1;backgroundOutline=1;" parent="1" vertex="1">
          <mxGeometry x="1030" y="400" width="120" height="60" as="geometry" />
        </mxCell>
        <mxCell id="Yy0qseovy9o05Z6vf-ay-46" value="" style="edgeStyle=orthogonalEdgeStyle;rounded=0;orthogonalLoop=1;jettySize=auto;html=1;" parent="1" source="Yy0qseovy9o05Z6vf-ay-43" target="Yy0qseovy9o05Z6vf-ay-45" edge="1">
          <mxGeometry relative="1" as="geometry" />
        </mxCell>
        <mxCell id="Yy0qseovy9o05Z6vf-ay-43" value="Setar os bits PF0 e PF4 para LEDs&amp;nbsp;" style="rounded=0;whiteSpace=wrap;html=1;" parent="1" vertex="1">
          <mxGeometry x="1030" y="510" width="120" height="60" as="geometry" />
        </mxCell>
        <mxCell id="Yy0qseovy9o05Z6vf-ay-50" value="" style="edgeStyle=orthogonalEdgeStyle;rounded=0;orthogonalLoop=1;jettySize=auto;html=1;" parent="1" source="Yy0qseovy9o05Z6vf-ay-45" target="Yy0qseovy9o05Z6vf-ay-49" edge="1">
          <mxGeometry relative="1" as="geometry" />
        </mxCell>
        <mxCell id="Yy0qseovy9o05Z6vf-ay-45" value="Zerar J0 e J1 para os switches" style="rounded=0;whiteSpace=wrap;html=1;" parent="1" vertex="1">
          <mxGeometry x="1030" y="610" width="120" height="60" as="geometry" />
        </mxCell>
        <mxCell id="Yy0qseovy9o05Z6vf-ay-52" value="" style="edgeStyle=orthogonalEdgeStyle;rounded=0;orthogonalLoop=1;jettySize=auto;html=1;" parent="1" source="Yy0qseovy9o05Z6vf-ay-49" target="Yy0qseovy9o05Z6vf-ay-51" edge="1">
          <mxGeometry relative="1" as="geometry" />
        </mxCell>
        <mxCell id="Yy0qseovy9o05Z6vf-ay-49" value="Setar os bits PQ0, PQ1, PQ2, PQ3 para o Display 1" style="rounded=0;whiteSpace=wrap;html=1;" parent="1" vertex="1">
          <mxGeometry x="1030" y="720" width="120" height="60" as="geometry" />
        </mxCell>
        <mxCell id="Yy0qseovy9o05Z6vf-ay-56" value="" style="edgeStyle=orthogonalEdgeStyle;rounded=0;orthogonalLoop=1;jettySize=auto;html=1;" parent="1" source="Yy0qseovy9o05Z6vf-ay-51" target="Yy0qseovy9o05Z6vf-ay-55" edge="1">
          <mxGeometry relative="1" as="geometry" />
        </mxCell>
        <mxCell id="Yy0qseovy9o05Z6vf-ay-51" value="Setar os bits PP5 para transistor de LEDs" style="rounded=0;whiteSpace=wrap;html=1;" parent="1" vertex="1">
          <mxGeometry x="1030" y="820" width="120" height="60" as="geometry" />
        </mxCell>
        <mxCell id="Yy0qseovy9o05Z6vf-ay-59" value="" style="edgeStyle=orthogonalEdgeStyle;rounded=0;orthogonalLoop=1;jettySize=auto;html=1;" parent="1" source="Yy0qseovy9o05Z6vf-ay-53" target="Yy0qseovy9o05Z6vf-ay-58" edge="1">
          <mxGeometry relative="1" as="geometry" />
        </mxCell>
        <mxCell id="Yy0qseovy9o05Z6vf-ay-53" value="Setar os bits PB4 e PB5 para transistor de display de 7 segmentos" style="rounded=0;whiteSpace=wrap;html=1;" parent="1" vertex="1">
          <mxGeometry x="1015" y="1030" width="150" height="70" as="geometry" />
        </mxCell>
        <mxCell id="Yy0qseovy9o05Z6vf-ay-57" value="" style="edgeStyle=orthogonalEdgeStyle;rounded=0;orthogonalLoop=1;jettySize=auto;html=1;" parent="1" source="Yy0qseovy9o05Z6vf-ay-55" target="Yy0qseovy9o05Z6vf-ay-53" edge="1">
          <mxGeometry relative="1" as="geometry" />
        </mxCell>
        <mxCell id="Yy0qseovy9o05Z6vf-ay-55" value="Setar os bits P&lt;span style=&quot;white-space: pre;&quot;&gt;&#x9;&lt;/span&gt;A4, PA5, PA6 e PA7 para transistor de display de 7 segmentos" style="rounded=0;whiteSpace=wrap;html=1;" parent="1" vertex="1">
          <mxGeometry x="1015" y="925" width="150" height="70" as="geometry" />
        </mxCell>
        <mxCell id="Yy0qseovy9o05Z6vf-ay-58" value="Return" style="rounded=1;whiteSpace=wrap;html=1;" parent="1" vertex="1">
          <mxGeometry x="1030" y="1150" width="120" height="60" as="geometry" />
        </mxCell>
        <mxCell id="Yy0qseovy9o05Z6vf-ay-60" value="Configurar o GPIOPUR" style="shape=process;whiteSpace=wrap;html=1;backgroundOutline=1;" parent="1" vertex="1">
          <mxGeometry x="150" y="1030" width="120" height="60" as="geometry" />
        </mxCell>
        <mxCell id="Yy0qseovy9o05Z6vf-ay-64" value="" style="edgeStyle=orthogonalEdgeStyle;rounded=0;orthogonalLoop=1;jettySize=auto;html=1;" parent="1" source="Yy0qseovy9o05Z6vf-ay-62" target="Yy0qseovy9o05Z6vf-ay-63" edge="1">
          <mxGeometry relative="1" as="geometry" />
        </mxCell>
        <mxCell id="Yy0qseovy9o05Z6vf-ay-62" value="Configurar o GPIOPUR" style="shape=process;whiteSpace=wrap;html=1;backgroundOutline=1;" parent="1" vertex="1">
          <mxGeometry x="1250" y="400" width="120" height="60" as="geometry" />
        </mxCell>
        <mxCell id="Yy0qseovy9o05Z6vf-ay-66" value="" style="edgeStyle=orthogonalEdgeStyle;rounded=0;orthogonalLoop=1;jettySize=auto;html=1;" parent="1" source="Yy0qseovy9o05Z6vf-ay-63" target="Yy0qseovy9o05Z6vf-ay-65" edge="1">
          <mxGeometry relative="1" as="geometry" />
        </mxCell>
        <mxCell id="Yy0qseovy9o05Z6vf-ay-63" value="Setar J0 e J1 para switches" style="rounded=0;whiteSpace=wrap;html=1;" parent="1" vertex="1">
          <mxGeometry x="1235" y="500" width="150" height="70" as="geometry" />
        </mxCell>
        <mxCell id="Yy0qseovy9o05Z6vf-ay-65" value="Return" style="rounded=1;whiteSpace=wrap;html=1;" parent="1" vertex="1">
          <mxGeometry x="1250" y="610" width="120" height="60" as="geometry" />
        </mxCell>
      </root>
    </mxGraphModel>
  </diagram>
  <diagram id="12n9J0o6cW3_Dv-Pi39V" name="Funcoes">
    <mxGraphModel dx="223" dy="638" grid="1" gridSize="10" guides="1" tooltips="1" connect="1" arrows="1" fold="1" page="1" pageScale="1" pageWidth="827" pageHeight="1169" math="0" shadow="0">
      <root>
        <mxCell id="0" />
        <mxCell id="1" parent="0" />
        <mxCell id="SY7ZyqxUyYxwySH58R4g-2" style="edgeStyle=orthogonalEdgeStyle;rounded=0;orthogonalLoop=1;jettySize=auto;html=1;exitX=1;exitY=0.5;exitDx=0;exitDy=0;entryX=0;entryY=0.5;entryDx=0;entryDy=0;" parent="1" source="SY7ZyqxUyYxwySH58R4g-3" target="SY7ZyqxUyYxwySH58R4g-6" edge="1">
          <mxGeometry relative="1" as="geometry" />
        </mxCell>
        <mxCell id="0asVuwPht94GZcDjgvMz-3" style="edgeStyle=orthogonalEdgeStyle;rounded=0;orthogonalLoop=1;jettySize=auto;html=1;exitX=0.5;exitY=1;exitDx=0;exitDy=0;" parent="1" source="SY7ZyqxUyYxwySH58R4g-3" target="SY7ZyqxUyYxwySH58R4g-4" edge="1">
          <mxGeometry relative="1" as="geometry" />
        </mxCell>
        <mxCell id="SY7ZyqxUyYxwySH58R4g-3" value="Número da tabuada &lt;br&gt;==8?" style="rhombus;whiteSpace=wrap;html=1;" parent="1" vertex="1">
          <mxGeometry x="1000" y="600" width="160" height="80" as="geometry" />
        </mxCell>
        <mxCell id="JR9Rdh7s3W0-7exf9pFp-12" value="" style="edgeStyle=orthogonalEdgeStyle;rounded=0;orthogonalLoop=1;jettySize=auto;html=1;" parent="1" source="SY7ZyqxUyYxwySH58R4g-4" target="JR9Rdh7s3W0-7exf9pFp-11" edge="1">
          <mxGeometry relative="1" as="geometry" />
        </mxCell>
        <mxCell id="SY7ZyqxUyYxwySH58R4g-4" value="Número da tabuada &lt;br&gt;= 1" style="whiteSpace=wrap;html=1;" parent="1" vertex="1">
          <mxGeometry x="1020" y="750" width="120" height="60" as="geometry" />
        </mxCell>
        <mxCell id="SY7ZyqxUyYxwySH58R4g-5" value="SIM" style="text;html=1;align=center;verticalAlign=middle;resizable=0;points=[];autosize=1;strokeColor=none;fillColor=none;" parent="1" vertex="1">
          <mxGeometry x="1100" y="700" width="40" height="30" as="geometry" />
        </mxCell>
        <mxCell id="JR9Rdh7s3W0-7exf9pFp-14" style="edgeStyle=orthogonalEdgeStyle;rounded=0;orthogonalLoop=1;jettySize=auto;html=1;entryX=1;entryY=0.5;entryDx=0;entryDy=0;" parent="1" source="SY7ZyqxUyYxwySH58R4g-6" target="JR9Rdh7s3W0-7exf9pFp-11" edge="1">
          <mxGeometry relative="1" as="geometry">
            <Array as="points">
              <mxPoint x="1310" y="890" />
            </Array>
          </mxGeometry>
        </mxCell>
        <mxCell id="SY7ZyqxUyYxwySH58R4g-6" value="Número da tabuada ++" style="shape=process;whiteSpace=wrap;html=1;backgroundOutline=1;" parent="1" vertex="1">
          <mxGeometry x="1250" y="610" width="120" height="60" as="geometry" />
        </mxCell>
        <mxCell id="SY7ZyqxUyYxwySH58R4g-7" value="NÃO" style="text;html=1;align=center;verticalAlign=middle;resizable=0;points=[];autosize=1;strokeColor=none;fillColor=none;" parent="1" vertex="1">
          <mxGeometry x="1170" y="610" width="50" height="30" as="geometry" />
        </mxCell>
        <mxCell id="0asVuwPht94GZcDjgvMz-4" style="edgeStyle=orthogonalEdgeStyle;rounded=0;orthogonalLoop=1;jettySize=auto;html=1;exitX=0.5;exitY=1;exitDx=0;exitDy=0;entryX=0.5;entryY=0;entryDx=0;entryDy=0;" parent="1" source="0asVuwPht94GZcDjgvMz-1" target="SY7ZyqxUyYxwySH58R4g-3" edge="1">
          <mxGeometry relative="1" as="geometry" />
        </mxCell>
        <mxCell id="0asVuwPht94GZcDjgvMz-1" value="IncrementaTabuada" style="shape=process;whiteSpace=wrap;html=1;backgroundOutline=1;" parent="1" vertex="1">
          <mxGeometry x="1000" y="470" width="160" height="60" as="geometry" />
        </mxCell>
        <mxCell id="0asVuwPht94GZcDjgvMz-5" value="return" style="rounded=1;whiteSpace=wrap;html=1;" parent="1" vertex="1">
          <mxGeometry x="1020" y="970" width="120" height="60" as="geometry" />
        </mxCell>
        <mxCell id="VVFsdzeKNKtDxpCyFiGO-5" value="" style="edgeStyle=orthogonalEdgeStyle;rounded=0;orthogonalLoop=1;jettySize=auto;html=1;" parent="1" source="vqIJHSpau4ho7zohqYFd-1" target="VVFsdzeKNKtDxpCyFiGO-1" edge="1">
          <mxGeometry relative="1" as="geometry" />
        </mxCell>
        <mxCell id="vqIJHSpau4ho7zohqYFd-1" value="IncrementaMultiplicador" style="shape=process;whiteSpace=wrap;html=1;backgroundOutline=1;" parent="1" vertex="1">
          <mxGeometry x="1510" y="460" width="180" height="60" as="geometry" />
        </mxCell>
        <mxCell id="VVFsdzeKNKtDxpCyFiGO-3" value="" style="edgeStyle=orthogonalEdgeStyle;rounded=0;orthogonalLoop=1;jettySize=auto;html=1;" parent="1" source="VVFsdzeKNKtDxpCyFiGO-1" target="VVFsdzeKNKtDxpCyFiGO-2" edge="1">
          <mxGeometry relative="1" as="geometry" />
        </mxCell>
        <mxCell id="VVFsdzeKNKtDxpCyFiGO-7" style="edgeStyle=orthogonalEdgeStyle;rounded=0;orthogonalLoop=1;jettySize=auto;html=1;exitX=0.5;exitY=1;exitDx=0;exitDy=0;entryX=0.5;entryY=0;entryDx=0;entryDy=0;" parent="1" source="VVFsdzeKNKtDxpCyFiGO-1" target="VVFsdzeKNKtDxpCyFiGO-6" edge="1">
          <mxGeometry relative="1" as="geometry" />
        </mxCell>
        <mxCell id="VVFsdzeKNKtDxpCyFiGO-1" value="Número multiplicador&lt;br&gt;== 9?" style="rhombus;whiteSpace=wrap;html=1;" parent="1" vertex="1">
          <mxGeometry x="1520" y="590" width="160" height="80" as="geometry" />
        </mxCell>
        <mxCell id="VVFsdzeKNKtDxpCyFiGO-10" style="edgeStyle=orthogonalEdgeStyle;rounded=0;orthogonalLoop=1;jettySize=auto;html=1;exitX=0.5;exitY=1;exitDx=0;exitDy=0;entryX=1;entryY=0.5;entryDx=0;entryDy=0;" parent="1" source="VVFsdzeKNKtDxpCyFiGO-2" target="VVFsdzeKNKtDxpCyFiGO-8" edge="1">
          <mxGeometry relative="1" as="geometry" />
        </mxCell>
        <mxCell id="VVFsdzeKNKtDxpCyFiGO-2" value="Número multiplicador ++" style="shape=process;whiteSpace=wrap;html=1;backgroundOutline=1;" parent="1" vertex="1">
          <mxGeometry x="1760" y="600" width="120" height="60" as="geometry" />
        </mxCell>
        <mxCell id="VVFsdzeKNKtDxpCyFiGO-4" value="NÃO" style="text;html=1;align=center;verticalAlign=middle;resizable=0;points=[];autosize=1;strokeColor=none;fillColor=none;" parent="1" vertex="1">
          <mxGeometry x="1690" y="600" width="50" height="30" as="geometry" />
        </mxCell>
        <mxCell id="JR9Rdh7s3W0-7exf9pFp-16" value="" style="edgeStyle=orthogonalEdgeStyle;rounded=0;orthogonalLoop=1;jettySize=auto;html=1;" parent="1" source="VVFsdzeKNKtDxpCyFiGO-6" target="JR9Rdh7s3W0-7exf9pFp-15" edge="1">
          <mxGeometry relative="1" as="geometry" />
        </mxCell>
        <mxCell id="VVFsdzeKNKtDxpCyFiGO-6" value="Número multiplicador&lt;br&gt;= 1" style="whiteSpace=wrap;html=1;" parent="1" vertex="1">
          <mxGeometry x="1540" y="740" width="120" height="60" as="geometry" />
        </mxCell>
        <mxCell id="VVFsdzeKNKtDxpCyFiGO-8" value="return" style="rounded=1;whiteSpace=wrap;html=1;" parent="1" vertex="1">
          <mxGeometry x="1540" y="980" width="120" height="60" as="geometry" />
        </mxCell>
        <mxCell id="JR9Rdh7s3W0-7exf9pFp-3" style="edgeStyle=orthogonalEdgeStyle;rounded=0;orthogonalLoop=1;jettySize=auto;html=1;exitX=0.5;exitY=1;exitDx=0;exitDy=0;entryX=0.5;entryY=0;entryDx=0;entryDy=0;" parent="1" source="JR9Rdh7s3W0-7exf9pFp-1" target="JR9Rdh7s3W0-7exf9pFp-2" edge="1">
          <mxGeometry relative="1" as="geometry" />
        </mxCell>
        <mxCell id="JR9Rdh7s3W0-7exf9pFp-1" value="Multiplicacao" style="shape=process;whiteSpace=wrap;html=1;backgroundOutline=1;" parent="1" vertex="1">
          <mxGeometry x="2030" y="331" width="120" height="60" as="geometry" />
        </mxCell>
        <mxCell id="JR9Rdh7s3W0-7exf9pFp-5" value="" style="edgeStyle=orthogonalEdgeStyle;rounded=0;orthogonalLoop=1;jettySize=auto;html=1;" parent="1" source="JR9Rdh7s3W0-7exf9pFp-2" target="JR9Rdh7s3W0-7exf9pFp-4" edge="1">
          <mxGeometry relative="1" as="geometry" />
        </mxCell>
        <mxCell id="JR9Rdh7s3W0-7exf9pFp-2" value="LDR R0, =MULTIPLICADOR" style="whiteSpace=wrap;html=1;" parent="1" vertex="1">
          <mxGeometry x="2020" y="441" width="140" height="60" as="geometry" />
        </mxCell>
        <mxCell id="JR9Rdh7s3W0-7exf9pFp-19" value="" style="edgeStyle=orthogonalEdgeStyle;rounded=0;orthogonalLoop=1;jettySize=auto;html=1;" parent="1" source="JR9Rdh7s3W0-7exf9pFp-4" target="JR9Rdh7s3W0-7exf9pFp-18" edge="1">
          <mxGeometry relative="1" as="geometry" />
        </mxCell>
        <mxCell id="JR9Rdh7s3W0-7exf9pFp-4" value="LDR R1, =TABUADA" style="whiteSpace=wrap;html=1;" parent="1" vertex="1">
          <mxGeometry x="2020" y="551" width="140" height="60" as="geometry" />
        </mxCell>
        <mxCell id="JR9Rdh7s3W0-7exf9pFp-22" value="" style="edgeStyle=orthogonalEdgeStyle;rounded=0;orthogonalLoop=1;jettySize=auto;html=1;" parent="1" source="JR9Rdh7s3W0-7exf9pFp-6" target="JR9Rdh7s3W0-7exf9pFp-21" edge="1">
          <mxGeometry relative="1" as="geometry" />
        </mxCell>
        <mxCell id="JR9Rdh7s3W0-7exf9pFp-6" value="MUL R2, R0, R1" style="whiteSpace=wrap;html=1;" parent="1" vertex="1">
          <mxGeometry x="2020" y="761" width="140" height="60" as="geometry" />
        </mxCell>
        <mxCell id="JR9Rdh7s3W0-7exf9pFp-9" value="return MULTIPLICACAO" style="rounded=1;whiteSpace=wrap;html=1;" parent="1" vertex="1">
          <mxGeometry x="2030" y="980" width="120" height="60" as="geometry" />
        </mxCell>
        <mxCell id="JR9Rdh7s3W0-7exf9pFp-13" value="" style="edgeStyle=orthogonalEdgeStyle;rounded=0;orthogonalLoop=1;jettySize=auto;html=1;" parent="1" source="JR9Rdh7s3W0-7exf9pFp-11" target="0asVuwPht94GZcDjgvMz-5" edge="1">
          <mxGeometry relative="1" as="geometry" />
        </mxCell>
        <mxCell id="JR9Rdh7s3W0-7exf9pFp-11" value="Armazena o número da tabuada no endereço de memoria da constante TABUADA" style="whiteSpace=wrap;html=1;" parent="1" vertex="1">
          <mxGeometry x="985" y="860" width="190" height="60" as="geometry" />
        </mxCell>
        <mxCell id="JR9Rdh7s3W0-7exf9pFp-17" value="" style="edgeStyle=orthogonalEdgeStyle;rounded=0;orthogonalLoop=1;jettySize=auto;html=1;" parent="1" source="JR9Rdh7s3W0-7exf9pFp-15" target="VVFsdzeKNKtDxpCyFiGO-8" edge="1">
          <mxGeometry relative="1" as="geometry" />
        </mxCell>
        <mxCell id="JR9Rdh7s3W0-7exf9pFp-15" value="Armazena o número da tabuada no endereço de memoria da constante MULTIPLICADOR" style="whiteSpace=wrap;html=1;" parent="1" vertex="1">
          <mxGeometry x="1505" y="850" width="190" height="60" as="geometry" />
        </mxCell>
        <mxCell id="JR9Rdh7s3W0-7exf9pFp-20" value="" style="edgeStyle=orthogonalEdgeStyle;rounded=0;orthogonalLoop=1;jettySize=auto;html=1;" parent="1" source="JR9Rdh7s3W0-7exf9pFp-18" target="JR9Rdh7s3W0-7exf9pFp-6" edge="1">
          <mxGeometry relative="1" as="geometry" />
        </mxCell>
        <mxCell id="JR9Rdh7s3W0-7exf9pFp-18" value="LDR R2, =MULTIPLICACAO" style="whiteSpace=wrap;html=1;" parent="1" vertex="1">
          <mxGeometry x="2020" y="661" width="140" height="60" as="geometry" />
        </mxCell>
        <mxCell id="JR9Rdh7s3W0-7exf9pFp-23" value="" style="edgeStyle=orthogonalEdgeStyle;rounded=0;orthogonalLoop=1;jettySize=auto;html=1;" parent="1" source="JR9Rdh7s3W0-7exf9pFp-21" target="JR9Rdh7s3W0-7exf9pFp-9" edge="1">
          <mxGeometry relative="1" as="geometry" />
        </mxCell>
        <mxCell id="JR9Rdh7s3W0-7exf9pFp-21" value="STR R2, [MULTIPLICACAO]" style="whiteSpace=wrap;html=1;" parent="1" vertex="1">
          <mxGeometry x="2020" y="871" width="140" height="60" as="geometry" />
        </mxCell>
        <mxCell id="zsdITNveuCyrMe4s5igt-2" style="edgeStyle=orthogonalEdgeStyle;rounded=0;orthogonalLoop=1;jettySize=auto;html=1;exitX=0.5;exitY=1;exitDx=0;exitDy=0;" edge="1" parent="1" source="snNcHGQgrfZna9gWgwjK-1" target="zsdITNveuCyrMe4s5igt-1">
          <mxGeometry relative="1" as="geometry" />
        </mxCell>
        <mxCell id="snNcHGQgrfZna9gWgwjK-1" value="PrintaTabuada" style="shape=process;whiteSpace=wrap;html=1;backgroundOutline=1;" vertex="1" parent="1">
          <mxGeometry x="2361" y="331" width="120" height="60" as="geometry" />
        </mxCell>
        <mxCell id="TvrarV6oLhMwdA5pVZeN-2" value="" style="edgeStyle=orthogonalEdgeStyle;rounded=0;orthogonalLoop=1;jettySize=auto;html=1;" edge="1" parent="1" source="MpenUa-DPpRMXWbwOEXP-1" target="TvrarV6oLhMwdA5pVZeN-1">
          <mxGeometry relative="1" as="geometry" />
        </mxCell>
        <mxCell id="MpenUa-DPpRMXWbwOEXP-1" value="AcendeLED" style="shape=process;whiteSpace=wrap;html=1;backgroundOutline=1;" vertex="1" parent="1">
          <mxGeometry x="3330" y="340" width="120" height="60" as="geometry" />
        </mxCell>
        <mxCell id="TvrarV6oLhMwdA5pVZeN-5" value="" style="edgeStyle=orthogonalEdgeStyle;rounded=0;orthogonalLoop=1;jettySize=auto;html=1;" edge="1" parent="1" source="TvrarV6oLhMwdA5pVZeN-1" target="TvrarV6oLhMwdA5pVZeN-3">
          <mxGeometry relative="1" as="geometry" />
        </mxCell>
        <mxCell id="TvrarV6oLhMwdA5pVZeN-1" value="LDR R0, =TABUADA" style="rounded=0;whiteSpace=wrap;html=1;" vertex="1" parent="1">
          <mxGeometry x="3330" y="459" width="120" height="60" as="geometry" />
        </mxCell>
        <mxCell id="TvrarV6oLhMwdA5pVZeN-6" value="" style="edgeStyle=orthogonalEdgeStyle;rounded=0;orthogonalLoop=1;jettySize=auto;html=1;" edge="1" parent="1" source="TvrarV6oLhMwdA5pVZeN-3" target="TvrarV6oLhMwdA5pVZeN-4">
          <mxGeometry relative="1" as="geometry" />
        </mxCell>
        <mxCell id="TvrarV6oLhMwdA5pVZeN-3" value="Ativa LEDs de acordo com o parâmetro binário de 8 bits" style="rounded=0;whiteSpace=wrap;html=1;" vertex="1" parent="1">
          <mxGeometry x="3330" y="569" width="120" height="60" as="geometry" />
        </mxCell>
        <mxCell id="TvrarV6oLhMwdA5pVZeN-4" value="Return" style="rounded=1;whiteSpace=wrap;html=1;" vertex="1" parent="1">
          <mxGeometry x="3330" y="679" width="120" height="60" as="geometry" />
        </mxCell>
        <mxCell id="zsdITNveuCyrMe4s5igt-6" value="" style="edgeStyle=orthogonalEdgeStyle;rounded=0;orthogonalLoop=1;jettySize=auto;html=1;" edge="1" parent="1" source="zsdITNveuCyrMe4s5igt-1" target="zsdITNveuCyrMe4s5igt-5">
          <mxGeometry relative="1" as="geometry" />
        </mxCell>
        <mxCell id="zsdITNveuCyrMe4s5igt-1" value="LDR R0, =TABUADA" style="whiteSpace=wrap;html=1;" vertex="1" parent="1">
          <mxGeometry x="2351" y="451" width="140" height="60" as="geometry" />
        </mxCell>
        <mxCell id="62MEjTScFY74mMnkHNLx-22" value="" style="edgeStyle=orthogonalEdgeStyle;rounded=0;orthogonalLoop=1;jettySize=auto;html=1;" edge="1" parent="1" source="zsdITNveuCyrMe4s5igt-5" target="62MEjTScFY74mMnkHNLx-21">
          <mxGeometry relative="1" as="geometry" />
        </mxCell>
        <mxCell id="62MEjTScFY74mMnkHNLx-26" value="" style="edgeStyle=orthogonalEdgeStyle;rounded=0;orthogonalLoop=1;jettySize=auto;html=1;" edge="1" parent="1" source="zsdITNveuCyrMe4s5igt-5" target="62MEjTScFY74mMnkHNLx-25">
          <mxGeometry relative="1" as="geometry" />
        </mxCell>
        <mxCell id="zsdITNveuCyrMe4s5igt-5" value="R0 &amp;gt; 9" style="rhombus;whiteSpace=wrap;html=1;" vertex="1" parent="1">
          <mxGeometry x="2355.5" y="580" width="131" height="80" as="geometry" />
        </mxCell>
        <mxCell id="62MEjTScFY74mMnkHNLx-3" value="" style="edgeStyle=orthogonalEdgeStyle;rounded=0;orthogonalLoop=1;jettySize=auto;html=1;" edge="1" parent="1" source="zsdITNveuCyrMe4s5igt-7" target="62MEjTScFY74mMnkHNLx-2">
          <mxGeometry relative="1" as="geometry" />
        </mxCell>
        <mxCell id="zsdITNveuCyrMe4s5igt-7" value="Liga display 2" style="whiteSpace=wrap;html=1;" vertex="1" parent="1">
          <mxGeometry x="2361" y="860" width="120" height="60" as="geometry" />
        </mxCell>
        <mxCell id="62MEjTScFY74mMnkHNLx-5" value="" style="edgeStyle=orthogonalEdgeStyle;rounded=0;orthogonalLoop=1;jettySize=auto;html=1;" edge="1" parent="1" source="62MEjTScFY74mMnkHNLx-2" target="62MEjTScFY74mMnkHNLx-4">
          <mxGeometry relative="1" as="geometry" />
        </mxCell>
        <mxCell id="62MEjTScFY74mMnkHNLx-2" value="Espera 1ms" style="whiteSpace=wrap;html=1;" vertex="1" parent="1">
          <mxGeometry x="2361" y="980" width="120" height="60" as="geometry" />
        </mxCell>
        <mxCell id="62MEjTScFY74mMnkHNLx-8" value="" style="edgeStyle=orthogonalEdgeStyle;rounded=0;orthogonalLoop=1;jettySize=auto;html=1;" edge="1" parent="1" source="62MEjTScFY74mMnkHNLx-4" target="62MEjTScFY74mMnkHNLx-7">
          <mxGeometry relative="1" as="geometry" />
        </mxCell>
        <mxCell id="62MEjTScFY74mMnkHNLx-4" value="Desliga display 2" style="whiteSpace=wrap;html=1;" vertex="1" parent="1">
          <mxGeometry x="2361" y="1100" width="120" height="60" as="geometry" />
        </mxCell>
        <mxCell id="62MEjTScFY74mMnkHNLx-6" value="return" style="rounded=1;whiteSpace=wrap;html=1;" vertex="1" parent="1">
          <mxGeometry x="2355.5" y="1340" width="120" height="60" as="geometry" />
        </mxCell>
        <mxCell id="62MEjTScFY74mMnkHNLx-9" value="" style="edgeStyle=orthogonalEdgeStyle;rounded=0;orthogonalLoop=1;jettySize=auto;html=1;" edge="1" parent="1" source="62MEjTScFY74mMnkHNLx-7" target="62MEjTScFY74mMnkHNLx-6">
          <mxGeometry relative="1" as="geometry" />
        </mxCell>
        <mxCell id="62MEjTScFY74mMnkHNLx-7" value="Espera 1ms" style="whiteSpace=wrap;html=1;" vertex="1" parent="1">
          <mxGeometry x="2361" y="1220" width="120" height="60" as="geometry" />
        </mxCell>
        <mxCell id="62MEjTScFY74mMnkHNLx-13" value="" style="edgeStyle=orthogonalEdgeStyle;rounded=0;orthogonalLoop=1;jettySize=auto;html=1;" edge="1" parent="1" source="62MEjTScFY74mMnkHNLx-10" target="62MEjTScFY74mMnkHNLx-12">
          <mxGeometry relative="1" as="geometry" />
        </mxCell>
        <mxCell id="62MEjTScFY74mMnkHNLx-10" value="Liga display 1 e display 2" style="whiteSpace=wrap;html=1;" vertex="1" parent="1">
          <mxGeometry x="2600" y="720" width="120" height="60" as="geometry" />
        </mxCell>
        <mxCell id="62MEjTScFY74mMnkHNLx-16" value="" style="edgeStyle=orthogonalEdgeStyle;rounded=0;orthogonalLoop=1;jettySize=auto;html=1;" edge="1" parent="1" source="62MEjTScFY74mMnkHNLx-12" target="62MEjTScFY74mMnkHNLx-15">
          <mxGeometry relative="1" as="geometry" />
        </mxCell>
        <mxCell id="62MEjTScFY74mMnkHNLx-12" value="Espera 1ms" style="whiteSpace=wrap;html=1;" vertex="1" parent="1">
          <mxGeometry x="2600" y="870" width="120" height="60" as="geometry" />
        </mxCell>
        <mxCell id="62MEjTScFY74mMnkHNLx-14" value="SIM" style="text;html=1;align=center;verticalAlign=middle;resizable=0;points=[];autosize=1;strokeColor=none;fillColor=none;" vertex="1" parent="1">
          <mxGeometry x="2515" y="580" width="40" height="30" as="geometry" />
        </mxCell>
        <mxCell id="62MEjTScFY74mMnkHNLx-18" value="" style="edgeStyle=orthogonalEdgeStyle;rounded=0;orthogonalLoop=1;jettySize=auto;html=1;" edge="1" parent="1" source="62MEjTScFY74mMnkHNLx-15" target="62MEjTScFY74mMnkHNLx-17">
          <mxGeometry relative="1" as="geometry" />
        </mxCell>
        <mxCell id="62MEjTScFY74mMnkHNLx-15" value="Desliga display 1 e display 2" style="whiteSpace=wrap;html=1;" vertex="1" parent="1">
          <mxGeometry x="2600" y="980" width="120" height="60" as="geometry" />
        </mxCell>
        <mxCell id="62MEjTScFY74mMnkHNLx-20" value="" style="edgeStyle=orthogonalEdgeStyle;rounded=0;orthogonalLoop=1;jettySize=auto;html=1;" edge="1" parent="1" source="62MEjTScFY74mMnkHNLx-17" target="62MEjTScFY74mMnkHNLx-19">
          <mxGeometry relative="1" as="geometry" />
        </mxCell>
        <mxCell id="62MEjTScFY74mMnkHNLx-17" value="Espera 1ms" style="whiteSpace=wrap;html=1;" vertex="1" parent="1">
          <mxGeometry x="2600" y="1100" width="120" height="60" as="geometry" />
        </mxCell>
        <mxCell id="62MEjTScFY74mMnkHNLx-19" value="return" style="rounded=1;whiteSpace=wrap;html=1;" vertex="1" parent="1">
          <mxGeometry x="2600" y="1220" width="120" height="60" as="geometry" />
        </mxCell>
        <mxCell id="62MEjTScFY74mMnkHNLx-23" value="" style="edgeStyle=orthogonalEdgeStyle;rounded=0;orthogonalLoop=1;jettySize=auto;html=1;" edge="1" parent="1" source="62MEjTScFY74mMnkHNLx-21" target="zsdITNveuCyrMe4s5igt-7">
          <mxGeometry relative="1" as="geometry" />
        </mxCell>
        <mxCell id="62MEjTScFY74mMnkHNLx-21" value="Seleciona digito display" style="shape=process;whiteSpace=wrap;html=1;backgroundOutline=1;" vertex="1" parent="1">
          <mxGeometry x="2361" y="721" width="120" height="60" as="geometry" />
        </mxCell>
        <mxCell id="62MEjTScFY74mMnkHNLx-24" value="NÃO" style="text;html=1;align=center;verticalAlign=middle;resizable=0;points=[];autosize=1;strokeColor=none;fillColor=none;" vertex="1" parent="1">
          <mxGeometry x="2350.5" y="670" width="50" height="30" as="geometry" />
        </mxCell>
        <mxCell id="62MEjTScFY74mMnkHNLx-27" value="" style="edgeStyle=orthogonalEdgeStyle;rounded=0;orthogonalLoop=1;jettySize=auto;html=1;" edge="1" parent="1" source="62MEjTScFY74mMnkHNLx-25" target="62MEjTScFY74mMnkHNLx-10">
          <mxGeometry relative="1" as="geometry" />
        </mxCell>
        <mxCell id="62MEjTScFY74mMnkHNLx-25" value="Seleciona digito display" style="shape=process;whiteSpace=wrap;html=1;backgroundOutline=1;" vertex="1" parent="1">
          <mxGeometry x="2600" y="590" width="120" height="60" as="geometry" />
        </mxCell>
        <mxCell id="62MEjTScFY74mMnkHNLx-30" value="" style="edgeStyle=orthogonalEdgeStyle;rounded=0;orthogonalLoop=1;jettySize=auto;html=1;" edge="1" parent="1" source="62MEjTScFY74mMnkHNLx-28" target="62MEjTScFY74mMnkHNLx-29">
          <mxGeometry relative="1" as="geometry" />
        </mxCell>
        <mxCell id="62MEjTScFY74mMnkHNLx-28" value="Seleciona digito display" style="shape=process;whiteSpace=wrap;html=1;backgroundOutline=1;" vertex="1" parent="1">
          <mxGeometry x="2830" y="340" width="120" height="60" as="geometry" />
        </mxCell>
        <mxCell id="62MEjTScFY74mMnkHNLx-32" value="" style="edgeStyle=orthogonalEdgeStyle;rounded=0;orthogonalLoop=1;jettySize=auto;html=1;" edge="1" parent="1" source="62MEjTScFY74mMnkHNLx-29" target="62MEjTScFY74mMnkHNLx-31">
          <mxGeometry relative="1" as="geometry" />
        </mxCell>
        <mxCell id="62MEjTScFY74mMnkHNLx-29" value="Seta bit de LEDs de acordo com o parâmetro de 0 a F" style="rounded=0;whiteSpace=wrap;html=1;" vertex="1" parent="1">
          <mxGeometry x="2830" y="460" width="120" height="60" as="geometry" />
        </mxCell>
        <mxCell id="62MEjTScFY74mMnkHNLx-34" value="" style="edgeStyle=orthogonalEdgeStyle;rounded=0;orthogonalLoop=1;jettySize=auto;html=1;" edge="1" parent="1" source="62MEjTScFY74mMnkHNLx-31" target="62MEjTScFY74mMnkHNLx-33">
          <mxGeometry relative="1" as="geometry" />
        </mxCell>
        <mxCell id="62MEjTScFY74mMnkHNLx-31" value="Set LEDs" style="shape=process;whiteSpace=wrap;html=1;backgroundOutline=1;" vertex="1" parent="1">
          <mxGeometry x="2830" y="589" width="120" height="60" as="geometry" />
        </mxCell>
        <mxCell id="62MEjTScFY74mMnkHNLx-33" value="Return" style="rounded=1;whiteSpace=wrap;html=1;" vertex="1" parent="1">
          <mxGeometry x="2830" y="710" width="120" height="60" as="geometry" />
        </mxCell>
        <mxCell id="62MEjTScFY74mMnkHNLx-38" value="" style="edgeStyle=orthogonalEdgeStyle;rounded=0;orthogonalLoop=1;jettySize=auto;html=1;" edge="1" parent="1" source="62MEjTScFY74mMnkHNLx-36" target="62MEjTScFY74mMnkHNLx-37">
          <mxGeometry relative="1" as="geometry" />
        </mxCell>
        <mxCell id="62MEjTScFY74mMnkHNLx-36" value="Set LEDs" style="shape=process;whiteSpace=wrap;html=1;backgroundOutline=1;" vertex="1" parent="1">
          <mxGeometry x="3080" y="340" width="120" height="60" as="geometry" />
        </mxCell>
        <mxCell id="62MEjTScFY74mMnkHNLx-40" value="" style="edgeStyle=orthogonalEdgeStyle;rounded=0;orthogonalLoop=1;jettySize=auto;html=1;" edge="1" parent="1" source="62MEjTScFY74mMnkHNLx-37" target="62MEjTScFY74mMnkHNLx-39">
          <mxGeometry relative="1" as="geometry" />
        </mxCell>
        <mxCell id="62MEjTScFY74mMnkHNLx-37" value="Ativa LEDs de acordo com o parâmetro binário de 8 bits" style="rounded=0;whiteSpace=wrap;html=1;" vertex="1" parent="1">
          <mxGeometry x="3080" y="460" width="120" height="60" as="geometry" />
        </mxCell>
        <mxCell id="62MEjTScFY74mMnkHNLx-39" value="Return" style="rounded=1;whiteSpace=wrap;html=1;" vertex="1" parent="1">
          <mxGeometry x="3080" y="589" width="120" height="60" as="geometry" />
        </mxCell>
      </root>
    </mxGraphModel>
  </diagram>
</mxfile>
